<svg id="eSbXf37LTtA1" xmlns="http://www.w3.org/2000/svg" xmlns:xlink="http://www.w3.org/1999/xlink" viewBox="0 0 400 400" shape-rendering="geometricPrecision" text-rendering="geometricPrecision" project-id="715d7239b57a4d7f9b037a41b86c93e1" export-id="6258bbb2672842eba19bdacb6b28451b" cached="false"><rect width="63.504" height="63.562" rx="0" ry="0" transform="matrix(6.3 0 0 6.3 -0.0376 -0.2203)" clip-rule="evenodd" fill="#17ba01" fill-rule="evenodd"/><path d="M200.515,212.533h-.988-8.685c-3.498,0-6.338,2.838-6.338,6.296v.74h14.075h2.84h14.074v-.74c0-3.458-2.839-6.296-6.337-6.296h-8.641Zm3.334,7.778c-.37-.247-.783-.535-1.563-.535-.783,0-1.195.288-1.565.535-.288.248-.495.37-.988.37-.494,0-.74-.122-1.071-.37-.288-.247-.699-.535-1.481-.535-.781,0-1.233.288-1.563.535-.288.248-.494.37-1.028.37-.495,0-.783-.122-1.029-.37-.37-.247-.74-.535-1.523-.535v.783c.494,0,.74.205.988.41.37.206.781.576,1.564.576.781,0,1.233-.37,1.523-.576.288-.205.576-.41,1.069-.41.495,0,.7.205.988.41.329.206.781.576,1.564.576s1.194-.37,1.482-.576c.37-.205.574-.41,1.071-.41.492,0,.697.205,1.067.41.29.206.701.576,1.482.576.782,0,1.193-.37,1.564-.576.29-.205.494-.41.987-.41v-.783c-.779,0-1.193.288-1.48.535-.371.248-.575.37-1.071.37-.495,0-.699-.122-.987-.37v0Zm-9.59,3.951c.494.328,1.069.823,2.14.823c1.11,0,1.687-.495,2.181-.823.413-.288.701-.576,1.44-.576.701,0,1.071.288,1.483.576.41.328,1.069.823,2.141.823c1.108,0,1.688-.495,2.181-.823.369-.288.7-.576,1.44-.576.7,0,1.069.288,1.48.576.412.328,1.072.823,2.141.823v-1.111c-.74,0-1.068-.288-1.483-.658-.45-.371-1.025-.783-2.138-.783-1.071,0-1.729.412-2.141.783-.411.37-.783.658-1.48.658-.7,0-1.071-.288-1.441-.658-.496-.371-1.071-.783-2.183-.783-1.07,0-1.728.412-2.14.783-.454.37-.782.658-1.481.658-.742,0-1.029-.288-1.44-.658-.495-.371-1.07-.783-2.183-.783-1.069,0-1.644.412-2.139.783-.452.37-.781.658-1.481.658v1.111c1.111,0,1.687-.495,2.18-.823.413-.288.701-.576,1.441-.576.7,0,1.029.288,1.482.576v0Zm-9.755,3.622v.74c0,3.498,2.84,6.338,6.338,6.338h7.532.082h3.129.04h7.532c3.498,0,6.337-2.84,6.337-6.338v-.74h-13.005-4.98-13.005Zm-.616-6.214h32.307c1.155,0,2.099.945,2.099,2.057v0c0,1.153-.943,2.099-2.099,2.099h-32.307c-1.153,0-2.141-.945-2.141-2.099v0c0-1.112.988-2.057,2.141-2.057v0Z" transform="matrix(6.3 0 0 6.3 -1060.12915 -1209.609249)" clip-rule="evenodd" fill="#fff" fill-rule="evenodd"/></svg>
