<svg id="eseGcALXMba1" xmlns="http://www.w3.org/2000/svg" xmlns:xlink="http://www.w3.org/1999/xlink" viewBox="0 0 400 400" shape-rendering="geometricPrecision" text-rendering="geometricPrecision" project-id="715d7239b57a4d7f9b037a41b86c93e1" export-id="8e45b98b6d22407d84b66507d2bb828c" cached="false"><rect width="63.564" height="63.564" rx="0" ry="0" transform="matrix(6.3 0 0 6.3 -0.226595 -0.226563)" clip-rule="evenodd" fill="#212b2d" fill-rule="evenodd"/><path d="M84.618,88.322l-.905-3.128c-.207-.495-.701-.865-1.235-.865h-.742l-.781-2.592c-.123-.577-.619-.947-1.153-.947h-13.787c-.576,0-1.029.37-1.194.947L64.04,84.33h-.741c-.576,0-1.03.37-1.152.865l-.988,3.128c-.124.329-.041.781.164,1.071.247.329.617.494,1.07.494h.452l.494,4.938c-.124.041-.247.123-.37.165-.124.205-.164.452-.164.701l.904,9.26c.083.329.331.575.619.657l.534,5.639c.082.699.619,1.192,1.276,1.192h13.5c.658,0,1.194-.493,1.235-1.192l.576-5.639c.288-.082.617-.329.617-.657l.906-9.26c0-.249-.082-.495-.206-.701-.124-.041-.206-.124-.37-.165l.494-4.938h.493c.454,0,.783-.165,1.03-.494.246-.29.328-.743.205-1.072v0ZM68.773,101.039c.123,0,.123,0,.123,0-.041,0-.206.123-.206.247s.165.164.206.164c.164,0,.37-.164.37-.37c0-.164-.206-.329-.411-.329-.699-.041-1.523,1.029-1.523,1.605c0,.329.206.494.452.494.824,0,1.399-.535,1.852-1.151c0-.043,0-.166,0-.166c0-.082,0-.123,0-.123-.082,0-.082,0-.082.041-.165.206-.781,1.112-1.441,1.112-.206,0-.329-.123-.329-.329.001-.453.619-1.195.989-1.195v0Zm1.441,1.194c-.083.123-.288.329-.453.329-.125,0-.207-.123-.207-.247c0-.494.618-1.317,1.029-1.317.124,0,.206.041.206.164c0,.124-.124.493-.247.618-.082-.082-.123-.082-.165-.082-.206,0-.329.123-.329.329.001.124.083.165.166.206v0Zm.205.082c.37,0,.74-.164,1.029-.535.082-.125.082-.207.082-.207c0-.123,0-.164-.082-.164c0,0,0,0-.042,0-.329.495-.617.659-.74.618.165-.246.37-.618.37-.947c0-.164-.205-.329-.453-.329-.7-.041-1.522,1.029-1.522,1.605c0,.329.123.452.452.452.37.001.618-.205.906-.493v0Zm1.523.535c0,0,.04,0,.123,0c.411,0,.864-.411.864-.699c0-.124,0-.206-.083-.206-.165.288-.411.658-.781.658c0,0,.247-.452.247-.904c0-.166-.082-.289-.206-.289-.206,0-.452.371-.452.782c0,.164.041.411.041.494-.372.659-.906,1.317-1.112,1.317-.041,0-.123-.123-.123-.164c0-.288,1.112-2.058,1.605-2.922.864-.206,1.77-1.112,1.77-1.77c0-.206-.124-.288-.329-.288-.37,0-.947.576-1.728,1.811-.082-.04-.123-.04-.123-.205c0-.082.041-.082.041-.165c0,0-.041-.041-.123-.041-.166,0-.288.165-.288.371c0,.164.122.288.288.288-.413.783-1.441,2.306-1.441,2.922c0,.247.041.411.329.411.37-.002.945-.495,1.481-1.401v0Zm1.564-3.827c.082,0,.082.083.082.206c0,.535-.781,1.194-1.399,1.4.246-.33.906-1.606,1.317-1.606v0Zm.246,3.827c.083,0,.124,0,.124,0c.454,0,.947-.411.947-.699c0-.124-.082-.206-.082-.206s0,0-.082,0c-.082.288-.329.658-.783.658c0,0,.329-.452.329-.904c0-.166-.082-.289-.247-.289-.206,0-.452.371-.452.782c0,.164,0,.411.082.494-.37.659-.906,1.317-1.112,1.317-.123,0-.165-.123-.165-.164c0-.288,1.071-2.058,1.646-2.922.865-.206,1.77-1.112,1.77-1.77c0-.206-.123-.288-.37-.288-.37,0-.988.576-1.729,1.811-.123-.04-.165-.04-.165-.205c0-.082.124-.082.124-.165l-.124-.041c-.246,0-.329.165-.329.371c0,.164.165.288.329.288-.494.783-1.522,2.306-1.522,2.922c0,.247.123.411.411.411.373-.002.866-.495,1.4-1.401v0Zm1.606-3.827c.041,0,.123.083.123.206c0,.535-.864,1.194-1.399,1.4.166-.33.906-1.606,1.276-1.606v0Zm-.37,3.21c0-.082,0-.206.041-.329.699,0,1.317-.454,1.317-.824c0-.246-.123-.329-.329-.329-.742-.041-1.523,1.029-1.523,1.605c0,.329.247.494.494.494.74,0,1.399-.535,1.811-1.151c0-.043.083-.125.083-.166c0-.082-.124-.206-.124-.123c0,0-.74,1.152-1.481,1.152-.166,0-.289-.123-.289-.329v0Zm.164-.534c.206-.289.576-.7.865-.7.082,0,.123.041.123.082c0,.205-.494.618-.988.618v0Zm1.399.534c0-.082.082-.206.123-.329.701,0,1.276-.454,1.276-.824c0-.246-.082-.329-.289-.329-.741-.041-1.563,1.029-1.563,1.605c0,.329.246.494.534.494.742,0,1.317-.535,1.77-1.151.041-.043.041-.125.041-.166c0-.082-.041-.206-.041-.123c0,0-.781,1.152-1.522,1.152-.205,0-.329-.123-.329-.329v0Zm.247-.534c.123-.289.577-.7.824-.7.124,0,.124.041.124.082c0,.205-.453.618-.948.618v0ZM79.556,84.33h-13.335l.413-1.399h12.511l.411,1.399Zm.74,10.454h-14.815l-.495-4.897h15.805l-.495,4.897Zm1.934-6.956h-18.685l.413-1.357h17.861l.411,1.357Z" transform="matrix(6.3 0 0 6.3 -259.192061 -408.674511)" clip-rule="evenodd" fill="#fff" fill-rule="evenodd"/></svg>
