<svg id="ebmowMUpY0c1" xmlns="http://www.w3.org/2000/svg" xmlns:xlink="http://www.w3.org/1999/xlink" viewBox="0 0 1280 700" shape-rendering="geometricPrecision" text-rendering="geometricPrecision" project-id="76b5e60837704ccb95205266f02b8978" export-id="74649e2efcd1456db7fac0ad6b39d26f" cached="false"><defs><polygon id="ebmowMUpY0c2" points="451.353,377.065 448.972,1573.924 870.348,1573.894 874.381,380.535"/><path id="ebmowMUpY0c3" d="M1750.68,835.914c7.973-13.489,12.078-31.618,16.721-50.601c23.803,3.158,55.26,6.521,89.081,6.131c9.604.046,14.666-69.28-62.807-80.021-31.269-4.335-70.258,6.244-86.774,36.962-17.79,33.087-13.321,70.533,2.498,87.271c10.087,10.673,30.446,12.95,41.281.258Z"/><linearGradient id="ebmowMUpY0c110-fill" x1="1555.720229" y1="908.209514" x2="728.722032" y2="752.092293" spreadMethod="pad" gradientUnits="userSpaceOnUse" gradientTransform="translate(0 0)"><stop id="ebmowMUpY0c110-fill-0" offset="0%" stop-color="#fff"/><stop id="ebmowMUpY0c110-fill-1" offset="100%" stop-color="#000"/></linearGradient><linearGradient id="ebmowMUpY0c111-fill" x1="1670.406317" y1="754.295881" x2="981.355406" y2="624.219762" spreadMethod="pad" gradientUnits="userSpaceOnUse" gradientTransform="translate(0 0)"><stop id="ebmowMUpY0c111-fill-0" offset="0%" stop-color="#fff"/><stop id="ebmowMUpY0c111-fill-1" offset="100%" stop-color="#000"/></linearGradient><linearGradient id="ebmowMUpY0c112-fill" x1="1123.759" y1="1326.230795" x2="464.255257" y2="1201.732402" spreadMethod="pad" gradientUnits="userSpaceOnUse" gradientTransform="translate(0 0)"><stop id="ebmowMUpY0c112-fill-0" offset="0%" stop-color="#fff"/><stop id="ebmowMUpY0c112-fill-1" offset="100%" stop-color="#000"/></linearGradient><linearGradient id="ebmowMUpY0c205-fill" x1="1902.364537" y1="1142.004046" x2="2230.076379" y2="1131.820033" spreadMethod="pad" gradientUnits="userSpaceOnUse" gradientTransform="translate(0 0)"><stop id="ebmowMUpY0c205-fill-0" offset="0%" stop-color="#fff"/><stop id="ebmowMUpY0c205-fill-1" offset="100%" stop-color="#000"/></linearGradient></defs><g transform="matrix(0.45 0 0 0.45 104.15574 -131.57744)"><g><path d="M892.195,1602.526h-443.223c0,0-131.649-7.326-128.695,32.522c3.475,46.887,513.473,15.974,550.758,45.46s56.794,64.151,123.285,81.003c66.491,16.851,192.503-26.042,545.688,20.897c213.728-43.876-478.789-179.882-647.813-179.882Z" fill="#5ad2d6"/></g><g><path d="M363.937,380.293c-.591-80.07,151.323-91.825,149.537-49.699l272.713.949c31.557.444,57.035,29.007,56.928,63.778l-3.594,1161.374c-.106,34.026-25.461,61.602-56.654,61.613l-288.879,1.449c-2.773,5.674-7.99,10.815-16.222,15.075-80.836-.644-117.575-32.483-117.89-73.473-3.017-7.558.806-1166.009,4.061-1181.066Z" fill="#027273"/><path d="M395.1,856.853v0c6.697.153,12.222-5.139,12.278-11.762l2.591-303.224c.057-6.72-5.417-12.347-12.166-12.502v0c-6.749-.155-12.314,5.218-12.367,11.938l-2.415,303.232c-.053,6.624,5.382,12.166,12.079,12.318Z" fill="#013f40"/><g><path d="M482.585,1635.048l355.439-.402c32.298.056,58.571-28.244,58.698-63.228l4.32-1194.467c.129-35.772-26.251-65.092-58.938-65.467l-356.472-4.631c-32.952-.378-59.728,28.469-59.791,64.411l-2.108,1200.06c-.062,35.147,26.293,63.668,58.852,63.724Z" fill="#03c0c2"/><path d="M475.399,1626.571c2.151.296,4.353.447,6.543.448l355.351-.963c27.759.017,50.574-24.802,50.682-55.343l4.22-1193.158c.11-31.225-22.796-56.931-50.883-57.283l-356.367-5.206c-.819-.01-1.646,0-2.461.031-13.177.503-25.461,6.402-34.61,16.592-9.346,10.41-14.497,24.258-14.524,39.01l-2.191,1201.274c-.051,27.651,18.903,51.108,44.24,54.598Z" fill="#0d0d0d"/><polygon points="451.723,377.065 449.342,1573.924 870.718,1573.894 874.752,380.535" fill="#fff"/><g><g clip-path="url(#ebmowMUpY0c56)"><g><g><rect width="514.002" height="1123.28" rx="0" ry="0" transform="translate(375.777 491.067)" fill="#e6e6e6"/><polygon points="952.445,1473.577 118.764,1220.689 151.785,1193.231 935.087,1396.924" fill="#04f2f5"/><rect width="17.876" height="987.614" rx="0" ry="0" transform="matrix(0.2783 -0.9605 0.9605 0.2783 106.013476 1239.325564)" fill="#fff"/><g><path d="M565.342,936.249c-7.319-.738-14.802-1.133-22.416-1.133s-15.124.395-22.452,1.133c-69.188,6.929-128.596,46.724-137.495,98.966-9.789,57.468,44.002,109.594,125.378,119.562c8.758,1.079,17.801,1.657,27.022,1.657c9.22,0,18.303-.579,27.184-1.657c82.056-9.969,139.4-62.094,133.528-119.562-5.338-52.242-62.033-92.036-130.749-98.966Zm-2.288,179.898c-8.474,1.449-17.336,2.211-26.377,2.211s-17.803-.762-26.178-2.211c-51.924-8.874-86.644-42.787-81.669-80.932c4.665-35.77,43.133-64.027,90.09-70.939c7.457-1.111,15.172-1.693,23.07-1.693s15.615.582,22.996,1.693c46.487,6.939,83.027,35.169,85.254,70.939c2.375,38.145-34.659,72.023-87.186,80.932Z" fill="#ffd84f"/><path d="M567.108,797.35l-2.123,166.927c-7.381-1.111-15.098-1.693-22.996-1.693s-15.613.582-23.07,1.693l9.255-166.927h38.934Z" fill="#ffd84f"/><path d="M986.648,1052.673h-325.147c1.42-5.668,1.945-11.537,1.51-17.473-.431-5.875-1.784-11.536-3.952-16.927h315.558l12.031,34.4Z" fill="#ffd84f"/><path d="M535.731,1146.101c9.244,0,18.308-.883,26.975-2.562l-4.87,430.686h-70.089l21.233-430.686c8.552,1.679,17.506,2.562,26.751,2.562Z" fill="#ffd84f"/></g><g><polygon points="352.485,907.431 271.744,907.431 283.692,867.683 368.249,867.683" fill="#fff"/><polygon points="451.488,907.431 370.748,907.431 387.375,867.683 471.932,867.683" fill="#fff"/><polygon points="508.858,867.683 487.716,867.683 466.56,907.431 506.029,907.431" fill="#fff"/><polygon points="335.848,952.751 259.459,952.751 270.186,917.262 349.982,917.262" fill="#fff"/><path d="M429.868,951.43c.141-.066.287-.127.428-.193l17.531-33.975h-79.796l-14.905,35.489h74.06c.896-.44,1.772-.894,2.682-1.321Z" fill="#fff"/><path d="M479.437,935.645c8.174-1.397,16.452-1.599,24.704-1.667l1.133-15.927h-44.366l-13.999,26.302c10.371-3.775,21.276-6.785,32.528-8.708Z" fill="#fff"/><polygon points="320.437,991.447 247.763,991.447 257.451,959.396 333.201,959.396" fill="#fff"/><path d="M415.004,959.396h-64.668l-13.461,32.051h43.441c7.807-12.251,19.939-23.118,34.688-32.051Z" fill="#fff"/></g><path d="M630.08,1035.215c1.616,36.131-39.905,67.133-92.833,67.133s-92.336-31.001-88.257-67.133c3.837-33.993,45.203-60.109,92.594-60.109c47.39.001,86.976,26.116,88.496,60.109Z" fill="#03e484"/><path d="M542.87,980.024c0,0,78.524,9.217,68.632,49.591-10.644,43.441-54.242,43.441-47.544,15.44c6.389-26.71-16.887-32.52-29.194-44.734-12.042-11.952-12.374-19.81,8.106-20.297Z" fill="#04f2f5"/><path d="M580.612,856.055l.136,68.914c0,0,107.255,20.84,123.987,84.829c94.553,0,228.503,0,228.503,0L874.75,857.291l-294.138-1.236Z" fill="#03e484"/><g><polygon points="828.818,1131.335 728.404,1131.335 715.492,1070.78 806.469,1070.78" fill="#fff"/><polygon points="953.571,1131.335 853.158,1131.335 828.522,1070.78 919.499,1070.78" fill="#fff"/><polygon points="863.352,1224.908 748.357,1224.908 731.65,1146.559 834.436,1146.559" fill="#fff"/><polygon points="1006.221,1224.908 891.226,1224.908 859.351,1146.559 962.137,1146.559" fill="#fff"/><polygon points="905.25,1354.563 871.296,1246.434 752.947,1246.434 763.767,1319.877" fill="#fff"/><path d="M659.597,1146.559c-14.866,14.455-32.994,27.729-54.353,35.483l1.521,42.867h114.352l-13.814-78.35h-47.706Z" fill="#fff"/><path d="M971.071,1310.087c31.688,7.618,63.74,15.343,96.146,23.227l-48.884-86.88h-118.349l21.004,51.628c16.602,3.986,33.297,7.99,50.083,12.025Z" fill="#fff"/></g><path d="M242.454,1068.376c13.96,1.223,28.087,2.16,42.297,2.961.561-4.51,1.139-8.987,1.547-13.422c1.053-11.431,1.638-22.662,1.299-33.517-.04-1.281-.125-2.553-.191-3.825h-48.248l-14.49,46.084c5.908.605,11.828,1.197,17.786,1.719Z" fill="#fff"/><path d="M230.099,1083.603c-3.483-.342-6.953-.707-10.423-1.068l-12.768,40.606l66.64,15.681c3.274-17.696,6.45-34.905,9.003-51.612-17.621-.937-35.212-1.916-52.452-3.607Z" fill="#fff"/><path d="M306.496,1072.47c19.93.949,39.942,1.731,59.88,2.669-7.918-31.025,1.711-54.565,1.711-54.565h-59.271c.035.883.07,1.768.101,2.649.547,15.868-.525,32.293-2.421,49.247Z" fill="#fff"/><path d="M372.168,1091.725c-22.601-1.095-45.152-2.217-67.646-3.382-2.467,17.988-5.613,36.566-8.741,55.711l119.687,28.163c0,0,4.001-7.547,3.257-25.659-24.575-18.005-38.708-37.154-46.557-54.833Z" fill="#fff"/><path d="M136.088,1264.7c6.15.128,335.504,98.966,335.504,98.966l-9.318,128.533h-399.232L136.088,1264.7Z" fill="#03e484"/><rect width="509.848" height="367.788" rx="0" ry="0" transform="translate(378.968 493.117)" fill="#94f3f7"/></g><polygon points="611.33,1245.028 722.299,1248.679 728.168,1318.051 610.633,1284.433" fill="#fff"/><polygon points="290.025,1158.778 410.514,1187.521 395.909,1242.289 275.42,1205.777" fill="#fff"/><polygon points="269.03,1151.922 250.775,1201.213 211.522,1187.521 227.955,1141.047" fill="#fff"/><polygon points="436.072,1158.778 418.729,1246.853 486.276,1263.283 495.404,1175.655" fill="#fff"/></g><clipPath id="ebmowMUpY0c56"><use width="425.408997" height="1196.859009" xlink:href="#ebmowMUpY0c2"/></clipPath></g></g></g><g><g><polygon points="747.561,566.501 699.989,566.113 547.096,377.847 594.881,378.239" fill="#f13005"/><polygon points="699.989,566.113 652.449,565.724 499.31,377.455 547.096,377.847" fill="#f1e3e0"/><polygon points="652.449,565.724 604.875,565.336 451.557,377.063 499.31,377.455" fill="#f13005"/><polygon points="795.098,566.89 747.561,566.501 594.881,378.239 642.63,378.631" fill="#f1e3e0"/><polygon points="890.204,567.667 842.668,567.278 690.414,379.023 738.162,379.415" fill="#f1e3e0"/><polygon points="1028.195,568.794 985.306,568.443 833.69,380.199 876.736,380.552" fill="#f13005"/><polygon points="985.306,568.443 937.773,568.055 785.944,379.807 833.69,380.199" fill="#f1e3e0"/><polygon points="842.668,567.278 795.098,566.89 642.63,378.631 690.414,379.023" fill="#f13005"/><polygon points="937.773,568.055 890.204,567.667 738.162,379.415 785.944,379.807" fill="#f13005"/></g><path d="M652.449,565.724l.017,28.659c.018,30.368-47.49,29.981-47.542-.388l-.049-28.66l47.574.389Z" fill="#d62b04"/><path d="M699.989,566.113l-.015,28.659c-.016,30.368-47.489,29.98-47.507-.388l-.017-28.659l47.539.388Z" fill="#f1c5bc"/><path d="M747.561,566.501l-.047,28.658c-.05,30.367-47.556,29.979-47.54-.388l.015-28.659l47.572.389Z" fill="#d62b04"/><path d="M795.098,566.89l-.079,28.658c-.084,30.367-47.555,29.979-47.505-.388l.047-28.658l47.537.388Z" fill="#f1c5bc"/><path d="M842.668,567.278l-.112,28.657c-.118,30.366-47.622,29.978-47.538-.388l.079-28.658l47.571.389Z" fill="#d62b04"/><path d="M890.204,567.667l-.144,28.657c-.152,30.365-47.622,29.978-47.504-.388l.112-28.657l47.536.388Z" fill="#f1c5bc"/><path d="M937.773,568.055l-.176,28.656c-.186,30.365-47.689,29.977-47.537-.388l.144-28.657l47.569.389Z" fill="#d62b04"/><path d="M985.306,568.443l-.208,28.656c-.22,30.364-47.688,29.977-47.502-.388l.176-28.656l47.534.388Z" fill="#f1c5bc"/><path d="M1028.195,568.794l-.237,28.655c-.251,30.364-43.08,30.014-42.86-.35l.208-28.656l42.889.351Z" fill="#d62b04"/><polygon points="604.875,565.336 608.601,565.852 451.351,564.458 451.557,377.063" fill="#f13005"/></g><path d="M589.602,1326.209c-22.217-22.14,12.81-75.28,64.477-125.382c20.853-20.221,44.418-39.939,68.023-56.933.812-.413,1.5-.901,2.017-1.447.354-.252.707-.51,1.061-.761c0-.253-.045-.516-.121-.783.11-.373.148-.759.102-1.155l-14.122-73.984l109.68-1.051c1.624,0,3.14-.808,4.046-2.154.906-1.348,1.083-3.057.471-4.561l-19.843-48.754c-.748-1.837-2.533-3.039-4.517-3.039h-99.979c-2.403-5.84-8.462-18.436-20.495-32.015-14.824-16.729-41.958-38.204-87.041-45.509-10.019-.405-9.557,8.632-1.56,9.628c33.726,5.465,60.973,19.593,80.984,41.993c14.959,16.746,20.051,32.121,20.098,32.266.646,2.02,2.524,3.392,4.645,3.392h100.068l15.873,39.001h-109.592c-6.973.187-9.036,4.917-8.866,10.958l7.581,67.763c-69.517,38.873-147.455,90.122-183.037,121.574-48.149,42.561-47.605,117.117,11.004,171.921c133.54,124.872,349.835,208.888,576.101,264.888c453.908,112.34,755.261,132.58,785.362,135.319c102.638,8.425,235.915-7.149,223.66-123.064s181.882-108.116,202.806-113.298c-230.324-9.211-1535.812-72.407-1728.886-264.813Z" fill="#808080"/><path d="M2318.487,1591.021c-65.533-1.59-192.827,3.878-207.35,90.962-1.558,10.239-.371,20.557.362,30.768c1.389,23.07-4.567,46.842-19.92,64.425-47.679,49.726-125.034,48.691-189.271,46.389-193.235-14.893-385.083-46.133-574.859-85.092-211.138-44.795-425.667-91.904-618.673-191.773-69.19-36.897-137.83-79.292-191.813-136.797-38.437-43.467-43.22-114.487,2.592-154.648-26.812,22.199-40.225,58.422-34.891,92.785c11.709,77.772,102.124,128.087,162.176,169.083c137.041,83.312,290.897,134.702,445.418,174.681c265.939,66.091,536.062,118.505,809.455,140.87c73.924,3.507,184.697,1.849,214.585-80.649c8.411-22.41,2.416-45.796,4.388-68.727c11.88-77.837,140.585-85.498,197.801-86.084v-6.193Z" fill="#636363"/><path d="" fill="none" stroke="#808080" stroke-width="10" stroke-miterlimit="10"/><g><path d="M716.964,1483.62c56.806,25.227,122.956,47.987,194.837,68.523c3.877-5.905,10.651-17.078,12.672-19.701-69.699-17.442-133.919-36.986-189.35-58.865-6.042,3.368-12.095,6.715-18.159,10.043Z" fill="#fff"/><path d="M541.064,1330.388c-1.329.191-7.128,2.014-9.583,2.924c3.05,13.725,11.387,29.159,21.656,41.687c1.575,1.847,3.197,3.684,4.865,5.513c3.474-2.421,6.944-4.848,10.42-7.267-10.873-11.872-21.633-26.95-27.358-42.857Z" fill="#fff"/><path d="M624.972,1201.4c8.416-6.534,17.225-13.171,26.613-20.421-1.082-.364-2.169-.715-3.262-1.046-9.223,6.107-18.892,12.6-28.553,19.378c1.729.707,3.464,1.402,5.202,2.089Z" fill="#fff"/><path d="M608.347,1211.972c-11.827,8.449-23.509,17.304-34.205,26.396c2.341,1.487,4.811,2.81,7.275,4.06c10.449-10.287,21.12-19.245,32.46-28.193-1.85-.741-3.692-1.496-5.53-2.263Z" fill="#fff"/><path d="M568.422,1257.714c-2.802-1.544-5.578-3.213-8.162-5.093-21.919,20.922-32.822,39.729-30.816,63.272c2.852,0,8.76-.337,11.678-.799-.485-25.483,15.71-44.659,27.3-57.38Z" fill="#fff"/><path d="M587.542,1408.184c21.125,17.22,46.43,33.55,75.235,49.035c5.217-2.784,10.424-5.585,15.624-8.4-31.016-15.064-57.946-31.117-79.951-48.218-3.636,2.527-7.274,5.053-10.908,7.583Z" fill="#fff"/><path d="M1029.192,1556.327c-8.016,6.841-16.034,13.681-24.049,20.523c88.66,21.817,183.017,40.767,277.375,57.221c8.867-5.778,30.119-23.822,36.636-28.561-98.352-13.603-197.169-29.845-289.962-49.183Z" fill="#fff"/><path d="M1948.745,1668.094c-92.224-6.413-299.366-24.151-424.484-37.562-15.604,11.478-31.215,22.945-46.837,34.397c117.688,16.952,319.662,38.62,411.922,49.098c19.651-15.499,39.498-30.762,59.399-45.933Z" fill="#fff"/></g><ellipse rx="35.915" ry="11.502" transform="translate(593.875 930.742)" fill="#222"/><path d="M606.792,929.746c0,2.514-6.363,4.552-14.213,4.552s-14.213-2.038-14.213-4.552s6.363-4.552,14.213-4.552s14.213,2.038,14.213,4.552Z" fill="#fff"/><g><path d="M592.569,722.623c-40.907,0-74.09,33.182-74.09,74.09c0,40.928,74.09,115.758,74.09,115.758s74.111-74.829,74.111-115.758c0-40.907-33.183-74.09-74.111-74.09Zm0,115.736c-23.086,0-41.799-18.712-41.799-41.799c0-23.086,18.713-41.799,41.799-41.799s41.821,18.713,41.821,41.799c-.001,23.087-18.735,41.799-41.821,41.799Z" fill="#ff3305"/></g><g><path d="M1152.752,633.096c.051-.658.085-1.32.085-1.99c0-14.028-11.372-25.4-25.4-25.4s-25.4,11.372-25.4,25.4c0,.67.034,1.333.085,1.99h50.63Z" fill="#fff"/><path d="M1236.197,633.096c.051-.658.085-1.32.085-1.99c0-14.028-11.372-25.4-25.4-25.4s-25.4,11.372-25.4,25.4c0,.67.034,1.333.085,1.99h50.63Z" fill="#fff"/><path d="M1257.807,633.096c.072-.654.112-1.317.112-1.99c0-9.919-8.041-17.961-17.961-17.961-9.919,0-17.961,8.041-17.961,17.961c0,.673.04,1.336.112,1.99h35.698Z" fill="#fff"/><path d="M1206.98,633.096c.197-1.551.298-3.131.298-4.735c0-20.55-16.659-37.21-37.21-37.21-20.55,0-37.21,16.659-37.21,37.21c0,1.604.102,3.184.299,4.735h73.823Z" fill="#fff"/></g><g><path d="M1433.014,540.18c.083-1.072.139-2.152.139-3.246c0-22.882-18.55-41.432-41.432-41.432s-41.432,18.549-41.432,41.432c0,1.094.055,2.174.139,3.246h82.586Z" fill="#fff"/><path d="M1569.125,540.18c.083-1.072.139-2.152.139-3.246c0-22.882-18.55-41.432-41.432-41.432s-41.432,18.549-41.432,41.432c0,1.094.055,2.174.139,3.246h82.586Z" fill="#fff"/><path d="M1604.375,540.18c.118-1.066.183-2.148.183-3.246c0-16.18-13.116-29.297-29.297-29.297-16.18,0-29.297,13.117-29.297,29.297c0,1.098.065,2.18.183,3.246h58.228Z" fill="#fff"/><path d="M1521.468,540.18c.321-2.529.487-5.107.487-7.723c0-33.521-27.174-60.695-60.695-60.695s-60.695,27.174-60.695,60.695c0,2.616.166,5.194.487,7.723h120.416Z" fill="#fff"/></g><g><path d="M263.896,1376.006c-.05-.644-.083-1.293-.083-1.951c0-13.75,11.147-24.896,24.897-24.896s24.897,11.146,24.897,24.896c0,.657-.033,1.306-.083,1.951h-49.628Z" fill="#fff"/><path d="M182.105,1376.006c-.05-.644-.083-1.293-.083-1.951c0-13.75,11.146-24.896,24.897-24.896c13.75,0,24.896,11.146,24.896,24.896c0,.657-.033,1.306-.083,1.951h-49.627Z" fill="#fff"/><path d="M210.743,1376.006c-.193-1.52-.293-3.069-.293-4.641c0-20.143,16.329-36.472,36.472-36.472s36.472,16.329,36.472,36.472c0,1.572-.1,3.121-.293,4.641h-72.358Z" fill="#fff"/></g><g><path d="M1604.991,870.963c-199.924-7.896-410.075-31.237-625.673-62.806l-8.596,14.998c216.101,63.554,390.224,101.502,552.315,116.229c10.74-14.352,58.505-58.767,81.954-68.421Z" opacity="0.5" fill="url(#ebmowMUpY0c110-fill)"/><path d="M1711.253,724.348c-199.924-7.896-328.146-11.704-526.042-34.105l-5.233,9.131c220.417,38.539,331.715,47.721,493.807,62.448c2.742-11.34,19.776-31.163,37.468-37.474Z" opacity="0.5" fill="url(#ebmowMUpY0c111-fill)"/><path d="M1161.378,1305.39c-179.569-12.637-350.994-43.238-483.9-135.594l-5.233,9.131c133.601,118.925,265.351,192.013,445.226,217.313c2.742-11.341,25.868-65.197,43.907-90.85Z" opacity="0.5" fill="url(#ebmowMUpY0c112-fill)"/><g><g><path d="M1186.311,1523.347l714.624,72.942c88.872,16.197,16.408,98.08-154.189,86.596c0,0-417.19-50.566-634.052-84.056-78.376-12.105-58.238-92.174,73.617-75.482Z" opacity="0.6" fill="#222"/><g><g><g><g><g><g><polygon points="1328.845,1194.461 1096.954,1173.971 1100.905,932.166 1332.796,952.656" fill="#de7f04"/><polygon points="1092.313,923.143 1091.483,973.946 1339.318,995.846 1340.188,942.56" fill="#de7f04"/></g></g><g><g><polygon points="1211.542,1186.031 1019.433,1168.998 1023.401,927.194 1215.509,944.227" fill="#ffa305"/><polygon points="1016.325,917.19 1015.473,969.104 1220.79,987.309 1221.641,933.273" fill="#ffa305"/></g></g><rect width="2.357" height="241.552" rx="0" ry="0" transform="matrix(0.0883 -0.9961 0.9961 0.0883 1022.586051 970.822424)" fill="#de7f04"/><polygon points="1061.02,1172.685 1046.635,1171.41 1050.778,919.815 1065.163,921.09" fill="#fff"/></g><polygon points="1181.426,1183.476 1167.041,1182.2 1171.17,929.512 1185.555,930.787" fill="#fff"/></g><g><ellipse rx="105.023" ry="98.335" transform="matrix(0.3096 -0.9509 0.9509 0.3096 1301.335422 1464.703195)" fill="#222"/><path d="M1424.814,1472.517c-5.598,60.325-54.001,106.27-117.374,102.303-63.374-3.967-110.209-56.086-104.611-116.411c5.598-60.326,61.511-106.014,124.885-102.047c63.372,3.967,102.698,55.829,97.1,116.155Z" fill="#222"/><ellipse rx="74.263" ry="69.534" transform="matrix(0.3096 -0.9509 0.9509 0.3096 1301.336422 1464.703195)" fill="#ccc"/><ellipse rx="34.622" ry="32.417" transform="matrix(0.3096 -0.9509 0.9509 0.3096 1298.592267 1464.327916)" fill="#737373"/></g><path d="M1582.716,1445.792c-17.817,1.601-212.998-1.084.169-218.43-241.689-21.952-358.122-67.802-456.435,213.597l436.911,36.122c20.87,1.306,25.144-23.7,19.355-31.289Z" fill="#e82728"/><path d="M1617.915,1229.441l-238.406-19.483c-25.717-2.126-21.075-56.955,4.642-54.83l238.406,19.483c30.756,2.543,26.115,57.372-4.642,54.83Z" fill="#222"/><path d="M1332.363,1214.129l-204.452-16.14c-5.721-.452-9.96-5.445-9.469-11.153v0c.491-5.708,5.527-9.969,11.248-9.518l204.452,16.14c5.721.452,9.96,5.445,9.469,11.153v0c-.491,5.708-5.527,9.97-11.248,9.518Z" fill="#222"/><rect width="11.165" height="122.361" rx="0" ry="0" transform="matrix(0.7919 -0.6106 0.6106 0.7919 1143.285971 1192.704978)" fill="#222"/><path d="M1539.955,1225.648c0,0-204.145,213.624.115,223.832c40.502,1.084,42.646-3.689,42.646-3.689-58.559-10.044-113.968-32.245-66.547-107.988c39.243-62.679,105.44-108.862,105.44-108.862l-81.654-3.293Z" fill="#b81f20"/><g><g><path d="M1426.191,1465.418c3.217-6.765,6.045-13.722,8.412-20.847c26.073-78.486-13.699-138.138-85.322-153.067-161.454-33.653-208.234,143.307-209.563,150.229l286.473,23.685Z" fill="#b81f20"/><path d="M1388.677,1462.313c3.217-6.766,6.045-13.722,8.412-20.847c26.073-78.486-12.126-147.016-85.322-153.067-73.195-6.051-153.668,52.669-179.742,131.155-2.367,7.125-4.189,14.165-5.518,21.087l262.17,21.672Z" fill="#e82728"/></g><g><path d="M1330.667,1361.476l-94.826-5.792c-1.852-.113-3.231-1.701-3.064-3.529l.03-.324c.167-1.828,1.819-3.231,3.671-3.118l94.826,5.792c1.852.113,3.231,1.701,3.064,3.529l-.03.324c-.167,1.828-1.819,3.231-3.671,3.118Z" fill="#222"/><path d="M1329.221,1377.321l-94.826-5.792c-1.852-.113-3.231-1.701-3.064-3.529l.03-.324c.167-1.828,1.819-3.231,3.671-3.118l94.826,5.792c1.852.113,3.231,1.701,3.064,3.529l-.03.324c-.167,1.828-1.819,3.231-3.671,3.118Z" fill="#222"/><path d="M1327.775,1393.165l-94.826-5.792c-1.852-.113-3.231-1.701-3.064-3.529l.03-.324c.167-1.828,1.819-3.231,3.671-3.118l94.826,5.792c1.852.113,3.231,1.701,3.064,3.529l-.03.324c-.167,1.828-1.819,3.231-3.671,3.118Z" fill="#222"/><path d="M1326.329,1409.009l-94.826-5.792c-1.852-.113-3.231-1.701-3.064-3.529l.03-.324c.167-1.828,1.819-3.231,3.671-3.118l94.826,5.792c1.852.113,3.231,1.701,3.064,3.529l-.03.325c-.167,1.827-1.819,3.23-3.671,3.117Z" fill="#222"/></g></g><g><path d="M1674.397,913.091c0,0-28.574,101.193-17.113,140.207c23.479,39.255,201.057,35.503,201.057,35.503l13.018-28.77-117.208-35.445l11.831-71.038c11.818-63.935-60.444-85.892-91.585-40.457Z" fill="#32613f"/><g><path d="M1556.485,1443.815l72.349,6.12c19.092-25.393,148.757-199.684,152.151-240.128c2.844-33.897-10.354-66.958-94.965-102.522-56.726-23.845-122.141-12.045-122.141-12.045s-47.833,50.31-8.082,80.144c39.751,29.833,115.275,47.427,115.275,47.427l-114.587,221.004Z" fill="#024545"/><path d="M1556.187,1444.363l146.456,11.36c0,0,44.451-17.98,13.591-56.46-24.14-22.626-72.742-11.26-90.906,13.681l-50.31-3.166-18.831,34.585Z" fill="#222"/></g><g><path d="M1475.872,1438.769l72.349,6.12c19.092-25.394,148.757-199.684,152.151-240.128c2.844-33.896-10.354-66.958-94.965-102.522-56.726-23.845-96.957-17.817-116.76-13.211s-53.213,51.475-13.462,81.31c39.751,29.833,115.275,47.427,115.275,47.427l-114.588,221.004Z" fill="#027273"/><path d="M1475.573,1439.318l146.456,11.359c0,0,44.451-17.98,13.591-56.46-24.14-22.626-72.742-11.26-90.906,13.681l-50.31-3.166c-24.626,11.968-19.659,23.228-18.831,34.586Z" fill="#222"/></g><path d="M1672.562,1107.732c35.965-14.861,59.837-91.952,83.094-139.572c41.586-85.023-89.909-145.736-160.227-70.762-64.83,65.385-133.17,127.95-124.661,203.316c61.225,29.759,174.382,21.014,201.794,7.018Z" fill="#56a66b"/><path d="M1646.308,1116.48l-1.151-2.057c12.301-6.88,16.975-21.83,22.386-39.139c5.046-16.138,10.765-34.427,24.119-48.798c34.555-48.967,44.532-84.082,46.817-104.921c2.469-22.521-3.276-33.634-3.334-33.744l2.077-1.113c.25.466,6.108,11.687,3.63,34.828-2.267,21.166-12.315,56.801-47.311,106.374l-.101.123c-13.028,13.988-18.67,32.033-23.648,47.954-5.562,17.791-10.365,33.154-23.484,40.493Z" fill="#386b45"/><path d="M1596.895,905.212c0,0-98.384,95.229-68.052,148.173c24.403,42.595,175.866,51.617,186.056,40.097l13.018-28.769c-11.002-26.038-67.168-36.479-111.652-46.675l50.669-46.307c44.109-42.801-14.678-115.48-70.039-66.519Z" fill="#417d51"/><path d="M1742.139,914.63c0,0,8.347,5.05,7.195,17.457c17.23-13.812.031-59.257-43.779-75.147-41.551-15.07,36.584,57.69,36.584,57.69Z" fill="#417d51"/><g><path d="M1693.218,865.894c-12.721,13.614,48.921,48.736,48.921,48.736l43.315-58.494-50.333-32.986-41.903,42.744Z" fill="#ffa794"/><path d="M1718.888,805.794c0,0,13.494,88.713,86.478,81.207c32.669-3.36,47.009-51.824,46.794-80.15-.473-62.295-54.516-92.982-87.158-79.177-54.124,22.89-46.358,69.735-46.114,78.12Z" fill="#ffa794"/><path d="M1729.357,839.5c0,0,14.093,40.158,49.727,47.602c14.371,2.012,18.099.349,18.099.349-5.946-.194-45.394-12.272-51.637-56.237-2.22-8.476-19.04-2.093-16.189,8.286Z" fill="#222"/><g><use width="166.381348" height="134.079102" xlink:href="#ebmowMUpY0c3" fill="#e82728"/><g transform="translate(0.000001 0)" clip-path="url(#ebmowMUpY0c171)"><path d="M1834.825,790.673l-4.336.88c7.362-28.013-10.099-49.577-21.547-58.834-19.643-15.887-47.581-23.578-61.013-16.793l-1.722-3.411c14.872-7.513,44.098.217,65.138,17.233c12.165,9.838,31.39,30.834,23.48,60.925Z" fill="#fff"/><path d="M1842.568,793.293l-3.666-1.078c5.897-20.05.911-39.913-14.04-55.928-17.067-18.282-43.369-27.289-65.435-22.416l-.825-3.731c23.35-5.158,51.095,4.304,69.053,23.539c15.911,17.043,21.208,38.214,14.913,59.614Z" fill="#fff"/><clipPath id="ebmowMUpY0c171"><use width="166.381348" height="134.079102" xlink:href="#ebmowMUpY0c3"/></clipPath></g></g><path d="M1816.803,833.266c-3.371.046-6.067-.481-6.286-.525-.689-.138-1.136-.81-.997-1.499.138-.688.803-1.139,1.499-.998.098.019,9.757,1.896,14.669-1.97.409-.322.615-.751.648-1.352.241-4.384-7.978-13.472-11.166-16.603-.502-.493-.508-1.3-.015-1.801.493-.503,1.301-.508,1.801-.016c1.257,1.236,12.27,12.248,11.923,18.56-.073,1.328-.632,2.439-1.616,3.214-2.938,2.312-7.047,2.944-10.46,2.99Z" fill="#b3523d"/><path d="M1786.749,804.946c-.323,3.487-2.688,6.181-5.282,6.019s-4.434-3.12-4.111-6.607c.324-3.487,2.689-6.181,5.282-6.019c2.594.163,4.435,3.121,4.111,6.607Z" fill="#222"/><path d="M1842.228,809.269c-.276,2.979-2.297,5.282-4.514,5.143-2.216-.139-3.789-2.666-3.512-5.646.276-2.979,2.297-5.282,4.514-5.143c2.216.139,3.788,2.667,3.512,5.646Z" fill="#222"/><path d="M1781.222,838.303c0,0,14.218,17.417,46.491,15.235c0,0-18.294,24.906-39.997,14.584-21.702-10.322-6.494-29.819-6.494-29.819Z" fill="#b33a20"/><path d="M1767.4,785.313c35.762,3.707,70.207,6.978,90.872,5.688c0,0,23.71,7.272,17.442,12.124-6.268,4.851-108.314-17.812-108.314-17.812Z" fill="#222"/></g><path d="M1705.555,856.941c0,0-13.293-6.198-19.676,7.077c1.724,33.271,27.039,64.765,40.085,67.893c2.112-5.379,6.643-12.013,16.175-17.28c0-.001-36.5-30.263-36.584-57.69Z" fill="#417d51"/></g><g><g><ellipse rx="98.605" ry="92.325" transform="matrix(0.3096 -0.9509 0.9509 0.3096 1863.272005 1519.663903)" fill="#222"/><path d="M1979.214,1527.02c-5.256,56.639-50.7,99.775-110.201,96.051s-103.474-52.658-98.218-109.297s57.752-99.535,117.252-95.81c59.501,3.724,96.424,52.417,91.167,109.056Z" fill="#222"/><ellipse rx="69.724" ry="65.284" transform="matrix(0.3096 -0.9509 0.9509 0.3096 1863.269005 1519.653903)" fill="#ccc"/><ellipse rx="32.506" ry="30.436" transform="matrix(0.3096 -0.9509 0.9509 0.3096 1860.70201 1519.296259)" fill="#737373"/></g><path d="M1910.913,1444.057c-18.697,23.649-44.02,41.249-73.316,48.602-1.778.443-3.567.856-5.367,1.218-2.891.6-5.793,1.088-8.717,1.463-6.575.865-13.224,1.22-19.864,1.053-2.519-.057-5.037-.195-7.546-.396l-1.905-.157-115.755-9.571c-.01,0-.01,0-.01,0l-110.421-7.654c-51.931-3.25-45.805-23.034,3.828-29.928c154.621.637,223.82-163.667,184.725-250.011-13.338-31.579,21.988-55.804,55.932-60.962c4.431-.677,8.843-1.026,13.11-1.022c2.945-.007,5.828.161,8.608.507.875.117,1.728.234,2.582.383c4.3.566,8.496,1.474,12.538,2.754c12.156,3.863,22.782,11.08,29.818,22.351l52.34,118.286c25.442,57.5,13.319,120.217-20.58,163.084Z" fill="#e82728"/><path d="M1901.048,1375.537c-.435,2.904-.96,5.759-1.557,8.575l14.357.615c.344-1.856.659-3.692.929-5.492c6.425-42.844-5.383-77.748-5.886-79.208l-59.556-159.691c-4.042-1.281-13.735-2.569-16.681-2.562l63.399,168.159c.619,1.856,10.551,32.596,4.995,69.604Z" fill="#fff"/><g><path d="M1903.029,1033.937v.013c-1.53-.189-3.097-.236-4.688-.13-2.684.176-5.335.773-7.928,1.743-19.319,7.174-35.475,35.095-37.731,67.489-1.546,22.091,3.726,41.227,13.113,52.647c2.984,3.628,6.375,6.474,10.104,8.39l-25.155-8.756-2.144-.747c-17.342-6.826-28.784-30.92-26.878-60.302c2.231-34.321,21.848-63.36,44.446-66.61c4.095.13,8.331.469,12.697,1.038c7.662.987,15.713,2.689,24.164,5.225Z" fill="#ff6162"/><path d="M1848.599,1154.585l-74.055-25.775c0,0-25.898-11.756-11.114-47.034c0,0,33.349-56.335,102.737-54.102-22.597,3.249-42.215,32.289-44.446,66.61-1.907,29.381,9.535,53.475,26.878,60.301Z" fill="#e82728"/><path d="M1903.029,1033.949c-.622,3.088-1.624,8.252-2.871,14.803-4.89,25.731-13.578,72.75-18.301,98.395-1.995,10.834-3.292,17.863-3.292,17.863l-2.666-.922c-3.729-1.916-7.12-4.763-10.104-8.39-9.387-11.421-14.659-30.556-13.113-52.647c2.256-32.393,18.412-60.315,37.731-67.489c2.593-.97,5.244-1.566,7.928-1.743c1.591-.106,3.158-.058,4.688.13Z" fill="#e82728"/><path d="M1934.708,1097.603c-2.565,36.725-23.012,67.723-45.659,69.232-4.691.314-9.113-.674-13.15-2.747-3.729-1.916-7.12-4.763-10.104-8.39-9.387-11.421-14.659-30.556-13.113-52.647c2.256-32.393,18.412-60.315,37.731-67.489c2.593-.97,5.244-1.566,7.928-1.743c1.591-.106,3.158-.059,4.688.13c20.156,2.427,34.063,29.505,31.679,63.654Z" fill="#ff6162"/><path d="M1930.323,1098.009c-2.128,30.471-19.093,56.191-37.884,57.443-3.892.261-7.562-.559-10.911-2.279-3.094-1.59-5.908-3.952-8.383-6.961-7.788-9.476-12.163-25.353-10.88-43.682c1.872-26.877,15.277-50.044,31.306-55.996c2.152-.805,4.351-1.3,6.578-1.446c1.32-.088,2.62-.049,3.89.108c16.724,2.012,28.263,24.479,26.284,52.813Z" fill="#fff"/><g><path d="M1791.49,1111.603l-88.112,1.96.21-38.205l88.085,3.026c17.092-.38,16.085,32.857-.183,33.219Z" fill="#222"/><ellipse rx="19.108" ry="12.214" transform="matrix(0.0247 -0.9997 0.9997 0.0247 1703.501501 1094.464347)" fill="#222"/></g></g><path d="M1926.111,1414.943c-3.462,10.059-8.799,19.844-15.202,29.116-18.697,23.642-44.021,41.247-73.313,48.596-4.636,1.167-9.342,2.066-14.083,2.687-9.076,1.195-18.29,1.4-27.415.657l-1.899-.156-115.754-9.571c1.14-.072,72.597,6.002,125.325-76.405c45.386-68.805,141.258-49.909,122.341,5.076Z" fill="#b81f20"/><path d="M2014.369,1510.337c.808-.712,1.297-1.482,1.417-2.321c9.813-69.009-71.958-142.751-135.6-135.493-55.608,14.65-90.179,63.904-97.643,122.356l231.826,15.458Z" fill="#e82728"/><path d="M1712.564,1073.387c0,0,12.744-18.704,42.034-8.435c29.289,10.269,19.319,43.068,11.446,47.217s-35.137,7.936-31.158.693s8.161-19.334,1.479-29.308c-4.574-6.828-24.011-7.895-24.011-7.895l.21-2.272Z" fill="#ffa794"/></g><path d="M1342.971,1204.939l-11.703-1.339l7.052-61.677-49.443-3.093-6.905,60.386-11.703-1.339l7.54-65.945c.356-3.115,3.094-5.392,6.219-5.209l61.216,3.831c1.611.101,3.111.859,4.147,2.097c1.037,1.238,1.52,2.847,1.337,4.452l-7.757,67.836Z" fill="#222"/><polygon points="1204.447,1447.453 1426.191,1465.418 1417.427,1504.451 1202.461,1472.416" opacity="0.8" fill="#222"/><path d="M1774.328,1494.199l205.281,13.962c.542,14.434-.701,27.807-4.305,39.775l-204.993-28.608c.597-9.099,1.762-17.645,4.017-25.129Z" opacity="0.8" fill="#222"/></g></g></g><g><ellipse rx="62.438" ry="62.438" transform="matrix(0.7071 -0.7071 0.7071 0.7071 1186.806874 811.429719)" fill="#56a66b"/><polygon points="1183.452,840.783 1154.355,795.32 1159.242,790.156 1183.35,812.967 1256.243,748.041 1260.982,754.076" fill="#fff"/></g></g><polygon points="1900.149,1045.087 2222.698,1030.425 2189.625,1234.702 1888.103,1155.541" opacity="0.5" fill="url(#ebmowMUpY0c205-fill)"/></g><g><path d="M943.076,834.971h-216.51c-9.397,0-17.015-7.618-17.015-17.015v-126.39c0-9.397,7.618-17.015,17.015-17.015h216.51c9.397,0,17.015,7.618,17.015,17.015v126.391c0,9.397-7.618,17.014-17.015,17.014Z" fill="#fff"/><g><polygon points="757.343,790.95 759.75,798.36 767.542,798.36 761.239,802.94 763.646,810.35 757.343,805.77 751.039,810.35 753.447,802.94 747.144,798.36 754.935,798.36" fill="#fdf280"/><polygon points="795.647,790.95 798.054,798.36 805.846,798.36 799.542,802.94 801.95,810.35 795.647,805.77 789.343,810.35 791.751,802.94 785.448,798.36 793.239,798.36" fill="#fdf280"/><polygon points="833.951,790.95 836.358,798.36 844.149,798.36 837.846,802.94 840.254,810.35 833.951,805.77 827.647,810.35 830.055,802.94 823.751,798.36 831.543,798.36" fill="#fdf280"/><polygon points="872.254,790.95 874.662,798.36 882.453,798.36 876.15,802.94 878.558,810.35 872.254,805.77 865.951,810.35 868.359,802.94 862.055,798.36 869.847,798.36" fill="#fdf280"/><polygon points="910.558,790.95 912.966,798.36 920.757,798.36 914.454,802.94 916.862,810.35 910.558,805.77 904.255,810.35 906.662,802.94 900.359,798.36 908.151,798.36" fill="#fdf280"/></g><path d="M916.365,714.344h-54.004c-2.426,0-4.392-1.966-4.392-4.392v0c0-2.426,1.966-4.392,4.392-4.392h54.004c2.426,0,4.392,1.966,4.392,4.392v0c0,2.426-1.966,4.392-4.392,4.392Z" fill="#94f3f7"/><path d="M916.365,733.543h-70.02c-2.426,0-4.392-1.966-4.392-4.392v0c0-2.426,1.966-4.392,4.392-4.392h70.02c2.426,0,4.392,1.966,4.392,4.392v0c0,2.426-1.966,4.392-4.392,4.392Z" fill="#94f3f7"/><path d="M916.365,752.742h-70.02c-2.426,0-4.392-1.966-4.392-4.392v0c0-2.426,1.966-4.392,4.392-4.392h70.02c2.426,0,4.392,1.966,4.392,4.392v0c0,2.426-1.966,4.392-4.392,4.392Z" fill="#94f3f7"/><path d="M916.365,771.941h-70.02c-2.426,0-4.392-1.966-4.392-4.392v0c0-2.426,1.966-4.392,4.392-4.392h70.02c2.426,0,4.392,1.966,4.392,4.392v0c0,2.426-1.966,4.392-4.392,4.392Z" fill="#94f3f7"/><rect width="79.446" height="71.479" rx="0" ry="0" transform="translate(741.16 702.397)" fill="#94f3f7"/></g></g></g></svg>
