<svg id="evjVGesrSOD1" xmlns="http://www.w3.org/2000/svg" xmlns:xlink="http://www.w3.org/1999/xlink" viewBox="0 0 400 400" shape-rendering="geometricPrecision" text-rendering="geometricPrecision" project-id="715d7239b57a4d7f9b037a41b86c93e1" export-id="739344c21d0a4072995c428de225d39b" cached="false"><rect width="63.564" height="63.565" rx="0" ry="0" transform="matrix(6.3 0 0 6.3 -0.2266 -0.22975)" clip-rule="evenodd" fill="#2a77ad" fill-rule="evenodd"/><path d="M121.248,165.038c10.289,2.633,20.454,2.51,30.414,0c0,4.979-3.046,6.872-3.046,11.811-10.166,0-14.2,0-24.323,0c0-4.939-3.045-6.832-3.045-11.811v0Zm5.185-4.856c1.936,0,3.458,1.605,3.458,3.087s-.29,1.688-.741,2.346c-2.017-.288-4.034-.699-6.091-1.194-.083-.37-.165.083-.165-1.151c0-1.277,1.604-3.088,3.539-3.088v0Zm11.771-2.183h2.304v.578h-2.304v-.578Zm9.547,4.939h.413v.164h-.413v-.164Zm.165-.74h.413v.165h-.413v-.165Zm-.247-.7h.577v.206h-.577v-.206Zm-.74-.741h.822v.206h-.822v-.206Zm-14.118,2.923h.7v.329h-.7v-.329Zm.249-1.235h.699v.329h-.699v-.329Zm-.371-1.194h.987v.329h-.987v-.329Zm-1.275-1.153h1.44v.331h-1.44v-.331Zm9.011,3.705h1.194v.535h-1.194v-.535Zm.454-2.016h1.112v.535h-1.112v-.535Zm-.618-1.853h1.563v.536h-1.563v-.536Zm5.721-1.028c2.222,0,4.034,1.934,4.034,4.362c0,.412-.042.781-.165,1.151-1.235.289-2.47.578-3.705.783.164-.618.246-1.235.246-1.934c0-1.604-.534-3.127-1.399-4.239.29-.123.619-.123.989-.123v0Zm-6.872-2.264c3.374,0,6.091,2.963,6.091,6.626c0,.74-.082,1.482-.289,2.14-2.674.411-5.309.658-7.984.699.495-.864.742-1.811.742-2.839c0-2.141-1.153-3.951-2.84-4.775c1.109-1.192,2.592-1.851,4.28-1.851v0Zm-2.594,6.626c0,1.029-.288,1.976-.781,2.839-1.812-.042-3.664-.165-5.515-.37c1.811-2.304.37-5.391-2.223-6.009c3.374-3.663,8.519-.617,8.519,3.54v0Zm-.164-19.754c.535,0,1.071,0,1.564,0-5.227,4.65,3.168,7.532.123,11.399-.577,0-1.07,0-1.605,0c3.375-3.827-5.68-6.996-.082-11.399v0Zm-5.146,1.728c.536,0,1.07,0,1.565,0-5.228,4.651,3.168,7.532.083,11.4-.495,0-1.029,0-1.523,0c3.334-3.828-5.721-6.997-.125-11.4v0Zm10.867-.288c.493,0,1.028,0,1.563,0-5.227,4.609,3.171,7.532.042,11.399-.495,0-1.029,0-1.522,0c3.374-3.826-5.722-6.996-.083-11.399v0Z" transform="matrix(6.3 0 0 6.3 -659.6665 -809.14345)" clip-rule="evenodd" fill="#fff" fill-rule="evenodd"/></svg>
