<svg id="eqOW9EaLfSM1" xmlns="http://www.w3.org/2000/svg" xmlns:xlink="http://www.w3.org/1999/xlink" viewBox="0 0 400 400" shape-rendering="geometricPrecision" text-rendering="geometricPrecision" project-id="715d7239b57a4d7f9b037a41b86c93e1" export-id="12b48b93d5044965885768f69a6f3c3d" cached="false"><rect width="63.564" height="63.565" rx="0" ry="0" transform="matrix(6.3 0 0 6.3 -0.2266 -0.22975)" clip-rule="evenodd" fill="#c12121" fill-rule="evenodd"/><path d="M136.27,348.719h11.276c.701,0,1.358.576,1.235,1.234l-2.1,13.911c-.083.657-.576,1.235-1.233,1.235h-7.08c-.658,0-1.11-.578-1.194-1.235l-2.14-13.952c-.081-.658.576-1.193,1.236-1.193v0Zm-7.984,1.07c2.386,0,4.608.698,6.213,1.893l1.03,6.792h-16.009-.124c-.206-.536-.289-1.071-.289-1.647-.001-3.869,4.115-7.038,9.179-7.038v0Zm7.571,10.906h-16.215c-.206,0-.329.164-.329.328v3.746c0,.165.123.33.329.33h17.45c.04,0,.123-.041.165-.041-.495-.165-.824-.66-.906-1.194l-.494-3.169Zm-.082-.576h-16.379c-.082,0-.082-.041-.082-.082v-.906c0-.041,0-.082.082-.082h16.215l.164,1.07Zm9.261-15.391l3.95-6.792c-.04-.082,0-.165.042-.165.041-.041.124-.041.164,0l4.157-1.152c.083,0,.124.041.165.082l.247.988c.041.082,0,.124-.082.165l-3.788.987-3.414,5.887h-1.441Zm-10.495.945h14.733c.123,0,.206.082.206.205v1.813c0,.082-.083.164-.206.164h-14.733c-.082,0-.164-.082-.164-.164v-1.813c0-.123.082-.205.164-.205v0Z" transform="matrix(6.3 0 0 6.3 -659.584625 -2010.4117)" clip-rule="evenodd" fill="#fff" fill-rule="evenodd"/></svg>
