<svg id="e6Os7QzMcGg1" xmlns="http://www.w3.org/2000/svg" xmlns:xlink="http://www.w3.org/1999/xlink" viewBox="0 0 400 400" shape-rendering="geometricPrecision" text-rendering="geometricPrecision" project-id="715d7239b57a4d7f9b037a41b86c93e1" export-id="9d569969bdbe4b24afc59efd028ae290" cached="false"><rect width="63.564" height="63.565" rx="0" ry="0" transform="matrix(6.3 0 0 6.3 -0.2266 -0.22975)" clip-rule="evenodd" fill="#ff5a0a" fill-rule="evenodd"/><path d="M65.81,145.735c.165.082.247.164.329.246.165,0,.329.083.413.248.082.083.164.248.247.412.082.165.164.33.247.494.082.329.165.742.246,1.153h.082c.082-.411.082-.824.082-1.235s-.082-.823-.329-1.234c-.082-.165-.247-.411-.411-.576s-.413-.329-.659-.329c-.494-.083-.906,0-1.317.329l.082.082c.41.245.741.328.988.41v0Zm12.305,1.564v0l-.658-.083-1.812-2.963c-.658.577-1.233,1.317-1.481,2.141l3.293.822.329.494-.494.331.576.082-.082.658.493-.329.329.493.082-.575.536.164-.247-.575.493-.331l3.457.824c.165-.907,0-1.893-.411-2.635l-3.046,1.811-.536-.083.042-.575l3.045-1.893c-.577-.741-1.319-1.193-2.223-1.563l-.822,3.456-.454.329-.329-.576.783-3.374c-.865-.083-1.771.124-2.593.535l1.811,2.84-.081.575Zm2.428-4.98c-1.563-.576-3.168-.494-4.651.164-2.386,1.03-3.786,3.416-3.621,5.969l-9.507.082-.082.247c-.989,1.645-1.4,3.621-1.4,5.557c0,5.021,3.293,9.178,7.409,9.836l.165,12.388c-2.47.165-4.363.578-4.363.988.083.535,2.553.946,5.68.905c3.087,0,5.556-.494,5.556-.986c0-.495-1.811-.824-4.279-.906l-.165-12.388c4.114-.823,7.16-4.98,7.16-10.001v-.082c.783,0,1.646-.166,2.429-.578c1.482-.658,2.633-1.769,3.21-3.333.576-1.482.494-3.21-.164-4.692-.66-1.483-1.894-2.594-3.377-3.17v0Zm-7.119,6.133c-.164-2.058.906-4.116,2.963-4.98c2.468-1.153,5.391,0,6.543,2.509c1.153,2.471,0,5.434-2.552,6.546-.658.329-1.398.493-2.016.493c0-.246-.082-.37-.082-.618.701.084,1.441-.123,2.099-.411l-1.398-2.304-.947,1.564v.082c-.247-.988-.658-1.893-1.152-2.717l-.083-.247h-.082l.577-.329L74,147.216c-.082.411-.082.824-.082,1.235h-.494v.001Zm9.342.905l-3.539-.824l1.893,2.964c.74-.493,1.317-1.234,1.646-2.14v0Zm-14.817-3.951c.083.081.083.164.165.164c0,.083,0,.165,0,.247s0,.164,0,.247c.082.165,0,.331,0,.495v.081c.082-.164.164-.329.247-.577.082-.165.082-.329,0-.576c0-.081,0-.164-.082-.246c0-.165-.082-.247-.247-.247-.165-.165-.411-.165-.576-.083v.083c.165.082.247.247.329.329.082.001.164.083.164.083v0Zm.083,6.749c-2.964-1.811-4.61-1.317-5.35-.822.164-.659.411-1.235.74-1.81l12.801-.083c.411.823.74,1.646.904,2.592-.082,0-4.692,2.799-9.095.123v0Z" transform="matrix(6.3 0 0 6.3 -259.116664 -809.231911)" clip-rule="evenodd" fill="#fff" fill-rule="evenodd"/></svg>
