<svg height="1128" width="2500" xmlns="http://www.w3.org/2000/svg" viewBox="0 0 261.499 118"><g fill="#e82717"><path d="M97.95 42.248a1.093 1.093 0 0 1-1.206.921h-5.88q-.79 0-.79-.636a1.921 1.921 0 0 1 .044-.285l6.252-29.419a1.235 1.235 0 0 1 .4-.669 1.08 1.08 0 0 1 .746-.274h6.384a1.329 1.329 0 0 1 1.272.943l7.217 17.726 3.774-17.726a1.235 1.235 0 0 1 .395-.669 1.111 1.111 0 0 1 .768-.274h5.858a.876.876 0 0 1 .571.22.665.665 0 0 1 .263.526.675.675 0 0 1-.022.2l-6.252 29.419a1.094 1.094 0 0 1-1.207.921h-6.165a1.341 1.341 0 0 1-1.338-.921l-7.2-18.23zM128.053 12.138a1.078 1.078 0 0 1 .7-.252h6.3q.744 0 .745.637a1.9 1.9 0 0 1-.043.307l-4.849 22.882h11.672q.767 0 .767.614a1.84 1.84 0 0 1-.044.307l-1.206 5.616a1.032 1.032 0 0 1-1.1.921h-18.887q-.768 0-.768-.614a1.827 1.827 0 0 1 .044-.307l6.253-29.419a1.257 1.257 0 0 1 .416-.692zM152.694 11.886h6.3q.746 0 .746.637a1.922 1.922 0 0 1-.044.307l-6.252 29.418a1.031 1.031 0 0 1-1.1.921h-6.3q-.79 0-.79-.636a1.946 1.946 0 0 1 .044-.285l6.253-29.419a1.062 1.062 0 0 1 1.143-.943zM166.448 42.248a1.093 1.093 0 0 1-1.206.921h-5.879q-.79 0-.79-.636a1.934 1.934 0 0 1 .044-.285l6.252-29.419a1.235 1.235 0 0 1 .4-.669 1.08 1.08 0 0 1 .746-.274h6.383a1.329 1.329 0 0 1 1.273.943l7.217 17.726 3.774-17.726a1.235 1.235 0 0 1 .395-.669 1.112 1.112 0 0 1 .768-.274h5.858a.877.877 0 0 1 .571.22.7.7 0 0 1 .241.724l-6.252 29.419a1.094 1.094 0 0 1-1.207.921h-6.165a1.341 1.341 0 0 1-1.338-.921l-7.2-18.23zM198.004 11.886h20.95q.746 0 .746.637a1.859 1.859 0 0 1-.044.307l-1.141 5.4a1.043 1.043 0 0 1-1.119.921h-13.732l-1.1 5.2h10.42q.878 0 .878.68a1.886 1.886 0 0 1-.044.285l-.943 4.344a1.094 1.094 0 0 1-1.207.921h-10.414l-1.162 5.374h14.128q.79 0 .79.68a1.057 1.057 0 0 1-.022.241l-1.163 5.375a1.043 1.043 0 0 1-1.119.921h-21.352q-.79 0-.79-.636a1.851 1.851 0 0 1 .044-.285l6.252-29.419a1.062 1.062 0 0 1 1.144-.946zM60.578 34.213a16.442 16.442 0 0 1-.7-4.81c0-6.8 4.209-12.807 11.767-12.807 8.06 0 12.109 6.267 12.109 13.028a15.186 15.186 0 0 1-1.88 7.574l4.142 3.574a18.31 18.31 0 0 0 3.639-11.244c0-9.339-6.731-17.509-17.744-17.509-10.975 0-17.931 8.148-17.931 17.5a19.424 19.424 0 0 0 1.472 7.56z"/><path d="M68.765 46.533c-.335-.861-.215-2.584-1.076-3.445a5.427 5.427 0 0 1-1.722-2.871 9.979 9.979 0 0 0-1.364-3.014c-.5-.789-.574-1.958 1.076-2.02s2.584 1.015 3.086 2.451c0 0 .359.717.5-.79s.789-5.167.933-6.746 3.086-1.507 3.157 0 0 5.085 0 5.085 5.311 2.163 5.239 4.6a14.094 14.094 0 0 1-1.866 5.454s-.072 2.368-.79 2.512-3.544 0-4.5 0-2.338-.355-2.673-1.216zM63.8 18.478H46.819c-2.853 0-5.166-2.894-5.166-6.464h27.951c2.853.005-5.804 2.899-5.804 6.464zM58.348 27.508H43.769a6.464 6.464 0 0 1-6.464-6.464h17.538c3.565 0 3.505 2.894 3.505 6.464zM127.71 57.012h6.3q.746 0 .745.636a1.917 1.917 0 0 1-.043.308l-6.253 29.419a1.032 1.032 0 0 1-1.1.921h-6.3q-.789 0-.79-.636a1.887 1.887 0 0 1 .044-.285l6.253-29.419a1.062 1.062 0 0 1 1.144-.944zM147.939 88.296h-4.958a1.014 1.014 0 0 1-1.1-.921l-5.024-29.463a1.167 1.167 0 0 1-.022-.263q0-.68.812-.68l6.362.044a.927.927 0 0 1 1.031.944l2.479 18.867 10.4-18.867a1.652 1.652 0 0 1 1.47-.944h7.152q.57 0 .57.373a1.371 1.371 0 0 1-.2.571l-17.528 29.419a1.643 1.643 0 0 1-1.444.92zM170.386 57.012h20.951q.745 0 .745.636a1.823 1.823 0 0 1-.044.308l-1.141 5.4a1.043 1.043 0 0 1-1.119.922h-13.732l-1.1 5.2h10.42q.877 0 .877.68a1.883 1.883 0 0 1-.044.285l-.943 4.344a1.093 1.093 0 0 1-1.206.921h-10.42l-1.163 5.375h14.128q.79 0 .79.68a1.059 1.059 0 0 1-.022.242L186.2 87.38a1.043 1.043 0 0 1-1.119.921h-21.342q-.79 0-.79-.636a1.9 1.9 0 0 1 .044-.285l6.252-29.419a1.062 1.062 0 0 1 1.141-.949zM196.42 57.297a1.019 1.019 0 0 1 .735-.285h13.536a8.16 8.16 0 0 1 4.431 1.185 7.926 7.926 0 0 1 2.9 3.159 9.356 9.356 0 0 1 1.009 4.322 10.451 10.451 0 0 1-.154 1.843 10.624 10.624 0 0 1-2.4 5.133 13.328 13.328 0 0 1-4.574 3.488l3.642 11.232a1.228 1.228 0 0 1 .044.242.655.655 0 0 1-.2.482.741.741 0 0 1-.549.2h-6.932a.9.9 0 0 1-.625-.175 1.63 1.63 0 0 1-.34-.7l-2.961-9.521h-4.063l-2.019 9.477a1.031 1.031 0 0 1-1.1.921h-6.3q-.769 0-.768-.615a1.824 1.824 0 0 1 .044-.307l6.253-29.419a1.315 1.315 0 0 1 .391-.662zm4.947 13.865h4.892a4.131 4.131 0 0 0 2.04-.537 5.24 5.24 0 0 0 1.634-1.415 4.511 4.511 0 0 0 .867-1.842 3.779 3.779 0 0 0 .087-.856 3.163 3.163 0 0 0-.735-2.117 2.57 2.57 0 0 0-2.073-.867h-5.11zM221.291 57.956a.781.781 0 0 1-.044-.286.573.573 0 0 1 .231-.482 1.006 1.006 0 0 1 .625-.176h6.45a.9.9 0 0 1 .658.22 1.755 1.755 0 0 1 .373.724l3.093 10.179 7.217-10.179a2.634 2.634 0 0 1 .691-.724 1.4 1.4 0 0 1 .779-.22h7.634c.409 0 .614.132.614.4a.936.936 0 0 1-.242.549l-13.733 17.55-2.523 11.869a1.031 1.031 0 0 1-1.1.921h-6.3q-.789 0-.79-.636a1.889 1.889 0 0 1 .044-.285l2.523-11.824zM22.462 43.806h14.443a18.67 18.67 0 0 1 9.39 2.449 18.327 18.327 0 0 1 6.848 6.785 18.947 18.947 0 0 1 2.543 9.766 24.648 24.648 0 0 1-5.163 14.865 27.626 27.626 0 0 1-21.666 10.623H13.009q-1.123 0-1.123-.9a2.7 2.7 0 0 1 .062-.406l8.891-41.835a1.51 1.51 0 0 1 1.623-1.347zm21.619 19.81a9.568 9.568 0 0 0-1.17-4.727 8.324 8.324 0 0 0-3.307-3.291 10.1 10.1 0 0 0-4.976-1.185h-4.18l-4.929 23.272H29.7a13.391 13.391 0 0 0 6.27-1.56 15.463 15.463 0 0 0 5.085-4.219 14.27 14.27 0 0 0 2.777-5.818 13.582 13.582 0 0 0 .249-2.469zM75.772 100.582c-.507-.293-1.02-.56-1.52-.884a8.4 8.4 0 0 1-1.844 2.144 3.421 3.421 0 0 1-.971.549 1.673 1.673 0 0 1-.8.174.784.784 0 0 1-.63-.159 1.011 1.011 0 0 1-.5-.628 3.04 3.04 0 0 1-.22-1.309 8.082 8.082 0 0 1 .892-3.035 8.341 8.341 0 0 1 1.84-2.158 3.453 3.453 0 0 1 .969-.548 1.665 1.665 0 0 1 .8-.173.778.778 0 0 1 .627.161 1.013 1.013 0 0 1 .5.63 3.073 3.073 0 0 1 .222 1.307 8.134 8.134 0 0 1-.881 3.045c.5.323 1.013.591 1.52.884s1.012.576 1.527.858a13.066 13.066 0 0 0 1.3-4.877 6.545 6.545 0 0 0-.581-2.771 4.768 4.768 0 0 0-1.839-2.085 4.339 4.339 0 0 0-2.307-.634 4.564 4.564 0 0 0-2.018.367 8.188 8.188 0 0 0-2.637 1.645 9.806 9.806 0 0 0-2.054 2.612 11.833 11.833 0 0 0-1.356 4.881 6.152 6.152 0 0 0 .58 2.771 4.765 4.765 0 0 0 1.868 2.075 4.4 4.4 0 0 0 2.318.623 4.655 4.655 0 0 0 2.016-.372 8.6 8.6 0 0 0 2.635-1.64 13.235 13.235 0 0 0 2.07-2.582c-.51-.3-1.018-.579-1.526-.871zM107.641 100.657c-.506-.293-1.019-.561-1.52-.881a8.45 8.45 0 0 1-1.855 2.139 3.415 3.415 0 0 1-.973.545 1.684 1.684 0 0 1-.8.172.784.784 0 0 1-.629-.16 1.014 1.014 0 0 1-.5-.629 3.049 3.049 0 0 1-.222-1.305 7.911 7.911 0 0 1 .894-3.023 8.3 8.3 0 0 1 1.862-2.142 3.523 3.523 0 0 1 .978-.543 1.709 1.709 0 0 1 .808-.172.789.789 0 0 1 .631.159.99.99 0 0 1 .5.624 3.012 3.012 0 0 1 .215 1.3 8.151 8.151 0 0 1-.9 3.033c.5.319 1.014.589 1.52.881s1.007.577 1.52.859a13.268 13.268 0 0 0 1.338-4.872 6.327 6.327 0 0 0-.56-2.762 4.69 4.69 0 0 0-1.844-2.067 4.383 4.383 0 0 0-2.316-.62 4.717 4.717 0 0 0-2.026.367 8.382 8.382 0 0 0-2.663 1.628 9.537 9.537 0 0 0-2.077 2.585 11.594 11.594 0 0 0-1.355 4.86 6.183 6.183 0 0 0 .579 2.768 4.778 4.778 0 0 0 1.858 2.078 4.386 4.386 0 0 0 2.314.629 4.643 4.643 0 0 0 2.014-.367 8.588 8.588 0 0 0 2.639-1.635 13.449 13.449 0 0 0 2.085-2.573c-.5-.3-1.009-.583-1.515-.876z"/><path d="M107.341 92.05c-.115.014-.61-.2-.642.044-.087.65-.009 1.311-.043 1.964-11.129.01-22.266-.085-33.4-.093a5.7 5.7 0 0 0-.129-1.617c.953-.519-2.44-.634-.264-.967s-.376-.329 4.144-.368 21.5.1 26.274.119 1.607.231 4.155.356M59.809 71.349a4.182 4.182 0 0 0 4.182 4.182h12.218v-5.382h-16.4zM57.598 58.205a4.182 4.182 0 0 0 4.182 4.182h12.217v-5.388h-16.4zM65.056 84.113a4.182 4.182 0 0 0 4.182 4.182h12.217v-5.388h-16.4z"/><path d="M110.778 82.424c-7.144-.934-15.235.376-22.489-.416-2.452-.268-3.237-1.365-4.377-4.744a126.326 126.326 0 0 1-3.515-13.953c-.175-.889-.33-1.734-.479-2.549l-.636-3.763h-5.284l-.132.285-1.967-.043c1.006 5.445 1.71 9.663 4.315 21.83.826 3.858 1.5 8.49 3.435 9.1 1.867.59 37.409.263 37.409.263-1.269-3.304-2.741-5.547-6.28-6.01zM94.025 62.023h7.79v.698h-7.79z"/><path d="M111.879 62.358a1.215 1.215 0 0 0-.851-.346h-6.022v.7h6.022a.518.518 0 0 1 .364.147.481.481 0 0 1 .148.344v.585a.479.479 0 0 1-.147.344.516.516 0 0 1-.363.148h-.45a.348.348 0 0 0-.34.273l-3.539 15.87a.342.342 0 0 0-.009.077 1.092 1.092 0 0 1-.334.783 1.158 1.158 0 0 1-.812.331l-15.255.012a1.16 1.16 0 0 1-.813-.329 1.093 1.093 0 0 1-.335-.783.378.378 0 0 0-.008-.073l-3.4-15.861a.35.35 0 0 0-.342-.276h-.318a.516.516 0 0 1-.363-.147.477.477 0 0 1-.148-.344v-.59a.48.48 0 0 1 .147-.344.518.518 0 0 1 .364-.148h5.755v-.7h-5.755a1.216 1.216 0 0 0-.851.347 1.178 1.178 0 0 0-.357.843v.585a1.176 1.176 0 0 0 .358.843 1.216 1.216 0 0 0 .852.346h.036l3.332 15.562a1.793 1.793 0 0 0 .543 1.233 1.857 1.857 0 0 0 1.3.528l15.255-.012a1.857 1.857 0 0 0 1.3-.53 1.793 1.793 0 0 0 .541-1.232l3.471-15.568h.171a1.218 1.218 0 0 0 .851-.347 1.178 1.178 0 0 0 .357-.843v-.585a1.176 1.176 0 0 0-.355-.843z"/><path d="M88.611 64.45l.878 7.158h1.85l-.522-7.2-.464.034.486 6.7h-.94l-.828-6.749-.462.057zM105.36 64.397l-.356 7.2h1.957l.508-7.171-.464-.033-.478 6.739h-1.034l.331-6.711-.465-.023zM92.947 64.433l.417 7.173h1.7l-.006-7.187h-.465l.005 6.722h-.794l-.392-6.735-.464.027zM97.181 64.415l.006 7.187h1.961l-.006-7.187h-.461l.005 6.722h-1.031l-.005-6.722zM102.867 64.404l-.188 6.729h-1.037l-.005-6.722h-.465l.006 7.187h1.954l.2-7.181zM89.532 72.88l.881 6.081h1.851l-.525-6.135-.463.04.482 5.63h-.941l-.823-5.683-.46.067zM104.667 72.821l-.359 6.129h1.956l.512-6.1-.463-.039-.476 5.67h-1.035l.33-5.636-.464-.027zM93.453 72.859l.418 6.1h1.7v-6.115h-.473v5.65h-.8l-.389-5.665-.464.032zM97.191 72.841v6.115h1.961v-6.115h-.465v5.65h-1.03v-5.65h-.465zM102.439 72.828l-.185 5.66h-1.038v-5.65h-.465v6.115h1.953l.2-6.107-.465-.015zM92.404 61.407h-4.437s-.625-1.442 1.269-2.494a1.982 1.982 0 0 1 2.717.3c.674.629.451 2.194.451 2.194zM105.843 55.887h.972v3.365h-.972z"/><rect height=".981" rx=".491" width="1.832" x="105.412" y="55.541"/><path d="M107.981 61.394a1.237 1.237 0 0 0 .033-.28v-1.159a1.257 1.257 0 0 0-1.254-1.252h-.86a1.256 1.256 0 0 0-1.252 1.254v1.159a1.271 1.271 0 0 0 .033.281zM94.684 55.283l-.416-.409-3.064 2.869 1.534 1.68zM95.613 56.197l-2.015 4.168.949 1.04 6.356-.005zM102.961 58.5l.694 1.856.637-1.857zM102.849 61.125l-1.193-2.625h-2.4l2.445 2.9h1.186z"/><path d="M96.493 52.879l-.32-.139a.532.532 0 0 0-.7.275l-3.634 8.342h1.54l3.388-7.777a.533.533 0 0 0-.276-.7zm-.146.488l-.005.027-3.464 7.951h-.526L95.9 53.2a.067.067 0 0 1 .062-.039l.026.005.32.139.093-.213-.093.213a.068.068 0 0 1 .039.063zM104.268 61.348l-3.648-8.336a.533.533 0 0 0-.488-.319.525.525 0 0 0-.213.045l-.319.14a.532.532 0 0 0-.319.488.524.524 0 0 0 .045.213l3.4 7.771zm-4.521-7.982a.068.068 0 0 1 .04-.062l.32-.14h.025a.068.068 0 0 1 .062.04l3.561 8.138h-.526l-3.477-7.945z"/></g><path d="M0 0h261.499v118H0z" fill="none"/></svg>