<svg id="ehkDtgUHa0S1" xmlns="http://www.w3.org/2000/svg" xmlns:xlink="http://www.w3.org/1999/xlink" viewBox="0 0 500 500" shape-rendering="geometricPrecision" text-rendering="geometricPrecision" project-id="a6c7b1fdb18341abb14102ea6bb3180b" export-id="d1c94e19577c4c358bf0564be572aa58" cached="false"><g transform="matrix(2.1 0 0 2.1 -274.997901 -131.877659)"><g><g><path d="M250,218.687c-11.427,0-20.723,9.296-20.723,20.723v27.631c0,11.427,9.296,20.723,20.723,20.723s20.723-9.296,20.723-20.723v-27.631c0-11.427-9.296-20.723-20.723-20.723Z" fill="#262f3e"/></g></g><g><g><path d="M319.076,103.56h-35.234C280.633,87.813,266.68,75.929,250,75.929s-30.633,11.884-33.842,27.631h-35.234c-3.814,0-6.908,3.092-6.908,6.908s3.094,6.908,6.908,6.908h35.234c1.494,7.333,5.343,13.799,10.688,18.646-22.419,9.417-38.246,31.608-38.246,57.338v49.873c0,9.318,7.578,16.9,16.895,16.9h9.966v-20.723c0-19.045,15.493-34.538,34.538-34.538s34.538,15.493,34.538,34.538v20.723h10.73c9.318,0,16.9-7.582,16.9-16.9v-49.873c0-25.923-16.076-48.237-38.804-57.53c5.235-4.826,9.003-11.218,10.477-18.454h35.234c3.814,0,6.908-3.092,6.908-6.908.002-3.817-3.092-6.908-6.906-6.908ZM250,131.19c-11.427,0-20.723-9.296-20.723-20.723s9.296-20.723,20.723-20.723s20.723,9.296,20.723,20.723-9.296,20.723-20.723,20.723Z" fill="#1a73e9"/></g></g></g></svg>
