<?xml version="1.0" encoding="utf-8"?>
<!-- Generator: Adobe Illustrator 27.5.0, SVG Export Plug-In . SVG Version: 6.00 Build 0)  -->
<svg version="1.1" xmlns="http://www.w3.org/2000/svg" xmlns:xlink="http://www.w3.org/1999/xlink" x="0px" y="0px"
	 viewBox="0 0 750 500" style="enable-background:new 0 0 750 500;" xml:space="preserve">
<g id="BACKGROUND">
	<rect style="fill:#FFFFFF;" width="750" height="500"/>
</g>
<g id="OBJECTS">
	<g>
		<g>
			<polygon style="fill:#B3D6FF;" points="527.034,229.721 527.034,172.951 536.748,172.951 536.748,139.821 549.056,139.821 
				549.056,145.092 560.089,145.092 560.089,181.025 565.736,181.025 565.736,126.645 572.889,126.645 572.889,122.127 
				603.76,122.127 603.76,126.269 610.536,126.269 610.536,155.445 613.36,155.445 613.36,133.986 629.924,133.986 629.924,175.924 
				632.748,175.924 632.748,127.398 654.395,127.398 654.395,148.104 658.913,148.104 658.913,115.121 683.007,115.121 
				683.007,156.951 685.83,156.951 685.83,138.504 697.313,138.504 697.313,141.704 713.689,141.704 713.689,120.998 
				742.865,120.998 742.865,149.139 750,149.139 750,238.645 			"/>
			<rect x="572.89" y="126.145" style="fill:#7DB6F9;" width="30.87" height="1"/>
			<g>
				<rect x="569.219" y="134.342" style="fill:#7DB6F9;" width="38.212" height="1"/>
				<rect x="569.219" y="138.86" style="fill:#7DB6F9;" width="38.212" height="1"/>
			</g>
			<g>
				<rect x="569.219" y="149.921" style="fill:#7DB6F9;" width="38.212" height="1"/>
				<rect x="569.219" y="154.439" style="fill:#7DB6F9;" width="38.212" height="1"/>
			</g>
			<g>
				<rect x="569.219" y="165.5" style="fill:#7DB6F9;" width="38.212" height="1"/>
				<rect x="569.219" y="170.017" style="fill:#7DB6F9;" width="38.212" height="1"/>
			</g>
			<g>
				<rect x="569.219" y="181.078" style="fill:#7DB6F9;" width="38.212" height="1"/>
				<rect x="569.219" y="185.596" style="fill:#7DB6F9;" width="38.212" height="1"/>
			</g>
			<g>
				<rect x="569.219" y="196.657" style="fill:#7DB6F9;" width="38.212" height="1"/>
				<rect x="569.219" y="201.174" style="fill:#7DB6F9;" width="38.212" height="1"/>
			</g>
			<rect x="565.236" y="181.025" style="fill:#7DB6F9;" width="1" height="31.935"/>
			<polygon style="fill:#7DB6F9;" points="550.425,217.29 549.425,217.29 549.425,173.451 536.748,173.451 536.748,172.451 
				550.425,172.451 			"/>
			<rect x="629.425" y="175.924" style="fill:#7DB6F9;" width="1" height="28.941"/>
			<polygon style="fill:#7DB6F9;" points="648.871,209.948 647.871,209.948 647.871,147.896 677.671,147.896 677.671,208.819 
				676.671,208.819 676.671,148.896 648.871,148.896 			"/>
			<rect x="696.813" y="141.704" style="fill:#7DB6F9;" width="1" height="71.256"/>
			<polygon style="fill:#7DB6F9;" points="737.342,226.701 736.342,226.701 736.342,142.204 713.688,142.204 713.688,141.204 
				737.342,141.204 			"/>
			<rect x="736.842" y="148.639" style="fill:#7DB6F9;" width="6.023" height="1"/>
			<rect x="697.313" y="149.921" style="fill:#7DB6F9;" width="31.153" height="1"/>
			<rect x="697.313" y="156.041" style="fill:#7DB6F9;" width="31.153" height="1"/>
			<rect x="697.313" y="162.161" style="fill:#7DB6F9;" width="31.153" height="1"/>
			<rect x="697.313" y="168.28" style="fill:#7DB6F9;" width="31.153" height="1"/>
			<rect x="697.313" y="174.4" style="fill:#7DB6F9;" width="31.153" height="1"/>
			<rect x="697.313" y="180.52" style="fill:#7DB6F9;" width="31.153" height="1"/>
			<rect x="697.313" y="186.639" style="fill:#7DB6F9;" width="31.153" height="1"/>
			<rect x="697.313" y="192.759" style="fill:#7DB6F9;" width="31.153" height="1"/>
			<rect x="697.313" y="198.878" style="fill:#7DB6F9;" width="31.153" height="1"/>
			<rect x="697.313" y="204.998" style="fill:#7DB6F9;" width="31.153" height="1"/>
			<rect x="697.313" y="211.118" style="fill:#7DB6F9;" width="31.153" height="1"/>
			<rect x="697.313" y="217.237" style="fill:#7DB6F9;" width="31.153" height="1"/>
			<g>
				<rect x="651.777" y="152.725" style="fill:#7DB6F9;" width="1" height="3.816"/>
				<rect x="657.024" y="152.725" style="fill:#7DB6F9;" width="1" height="3.816"/>
				<rect x="662.271" y="152.725" style="fill:#7DB6F9;" width="1" height="3.816"/>
				<rect x="667.519" y="152.725" style="fill:#7DB6F9;" width="1" height="3.816"/>
				<rect x="672.766" y="152.725" style="fill:#7DB6F9;" width="1" height="3.816"/>
			</g>
			<g>
				<rect x="651.777" y="161.626" style="fill:#7DB6F9;" width="1" height="3.816"/>
				<rect x="657.024" y="161.626" style="fill:#7DB6F9;" width="1" height="3.816"/>
				<rect x="662.271" y="161.626" style="fill:#7DB6F9;" width="1" height="3.816"/>
				<rect x="667.519" y="161.626" style="fill:#7DB6F9;" width="1" height="3.816"/>
				<rect x="672.766" y="161.626" style="fill:#7DB6F9;" width="1" height="3.816"/>
			</g>
			<g>
				<rect x="651.777" y="170.527" style="fill:#7DB6F9;" width="1" height="3.816"/>
				<rect x="657.024" y="170.527" style="fill:#7DB6F9;" width="1" height="3.816"/>
				<rect x="662.271" y="170.527" style="fill:#7DB6F9;" width="1" height="3.816"/>
				<rect x="667.519" y="170.527" style="fill:#7DB6F9;" width="1" height="3.816"/>
				<rect x="672.766" y="170.527" style="fill:#7DB6F9;" width="1" height="3.816"/>
			</g>
			<g>
				<rect x="651.777" y="179.429" style="fill:#7DB6F9;" width="1" height="3.816"/>
				<rect x="657.024" y="179.429" style="fill:#7DB6F9;" width="1" height="3.816"/>
				<rect x="662.271" y="179.429" style="fill:#7DB6F9;" width="1" height="3.816"/>
				<rect x="667.519" y="179.429" style="fill:#7DB6F9;" width="1" height="3.816"/>
				<rect x="672.766" y="179.429" style="fill:#7DB6F9;" width="1" height="3.816"/>
			</g>
			<g>
				<rect x="651.777" y="188.33" style="fill:#7DB6F9;" width="1" height="3.816"/>
				<rect x="657.024" y="188.33" style="fill:#7DB6F9;" width="1" height="3.816"/>
				<rect x="662.271" y="188.33" style="fill:#7DB6F9;" width="1" height="3.816"/>
				<rect x="667.519" y="188.33" style="fill:#7DB6F9;" width="1" height="3.816"/>
				<rect x="672.766" y="188.33" style="fill:#7DB6F9;" width="1" height="3.816"/>
			</g>
			<g>
				<rect x="651.777" y="197.231" style="fill:#7DB6F9;" width="1" height="3.816"/>
				<rect x="657.024" y="197.231" style="fill:#7DB6F9;" width="1" height="3.816"/>
				<rect x="662.271" y="197.231" style="fill:#7DB6F9;" width="1" height="3.816"/>
				<rect x="667.519" y="197.231" style="fill:#7DB6F9;" width="1" height="3.816"/>
				<rect x="672.766" y="197.231" style="fill:#7DB6F9;" width="1" height="3.816"/>
			</g>
			<g>
				<rect x="651.777" y="206.132" style="fill:#7DB6F9;" width="1" height="3.816"/>
				<rect x="657.024" y="206.132" style="fill:#7DB6F9;" width="1" height="3.816"/>
				<rect x="662.271" y="206.132" style="fill:#7DB6F9;" width="1" height="3.816"/>
				<rect x="667.519" y="206.132" style="fill:#7DB6F9;" width="1" height="3.816"/>
				<rect x="672.766" y="206.132" style="fill:#7DB6F9;" width="1" height="3.816"/>
			</g>
			<rect x="661.171" y="110.485" style="fill:#7DB6F9;" width="19.953" height="4.635"/>
			<rect x="683.007" y="156.947" style="fill:#7DB6F9;" width="2.823" height="53.408"/>
			<rect x="610.536" y="155.445" style="fill:#7DB6F9;" width="2.824" height="54.909"/>
		</g>
		<path style="fill:#D9EBFF;" d="M0,421.43l0-163.474c431.713,155.792,451.013-133.994,750-35.258l0,198.732H0z"/>
		<g>
			<g>
				<path style="fill:#476B9E;" d="M237.954,47.097h-10.747H75.356H62.729c-8.293,0-15.015,6.723-15.015,15.015v344.302
					c0,8.293,6.723,15.015,15.015,15.015h12.627h151.851h10.747c8.249,0,14.937-6.687,14.937-14.936V62.034
					C252.89,53.785,246.203,47.097,237.954,47.097z"/>
				<path style="fill:#2F4A7F;" d="M60.42,406.415V62.113c0-8.293,6.723-15.015,15.015-15.015h-0.079H62.729
					c-8.293,0-15.015,6.723-15.015,15.015v344.302c0,8.293,6.723,15.015,15.015,15.015h12.627h0.079
					C67.142,421.43,60.42,414.708,60.42,406.415z"/>
				<rect x="60.42" y="91.723" style="fill:#FFFFFF;" width="192.471" height="284.125"/>
				<g>
					<path style="fill:#162E4C;" d="M162.066,73.291h-28.518c-1.832,0-3.323-1.491-3.323-3.323c0-1.833,1.491-3.324,3.323-3.324
						h28.518c1.832,0,3.323,1.491,3.323,3.324C165.39,71.8,163.898,73.291,162.066,73.291z M133.549,67.644
						c-1.281,0-2.323,1.042-2.323,2.324c0,1.281,1.042,2.323,2.323,2.323h28.518c1.281,0,2.323-1.042,2.323-2.323
						c0-1.281-1.042-2.324-2.323-2.324H133.549z"/>
					<path style="fill:#162E4C;" d="M175.432,73.291c-1.833,0-3.324-1.491-3.324-3.323c0-1.833,1.491-3.324,3.324-3.324
						c1.832,0,3.323,1.491,3.323,3.324C178.755,71.8,177.264,73.291,175.432,73.291z M175.432,67.644
						c-1.281,0-2.324,1.042-2.324,2.324c0,1.281,1.043,2.323,2.324,2.323c1.281,0,2.323-1.042,2.323-2.323
						C177.755,68.687,176.713,67.644,175.432,67.644z"/>
				</g>
				<path style="fill:#162E4C;" d="M163.721,410.965H149.59c-2.9,0-5.261-2.36-5.261-5.26v-14.13c0-2.9,2.36-5.26,5.261-5.26h14.131
					c2.9,0,5.26,2.36,5.26,5.26v14.13C168.98,408.605,166.621,410.965,163.721,410.965z M149.59,387.314
					c-2.35,0-4.261,1.911-4.261,4.26v14.13c0,2.349,1.911,4.26,4.261,4.26h14.131c2.349,0,4.26-1.911,4.26-4.26v-14.13
					c0-2.349-1.911-4.26-4.26-4.26H149.59z"/>
				<path style="fill:#162E4C;" d="M162.303,407.449h-11.296c-1.743,0-3.161-1.419-3.161-3.162v-11.296
					c0-1.743,1.418-3.161,3.161-3.161h5.648v1h-5.648c-1.191,0-2.161,0.969-2.161,2.161v11.296c0,1.192,0.97,2.162,2.161,2.162
					h11.296c1.192,0,2.162-0.97,2.162-2.162v-5.648h1v5.648C165.465,406.03,164.046,407.449,162.303,407.449z"/>
			</g>
			<polygon style="fill:#DAE9F7;" points="253.366,263.71 253.366,239.875 101.805,281.064 90.848,239.006 253.366,194.277 
				253.366,170.421 201.26,184.762 177.049,91.825 153.281,91.825 179.082,190.866 85.049,216.746 60.602,122.901 60.602,214.139 
				79.608,287.096 60.602,292.261 60.602,316.095 188.008,281.471 203.448,340.738 229.247,348.534 210.205,275.439 			"/>
			<rect x="252.391" y="151.564" style="fill:#162E4C;" width="1" height="224.284"/>
			<g>
				<polygon style="fill:#E8615B;" points="60.42,91.723 78.961,133.309 271.431,133.309 252.89,91.723 				"/>
				<polygon style="fill:#FFFFFF;" points="214.572,91.723 213.879,91.723 176.665,91.723 175.972,91.723 194.514,133.309 
					195.206,133.309 232.42,133.309 233.113,133.309 				"/>
				<polygon style="fill:#FFFFFF;" points="137.487,91.723 136.794,91.723 99.58,91.723 98.888,91.723 117.429,133.309 
					118.121,133.309 155.335,133.309 156.028,133.309 				"/>
				<path style="fill:#C13533;" d="M79.093,133.309c1.374,9.882,8.931,18.255,19.234,18.255c10.303,0,18.695-8.086,19.234-18.255
					H79.093z"/>
				<path style="fill:#D9EBFF;" d="M117.56,133.309c0.539,10.169,8.931,18.255,19.234,18.255s18.695-8.086,19.234-18.255H117.56z"/>
				<path style="fill:#C13533;" d="M156.028,133.309c0.539,10.169,8.931,18.255,19.234,18.255c10.303,0,18.695-8.086,19.234-18.255
					H156.028z"/>
				<path style="fill:#D9EBFF;" d="M194.496,133.309c0.539,10.169,8.931,18.255,19.234,18.255c10.303,0,18.695-8.086,19.234-18.255
					H194.496z"/>
				<path style="fill:#C13533;" d="M232.964,133.309c0.539,10.169,8.931,18.255,19.234,18.255c10.303,0,18.695-8.086,19.234-18.255
					H232.964z"/>
				<rect x="60.42" y="91.223" style="fill:#162E4C;" width="192.47" height="1"/>
				<rect x="79.196" y="132.809" style="fill:#162E4C;" width="192.471" height="1"/>
			</g>
		</g>
		<rect y="421.43" style="fill:#B3D6FF;" width="750" height="78.57"/>
		<g>
			<path style="fill:#E8615B;" d="M714.945,267.289c0,25.681-46.5,96.209-46.5,96.209s-46.5-70.528-46.5-96.209
				c0-25.681,20.819-46.499,46.5-46.499S714.945,241.608,714.945,267.289z"/>
			<circle style="fill:#FFFFFF;" cx="668.446" cy="267.821" r="28.783"/>
			<path style="fill:#162E4C;" d="M668.446,297.104c-16.146,0-29.283-13.136-29.283-29.283s13.137-29.283,29.283-29.283v1
				c-15.596,0-28.283,12.688-28.283,28.283s12.688,28.283,28.283,28.283c15.595,0,28.282-12.688,28.282-28.283h1
				C697.729,283.967,684.593,297.104,668.446,297.104z"/>
		</g>
		<g>
			<path style="fill:#CE7602;" d="M418.903,198.41l12.865,27.55c2.033,4.354,9.712,8.733,14.051,9.362
				c6.046,1.547,24.182,6.025,32.498,4.383l3.499,0.881l2.697-11.721l-3.782-0.906c-2.865-4.357-20.16-7.702-33.529-12.403
				l-10.238-26.604C431.977,175.605,412.14,183.046,418.903,198.41z"/>
			<g>
				<path style="fill:#2F4A7F;" d="M441.722,253.588c0,0,31.645-2.084,44.483-1.591c12.839,0.494,15.105,11.078,12.868,19.982
					l-23.158,56.146l-19.81,0.03c3.201-22.492,8.87-46.38,14.12-50.875c-14.01,2.547-28.109,5.059-49.682,4.548
					c-12.452-0.352-19.03-5.551-19.911-15.452L441.722,253.588z"/>
				<polygon style="fill:#E2877A;" points="459.15,324.888 457.246,339.825 470.53,339.806 472.699,324.868 				"/>
				<path style="fill:#162E4C;" d="M458.112,333.032c1.772,2.954,5.643,3.604,13.405-0.02c0,0,10.499,3.34,15.247,5.229
					c4.749,1.889,6.411,9.138,6.411,9.138l-38.381,0.058C455.048,342.122,456.154,337.32,458.112,333.032z"/>
				<polygon style="fill:#2F4A7F;" points="454.758,323.308 480.24,321.929 477.982,329.98 454.768,330.015 				"/>
				
					<rect x="456.808" y="322.01" transform="matrix(0.9993 -0.0371 0.0371 0.9993 -11.6467 17.5764)" style="fill:#162E4C;" width="21.631" height="1"/>
			</g>
			<g>
				<g>
					
						<rect x="311.857" y="222.626" transform="matrix(1 -0.0015 0.0015 1 -0.384 0.5201)" style="fill:#EFAC37;" width="67.774" height="66.036"/>
					
						<rect x="297.97" y="222.688" transform="matrix(-1 0.0015 -0.0015 -1 610.2106 510.9522)" style="fill:#CE7602;" width="13.887" height="66.036"/>
					
						<rect x="311.357" y="222.677" transform="matrix(1 -0.0015 0.0015 1 -0.3853 0.4707)" style="fill:#162E4C;" width="1" height="66.036"/>
					<path style="fill:#162E4C;" d="M352.261,235.083l-0.013-7.667l22.369-0.034l0.013,7.667L352.261,235.083z M353.25,228.414
						l0.009,5.667l20.369-0.03l-0.009-5.668L353.25,228.414z"/>
					<g>
						
							<rect x="316.507" y="283.957" transform="matrix(1 -0.002 0.002 1 -0.5683 0.6508)" style="fill:#162E4C;" width="17.181" height="1"/>
						<g>
							
								<rect x="319.63" y="273.951" transform="matrix(1 -0.0014 0.0014 1 -0.3961 0.4567)" style="fill:#162E4C;" width="1" height="8.206"/>
							<polygon style="fill:#162E4C;" points="317.49,276.873 316.781,276.167 320.122,272.816 323.473,276.157 322.766,276.865 
								320.124,274.231 							"/>
						</g>
						<g>
							
								<rect x="329.545" y="273.936" transform="matrix(1 -0.0015 0.0015 1 -0.4299 0.5112)" style="fill:#162E4C;" width="1" height="8.206"/>
							<polygon style="fill:#162E4C;" points="327.405,276.858 326.696,276.152 330.037,272.801 333.388,276.142 332.681,276.85 
								330.039,274.216 							"/>
						</g>
					</g>
					
						<rect x="300.608" y="227.49" transform="matrix(1 -0.0019 0.0019 1 -0.4326 0.5764)" style="fill:#162E4C;" width="5.129" height="1"/>
					
						<rect x="300.619" y="234.157" transform="matrix(1 -0.002 0.002 1 -0.4687 0.6068)" style="fill:#162E4C;" width="5.128" height="1"/>
					
						<rect x="300.613" y="230.823" transform="matrix(1 -0.0019 0.0019 1 -0.439 0.5765)" style="fill:#162E4C;" width="5.129" height="1"/>
				</g>
				<g>
					
						<rect x="348.92" y="98.145" transform="matrix(1 -0.0015 0.0015 1 -0.2118 0.5475)" style="fill:#E8615B;" width="29.502" height="85.692"/>
					
						<rect x="298.834" y="98.205" transform="matrix(-1 0.0015 -0.0015 -1 647.965 281.6144)" style="fill:#C13533;" width="50.086" height="85.692"/>
					
						<rect x="348.42" y="98.167" transform="matrix(1 -0.0015 0.0015 1 -0.2117 0.525)" style="fill:#162E4C;" width="1" height="85.692"/>
					<path style="fill:#162E4C;" d="M303.595,109.091l-0.01-6.598l18.94-0.029l0.011,6.597L303.595,109.091z M304.587,103.491
						l0.006,4.598l16.941-0.025l-0.007-4.597L304.587,103.491z"/>
					<polygon style="fill:#162E4C;" points="359.293,116.211 359.266,98.151 360.266,98.149 360.291,115.209 366.973,115.199 
						366.947,98.14 367.947,98.138 367.975,116.197 					"/>
					
						<rect x="302.553" y="178.347" transform="matrix(1 -0.002 0.002 1 -0.3571 0.6217)" style="fill:#162E4C;" width="16.208" height="1"/>
					<g>
						<path style="fill:#162E4C;" d="M336.547,168.503c-1.243,0-2.412-0.483-3.293-1.361c-0.883-0.88-1.369-2.051-1.371-3.297
							l-0.017-10.517l9.33-0.014l0.016,10.518c0.002,1.246-0.482,2.417-1.361,3.3c-0.88,0.882-2.05,1.369-3.296,1.371
							C336.552,168.503,336.55,168.503,336.547,168.503z M332.868,154.326l0.015,9.517c0.001,0.979,0.384,1.899,1.077,2.59
							c0.692,0.689,1.61,1.069,2.588,1.069c0.001,0,0.003,0,0.005,0c0.979-0.001,1.898-0.384,2.59-1.077
							c0.691-0.693,1.071-1.614,1.069-2.593l-0.014-9.518L332.868,154.326z"/>
						
							<rect x="336.062" y="168.003" transform="matrix(1 -0.0014 0.0014 1 -0.25 0.4861)" style="fill:#162E4C;" width="1" height="10.806"/>
						
							<rect x="332.012" y="178.309" transform="matrix(1 -0.002 0.002 1 -0.3569 0.6735)" style="fill:#162E4C;" width="9.116" height="1"/>
					</g>
				</g>
				<g>
					
						<rect x="315.485" y="183.638" transform="matrix(1 -0.0015 0.0015 1 -0.3049 0.5304)" style="fill:#7DB6F9;" width="74.44" height="38.977"/>
					
						<rect x="290.895" y="183.713" transform="matrix(-1 0.0015 -0.0015 -1 606.6855 405.9464)" style="fill:#476B9E;" width="24.591" height="38.977"/>
					
						<rect x="314.985" y="183.694" transform="matrix(1 -0.0015 0.0015 1 -0.3051 0.4745)" style="fill:#162E4C;" width="1" height="38.977"/>
					<path style="fill:#162E4C;" d="M293.427,219.267l-0.008-4.8l11.512-0.018l0.007,4.8L293.427,219.267z M294.421,215.465
						l0.004,2.8l9.511-0.014l-0.003-2.8L294.421,215.465z"/>
					<path style="fill:#162E4C;" d="M344.009,219.191l-0.006-3.64l41.5-0.063l0.007,3.64L344.009,219.191z M345.005,216.549
						l0.002,1.64l39.501-0.059l-0.003-1.64L345.005,216.549z"/>
					
						<rect x="293.203" y="187.825" transform="matrix(1 -0.002 0.002 1 -0.376 0.5999)" style="fill:#162E4C;" width="13.161" height="1"/>
					
						<rect x="293.207" y="190.722" transform="matrix(1 -0.002 0.002 1 -0.3818 0.6)" style="fill:#162E4C;" width="13.161" height="1"/>
					<g>
						<path style="fill:#162E4C;" d="M324.629,219.22c-0.742,0-1.439-0.289-1.966-0.813c-0.526-0.525-0.817-1.224-0.818-1.968
							l-0.003-1.515l1-0.002l0.003,1.515c0.002,0.983,0.802,1.782,1.784,1.782c0.001,0,0.002,0,0.003,0
							c0.984-0.001,1.784-0.803,1.782-1.787l-0.014-9.083l1-0.002l0.014,9.083c0.001,0.744-0.287,1.444-0.813,1.971
							c-0.525,0.526-1.225,0.817-1.968,0.818C324.632,219.22,324.631,219.22,324.629,219.22z"/>
						<path style="fill:#162E4C;" d="M318.499,207.861l0.313-0.704c1.42-3.195,4.592-5.263,8.08-5.268c0.005,0,0.01,0,0.015,0
							c3.483,0,6.654,2.057,8.082,5.243l0.315,0.704L318.499,207.861z M326.905,202.889c-0.004,0-0.008,0-0.012,0
							c-2.83,0.004-5.426,1.539-6.811,3.969l13.636-0.021C332.326,204.415,329.732,202.889,326.905,202.889z"/>
					</g>
					
						<rect x="364.987" y="187.712" transform="matrix(1 -0.0019 0.0019 1 -0.3569 0.7128)" style="fill:#162E4C;" width="19.976" height="1"/>
				</g>
			</g>
			
				<rect x="303.005" y="222.137" transform="matrix(1 -0.0019 0.0019 1 -0.4224 0.6537)" style="fill:#162E4C;" width="81.661" height="1"/>
			<g>
				<path style="fill:#EFAC37;" d="M508.902,243.84c-0.272,1.02-0.43,2.087-0.428,3.193c0.002,1.106,0.163,2.172,0.437,3.192
					L508.902,243.84z"/>
				<path style="fill:#EFAC37;" d="M522.633,231.363c-0.768,2.38-2.483,4.408-5.148,5.231l0.029,18.993
					c3.072,1.254,4.718,4.211,4.932,7.296c4.358-3.905,7.102-9.569,7.092-15.882C529.529,240.804,526.864,235.247,522.633,231.363z"
					/>
				
					<rect x="501.465" y="243.25" transform="matrix(1 -0.0015 0.0015 1 -0.3732 0.7651)" style="fill:#C13533;" width="7.864" height="7.576"/>
				<g>
					<path style="fill:#162E4C;" d="M549.012,322.935c-16.31,0.025-29.512,13.266-29.488,29.577
						c0.025,16.31,13.267,29.512,29.577,29.488c16.31-0.025,29.512-13.267,29.488-29.577
						C578.564,336.112,565.322,322.91,549.012,322.935z M549.084,370.614c-10.022,0.015-18.16-8.098-18.175-18.12
						c-0.015-10.023,8.098-18.16,18.12-18.175c10.023-0.015,18.16,8.098,18.175,18.12
						C567.219,362.462,559.106,370.599,549.084,370.614z"/>
					
						<ellipse transform="matrix(0.9737 -0.2279 0.2279 0.9737 -65.8776 134.4027)" style="fill:#B3D6FF;" cx="549.056" cy="352.467" rx="18.147" ry="18.147"/>
					<path style="fill:#2F4A7F;" d="M557.183,352.454c0.007,4.488-3.626,8.132-8.115,8.139c-4.488,0.007-8.132-3.626-8.139-8.115
						c-0.007-4.488,3.626-8.132,8.115-8.139C553.533,344.333,557.177,347.966,557.183,352.454z"/>
					<path style="fill:#162E4C;" d="M549.057,368.44c-8.797,0-15.96-7.149-15.974-15.949c-0.006-4.267,1.649-8.28,4.661-11.302
						c3.013-3.021,7.021-4.689,11.288-4.695c0.009,0,0.018,0,0.025,0c4.258,0,8.261,1.655,11.276,4.661
						c3.022,3.013,4.69,7.021,4.695,11.288c0.013,8.808-7.142,15.984-15.948,15.997C549.073,368.44,549.065,368.44,549.057,368.44z
						 M549.058,337.494c-0.008,0-0.016,0-0.023,0c-4,0.006-7.758,1.569-10.581,4.401c-2.824,2.832-4.376,6.595-4.37,10.594
						c0.014,8.249,6.728,14.951,14.974,14.951c0.008,0,0.015,0,0.023,0c8.256-0.012,14.963-6.739,14.95-14.995
						c-0.006-4-1.569-7.757-4.401-10.581C556.802,339.045,553.048,337.494,549.058,337.494z"/>
				</g>
				<g>
					<path style="fill:#162E4C;" d="M369.898,323.204c-16.31,0.025-29.512,13.266-29.488,29.577
						c0.025,16.31,13.267,29.512,29.577,29.488c16.31-0.025,29.512-13.267,29.488-29.577
						C399.45,336.381,386.208,323.179,369.898,323.204z M369.97,370.883c-10.022,0.015-18.16-8.098-18.175-18.12
						c-0.015-10.023,8.098-18.16,18.12-18.175c10.023-0.015,18.16,8.098,18.175,18.12
						C388.105,362.731,379.992,370.868,369.97,370.883z"/>
					<path style="fill:#B3D6FF;" d="M388.09,352.709c0.015,10.023-8.098,18.16-18.12,18.175c-10.023,0.015-18.16-8.098-18.175-18.12
						c-0.015-10.023,8.098-18.16,18.12-18.175C379.938,334.573,388.075,342.686,388.09,352.709z"/>
					<path style="fill:#2F4A7F;" d="M378.069,352.724c0.007,4.488-3.626,8.132-8.115,8.139c-4.488,0.007-8.132-3.626-8.139-8.115
						c-0.007-4.488,3.626-8.132,8.115-8.139C374.418,344.603,378.062,348.236,378.069,352.724z"/>
					<path style="fill:#162E4C;" d="M369.942,368.709c-8.797,0-15.96-7.149-15.973-15.949c-0.007-4.267,1.648-8.28,4.661-11.302
						c3.013-3.021,7.021-4.689,11.287-4.696c0.008,0,0.017,0,0.024,0c8.797,0,15.96,7.149,15.973,15.949
						c0.013,8.808-7.142,15.984-15.948,15.997C369.959,368.709,369.95,368.709,369.942,368.709z M369.942,337.763
						c-0.008,0-0.015,0-0.022,0c-3.999,0.006-7.757,1.569-10.581,4.402s-4.376,6.595-4.369,10.594
						c0.013,8.249,6.727,14.951,14.973,14.951c0.008,0,0.015,0,0.022,0c8.256-0.013,14.963-6.74,14.95-14.996
						C384.902,344.465,378.189,337.763,369.942,337.763z"/>
				</g>
				<path style="fill:#162E4C;" d="M384.773,293.179l-0.017-11.283l77.271-0.116l-0.691,4.606c-0.576,3.841-3.872,6.684-7.756,6.689
					L384.773,293.179z"/>
				<path style="fill:#2F4A7F;" d="M384.773,293.179l-74.256,0.112c-4.696,0.007-9.253-1.599-12.907-4.548h0l87.156-0.131
					L384.773,293.179z"/>
				<path style="fill:#E8615B;" d="M539.164,306.281L539.164,306.281L539.164,306.281l-34.951-50.977l-0.022-14.566
					c-0.005-3.143-2.557-5.688-5.701-5.683c-3.088,0.005-5.587,2.511-5.582,5.599l0.031,20.821l10.594,45.023
					c3.293,13.996,0.815,28.728-6.875,40.876l-49.491,0.074l-6.048-19.792c-1.211-3.964-0.342-8.27,2.311-11.454l7.697-9.237
					c1.541-1.85,2.384-4.182,2.38-6.589l-0.011-7.3l-97.7,0.147c-18.327,11.005-23.273,29.723-23.273,46.52l68.757-0.1l17.662,16.03
					c3.135,3.285,7.479,5.14,12.02,5.133l69.625-0.105c7.759-0.012,14.946-4.083,18.946-10.732l8.636-6.909
					c7.145-5.716,16.02-8.837,25.17-8.851l23.561-0.035C572.77,315.719,554.198,306.058,539.164,306.281z"/>
				<path style="fill:#162E4C;" d="M398.296,334.761l-9.908-12.026c-6.737-8.178-16.673-12.865-27.267-12.865
					c-0.019,0-0.036,0-0.054,0l-14.221,0.021l-0.002-1l14.221-0.021c0.019,0,0.038,0,0.056,0c10.895,0,21.11,4.819,28.038,13.229
					l9.908,12.026L398.296,334.761z"/>
				<path style="fill:#162E4C;" d="M519.431,325.734l-0.992-0.125c2.306-18.276,20.506-19.814,20.69-19.827l0.073,0.997
					C538.484,306.833,521.633,308.28,519.431,325.734z"/>
				<polygon style="fill:#162E4C;" points="448.522,353.267 446.691,347.602 447.643,347.295 449.248,352.266 497.52,352.194 
					497.522,353.194 				"/>
				
					<rect x="399.389" y="295.352" transform="matrix(1 -0.0019 0.0019 1 -0.5613 0.8108)" style="fill:#162E4C;" width="54.111" height="1"/>
				<g>
					<path style="fill:#162E4C;" d="M400.913,306.251c-1.106,0-2.009-0.9-2.012-2.008c-0.001-1.109,0.899-2.013,2.009-2.015
						l15.529-0.023c0.001,0,0.002,0,0.003,0c1.108,0,2.011,0.9,2.012,2.009c0.001,1.108-0.9,2.012-2.008,2.014l-15.53,0.023
						C400.915,306.251,400.914,306.251,400.913,306.251z M416.442,303.205C416.441,303.205,416.441,303.205,416.442,303.205
						l-15.53,0.023c-0.558,0.001-1.012,0.455-1.011,1.013c0.001,0.557,0.455,1.01,1.012,1.01c0.001,0,0.001,0,0.001,0l15.53-0.023
						c0.558-0.001,1.011-0.456,1.01-1.013C417.453,303.657,417,303.205,416.442,303.205z"/>
					<path style="fill:#162E4C;" d="M400.923,313.004c-0.536,0-1.04-0.208-1.42-0.587c-0.38-0.379-0.59-0.884-0.591-1.422
						c-0.001-0.537,0.207-1.042,0.586-1.422c0.38-0.381,0.885-0.591,1.422-0.591l15.53-0.023c0.001,0,0.003,0,0.004,0
						c0.535,0,1.039,0.208,1.419,0.587c0.38,0.379,0.59,0.884,0.591,1.421c0.001,0.537-0.207,1.042-0.586,1.423
						c-0.38,0.381-0.885,0.591-1.422,0.591l-15.529,0.023C400.926,313.004,400.924,313.004,400.923,313.004z M416.452,309.958
						l-15.53,0.023c-0.271,0-0.524,0.106-0.716,0.297c-0.19,0.191-0.295,0.445-0.294,0.715c0,0.271,0.105,0.524,0.297,0.715
						c0.191,0.19,0.444,0.295,0.714,0.295c0.001,0,0.001,0,0.002,0l15.529-0.023c0.271,0,0.524-0.106,0.715-0.297
						c0.191-0.191,0.296-0.445,0.295-0.715c0-0.271-0.105-0.524-0.297-0.715c-0.192-0.19-0.444-0.295-0.713-0.295
						C416.453,309.958,416.453,309.958,416.452,309.958L416.452,309.958z"/>
					<path style="fill:#162E4C;" d="M400.934,319.757c-1.108,0-2.011-0.9-2.012-2.009c-0.001-1.108,0.899-2.012,2.008-2.014
						l15.53-0.023c0.001,0,0.002,0,0.003,0c1.108,0,2.011,0.9,2.012,2.009c0.001,1.108-0.899,2.012-2.008,2.014l-15.53,0.023
						C400.936,319.757,400.935,319.757,400.934,319.757z M416.462,316.71l-15.53,0.023c-0.558,0.001-1.011,0.456-1.01,1.013
						c0.001,0.557,0.454,1.01,1.012,1.01c0.001,0,0.001,0,0.001,0l15.53-0.023c0.558-0.001,1.011-0.456,1.01-1.013
						C417.474,317.163,417.021,316.71,416.462,316.71C416.462,316.71,416.462,316.71,416.462,316.71z"/>
				</g>
				<path style="fill:#E8615B;" d="M523.495,230.145c-9.243,0.1-16.698,7.627-16.684,16.891c0.014,9.263,7.492,16.768,16.735,16.84
					L523.495,230.145z"/>
				
					<rect x="492.149" y="257.89" transform="matrix(0.877 -0.4805 0.4805 0.877 -62.8289 271.3475)" style="fill:#162E4C;" width="12.853" height="1"/>
			</g>
			<g>
				<path style="fill:#F4A798;" d="M424.541,170.964l-1.829,4.935l12.202,9.749l2.466-8.764
					c15.666,3.065,23.374-6.769,21.376-32.337l-6.528-6.413l-19.078-1.409c0,0-9.757,13.915-9.565,14.202
					c0.192,0.287,2.222,11.308,2.222,11.308L424.541,170.964z"/>
				<path style="fill:#476B9E;" d="M433.773,124.399c-11.692,1.233-21.057,10.789-22.077,22.502
					c-0.9,10.342,4.53,19.508,12.844,24.063l0,0c7.504,0.052,13.612-6.023,13.601-13.527l-0.019-12.86l22.791-0.034l0.015-0.003
					C458.615,132.147,447.115,122.992,433.773,124.399z"/>
				<path style="fill:#EFAC37;" d="M422.505,174.317l12.911,9.782c5.444,15.432,9.802,61.293-0.961,69.5l-42.351,13.104
					c0,0-0.33-1.062-0.594-3.446c-6.152-6.621-1.022-29.226,12.859-73.334C410.849,175.831,422.505,174.317,422.505,174.317z"/>
				<path style="fill:#476B9E;" d="M434.456,253.599c0,0,29.219-2.081,42.057-1.587c12.839,0.493,17.17,11.385,13.624,21.904
					l-21.487,54.22l-19.81,0.03c3.201-22.492,8.87-46.38,14.12-50.876c-14.01,2.547-28.109,5.059-49.682,4.548
					c-12.452-0.352-19.03-5.551-19.911-15.452L434.456,253.599z"/>
				<path style="fill:#162E4C;" d="M462.954,277.78c-0.162,0-0.317-0.079-0.412-0.217c-0.114-0.167-0.117-0.386-0.007-0.556
					l3.423-5.267l0.838,0.545l-2.764,4.253l3.563-0.76l0.209,0.977l-4.745,1.013C463.023,277.776,462.988,277.78,462.954,277.78z"/>
				<polygon style="fill:#F4A798;" points="451.883,324.899 449.98,339.836 463.264,339.816 465.433,324.879 				"/>
				<path style="fill:#162E4C;" d="M450.845,333.043c1.772,2.954,5.643,3.604,13.405-0.02c0,0,10.499,3.34,15.247,5.229
					c4.749,1.889,6.411,9.138,6.411,9.138l-38.381,0.058C447.782,342.133,448.888,337.331,450.845,333.043z"/>
				<polygon style="fill:#476B9E;" points="447.491,323.319 472.973,321.94 470.716,329.991 447.501,330.026 				"/>
				
					<rect x="449.54" y="321.991" transform="matrix(0.9992 -0.041 0.041 0.9992 -12.8374 19.1284)" style="fill:#162E4C;" width="20.634" height="1"/>
				<path style="fill:#F4A798;" d="M479.629,229.883c0,0,9.564-3.883,14.622,0.405c5.057,4.288,2.542,10.087-0.986,9.764
					c-3.529-0.322-11.324-0.738-11.324-0.738c-1.239,0.427-2.711-0.195-4.293-1.308C472.232,236.17,473.827,227.011,479.629,229.883
					z"/>
				<path style="fill:#162E4C;" d="M493.646,238.916c0.005,3.233-2.612,5.857-5.845,5.862c-3.233,0.005-5.857-2.612-5.862-5.844
					c-0.005-3.233,2.612-5.857,5.845-5.862C491.017,233.067,493.641,235.683,493.646,238.916z"/>
				<path style="fill:#EFAC37;" d="M406.16,198.43l14.451,27.548c2.284,4.354,10.911,8.731,15.787,9.36
					c6.794,1.546,27.171,6.021,36.515,4.377l3.932,0.881l3.032-11.722l-4.249-0.906c-3.218-4.357-22.651-7.698-37.672-12.397
					l-11.499-26.602C420.854,175.622,398.563,183.067,406.16,198.43z"/>
				<path style="fill:#E8615B;" d="M435.417,184.099c0,0-13.066-15.054-20.815-15.043c-7.749,0.012-20.66,17.708-12.294,27.597
					c3.508-6.908,11.172-18.968,17.787-18.882C426.709,177.857,435.417,184.099,435.417,184.099z"/>
				
					<rect x="468.24" y="233.34" transform="matrix(0.2255 -0.9742 0.9742 0.2255 139.4966 643.1567)" style="fill:#162E4C;" width="12.057" height="1"/>
				<path style="fill:#FFFFFF;" d="M392.754,266.54c0.099,1.608,0.447,3.152,1.023,4.639l40.678-17.58l0,0L392.754,266.54z"/>
				<path style="fill:#162E4C;" d="M437.172,177.337c-3.826-1.747-4.544-4.092-4.573-4.191l0.961-0.278l-0.48,0.139l0.479-0.143
					c0.006,0.02,0.657,2.024,4.029,3.564L437.172,177.337z"/>
				<path style="fill:#162E4C;" d="M438.14,156.607l2.722-10.501c0,0,26.392,13.117,20.894-9.629
					c-0.831,6.076-4.158,8.166-13.289,8.084l-10.346,0.016L438.14,156.607z"/>
				<path style="fill:#162E4C;" d="M430.448,167.666l-0.416-0.909c4.68-2.139,6.246-9.579,4.655-22.113l-0.071-0.562l3.505-0.005
					l0.002,1l-2.374,0.003C437.305,157.935,435.569,165.326,430.448,167.666z"/>
				<path style="fill:#162E4C;" d="M440.542,236.765c-26.824-3.803-32.398-33.329-32.45-33.626l0.984-0.176
					c0.052,0.291,5.506,29.112,31.607,32.812L440.542,236.765z"/>
				<path style="fill:#162E4C;" d="M440.42,216.772c-4.607-4.779-9.684-16.234-13.592-25.68l0.924-0.383
					c3.875,9.364,8.898,20.71,13.389,25.368L440.42,216.772z"/>
				<path style="fill:#162E4C;" d="M435.94,220.635l-0.943-0.334c1.017-2.865,2.917-4.422,5.648-4.628
					c0.208-0.015,0.405,0.1,0.492,0.29c0.088,0.19,0.048,0.414-0.101,0.562c-0.89,0.892-1.29,2.207-1.191,3.909l-0.998,0.059
					c-0.083-1.429,0.148-2.64,0.689-3.617C437.847,217.351,436.665,218.591,435.94,220.635z"/>
				
					<rect x="390.974" y="257.929" transform="matrix(0.9758 -0.2188 0.2188 0.9758 -46.5435 96.6395)" style="fill:#162E4C;" width="44.017" height="1"/>
			</g>
		</g>
		<path style="fill:#D9EBFF;" d="M459.138,85.947h181.574c-24.015-12.518-38.614-17.136-45.804-8.239
			c2.14-16.203-16.695-27.738-30.203-14.637c-10.364-21.341-29.289-19.748-42.141,6.446c-7.384-8.425-20.226-6.502-23.544,8.74
			C493.402,71.276,482.99,75.546,459.138,85.947z"/>
		<path style="fill:#D9EBFF;" d="M319.068,55.247h85.495c-12.699-10.586-21.081-13.387-24.741-7.676
			c-5.361-15.876-25.948-17.025-34.088,0.037C339.484,43.438,330.943,45.102,319.068,55.247z"/>
		<g>
			<g>
				<path style="fill:#7DB6F9;" d="M60.42,334.889C264.108,294.316,255.635,462.458,750,345.477l0,75.953H237.954
					c8.066-0.376,14.937-5.781,14.937-15.635v-29.947H60.42V334.889z"/>
			</g>
			<g>
				<path style="fill:#162E4C;" d="M637.211,369.446l-0.174-0.985c25.156-4.422,51.776-9.724,79.121-15.755l0.215,0.977
					C689.015,359.716,662.381,365.021,637.211,369.446z"/>
				<path style="fill:#162E4C;" d="M616.365,372.969l-0.16-0.987c3.735-0.605,7.509-1.23,11.318-1.878l0.168,0.986
					C623.878,371.737,620.103,372.363,616.365,372.969z"/>
				<path style="fill:#162E4C;" d="M448.237,388.101c-1.626,0-3.245-0.005-4.86-0.016l0.006-1
					c49.709,0.329,103.99-4.264,165.971-14.01l0.156,0.988C549.489,383.501,496.669,388.101,448.237,388.101z"/>
				<path style="fill:#162E4C;" d="M434.718,387.978c-75.397-1.387-127.175-14.394-171.895-28.244l0.295-0.955
					c44.65,13.828,96.345,26.815,171.617,28.199L434.718,387.978z"/>
				<path style="fill:#162E4C;" d="M243.113,353.493l-2.132-0.684c-52.848-16.956-98.487-31.598-170.329-19.308l-0.168-0.985
					c72.083-12.335,117.831,2.346,170.802,19.341l2.132,0.684L243.113,353.493z"/>
			</g>
		</g>
		<rect x="23.188" y="420.93" style="fill:#162E4C;" width="703.622" height="1"/>
		<g>
			<path style="fill:#162E4C;" d="M216.156,344.733l-1.241-4.843l0.969-0.248l1.241,4.843L216.156,344.733z M213.674,335.046
				l-1.241-4.843l0.969-0.248l1.241,4.843L213.674,335.046z M211.191,325.359l-1.241-4.843l0.969-0.248l1.241,4.843L211.191,325.359
				z M208.709,315.672l-1.241-4.843l0.969-0.248l1.241,4.843L208.709,315.672z M206.227,305.985l-1.241-4.843l0.969-0.248
				l1.241,4.843L206.227,305.985z M203.744,296.298l-1.241-4.843l0.969-0.248l1.241,4.843L203.744,296.298z M95.569,295.297
				l-0.264-0.965l4.824-1.316l0.264,0.965L95.569,295.297z M105.217,292.666l-0.264-0.965l4.824-1.316l0.264,0.965L105.217,292.666z
				 M92.802,291.63l-1.272-4.835l0.967-0.254l1.271,4.835L92.802,291.63z M114.865,290.035l-0.264-0.965l4.823-1.315l0.264,0.965
				L114.865,290.035z M124.513,287.403l-0.264-0.965l4.823-1.315l0.264,0.965L124.513,287.403z M201.262,286.611l-1.241-4.843
				l0.969-0.248l1.241,4.843L201.262,286.611z M134.16,284.773l-0.264-0.965l4.823-1.316l0.264,0.965L134.16,284.773z
				 M143.808,282.141l-0.264-0.965l4.824-1.315l0.264,0.965L143.808,282.141z M90.258,281.96l-1.271-4.835l0.967-0.254l1.271,4.835
				L90.258,281.96z M153.455,279.51l-0.264-0.965l4.824-1.315l0.264,0.965L153.455,279.51z M198.779,276.924l-1.241-4.844
				l0.969-0.248l1.241,4.844L198.779,276.924z M163.103,276.879l-0.264-0.965l4.824-1.316l0.264,0.965L163.103,276.879z
				 M172.751,274.248l-0.264-0.965l4.823-1.315l0.264,0.965L172.751,274.248z M87.714,272.289l-1.272-4.836l0.967-0.255l1.272,4.835
				L87.714,272.289z M182.398,271.616l-0.264-0.965l4.823-1.315l0.264,0.965L182.398,271.616z M192.046,268.986l-0.264-0.965
				l4.824-1.316l0.264,0.965L192.046,268.986z M85.17,262.618l-1.272-4.835l0.967-0.255l1.272,4.835L85.17,262.618z M82.626,252.947
				l-1.272-4.836l0.967-0.255l1.272,4.835L82.626,252.947z M80.081,243.276l-1.271-4.836l0.967-0.254l1.271,4.836L80.081,243.276z
				 M77.537,233.605l-0.691-2.628l3.153-0.868l0.266,0.964l-2.2,0.606l0.439,1.672L77.537,233.605z M85.085,229.745l-0.266-0.964
				l4.82-1.327l0.266,0.964L85.085,229.745z M94.727,227.09l-0.266-0.964l4.82-1.328l0.266,0.964L94.727,227.09z M104.367,224.436
				l-0.266-0.964l4.821-1.328l0.266,0.964L104.367,224.436z M114.009,221.781l-0.266-0.964l4.82-1.327l0.266,0.964L114.009,221.781z
				 M123.65,219.126l-0.266-0.964l4.82-1.327l0.266,0.964L123.65,219.126z M133.291,216.472l-0.266-0.964l4.82-1.328l0.266,0.964
				L133.291,216.472z M142.933,213.817l-0.266-0.964l4.82-1.328l0.266,0.964L142.933,213.817z M152.573,211.162l-0.266-0.964
				l4.821-1.327l0.266,0.964L152.573,211.162z M162.215,208.507l-0.266-0.964l4.82-1.327l0.266,0.964L162.215,208.507z
				 M171.855,205.853l-0.266-0.964l4.821-1.328l0.266,0.964L171.855,205.853z M181.497,203.198l-0.266-0.964l4.82-1.328l0.266,0.964
				L181.497,203.198z M191.139,200.544l-0.266-0.964l2.579-0.71l-0.352-1.278l0.965-0.265l0.615,2.242L191.139,200.544z
				 M191.777,192.77l-1.324-4.822l0.965-0.265l1.324,4.822L191.777,192.77z M189.13,183.126l-1.323-4.821l0.965-0.265l1.323,4.821
				L189.13,183.126z M186.482,173.483l-1.323-4.822l0.965-0.265l1.323,4.822L186.482,173.483z M183.836,163.839l-1.324-4.821
				l0.965-0.265l1.324,4.821L183.836,163.839z M181.189,154.196l-0.687-2.5l0.965-0.265l0.686,2.5L181.189,154.196z"/>
			<path style="fill:#162E4C;" d="M139.525,215.29c0,2.183-1.77,3.953-3.953,3.953c-2.183,0-3.953-1.77-3.953-3.953
				c0-2.183,1.77-3.953,3.953-3.953C137.756,211.337,139.525,213.106,139.525,215.29z"/>
			<polygon style="fill:#162E4C;" points="170.046,205.818 164.908,204.445 166.326,209.619 			"/>
			<polygon style="fill:#162E4C;" points="184.825,165.752 183.499,170.902 188.659,169.437 			"/>
			<polygon style="fill:#162E4C;" points="86.006,263.916 84.634,269.054 89.807,267.635 			"/>
			<polygon style="fill:#162E4C;" points="169.227,274.545 174.341,276.002 173.008,270.805 			"/>
		</g>
		<g>
			
				<ellipse transform="matrix(0.2298 -0.9732 0.9732 0.2298 -168.5234 476.2803)" style="fill:#E8615B;" cx="216.641" cy="344.609" rx="7.911" ry="7.911"/>
			<path style="fill:#FFFFFF;" d="M220.212,344.609c0,1.972-1.599,3.571-3.571,3.571c-1.972,0-3.571-1.599-3.571-3.571
				c0-1.972,1.599-3.571,3.571-3.571C218.613,341.039,220.212,342.637,220.212,344.609z"/>
		</g>
	</g>
</g>
</svg>
