<svg id="eQypwak3qim1" xmlns="http://www.w3.org/2000/svg" xmlns:xlink="http://www.w3.org/1999/xlink" viewBox="0 0 750 500" shape-rendering="geometricPrecision" text-rendering="geometricPrecision" project-id="f26144d848084447a95363c64fad2ff8" export-id="ac716bfbaad84fff95a163468694c3ac" cached="true"><g><g><g><polygon points="527.034,229.721 527.034,172.951 536.748,172.951 536.748,139.821 549.056,139.821 549.056,145.092 560.089,145.092 560.089,181.025 565.736,181.025 565.736,126.645 572.889,126.645 572.889,122.127 603.76,122.127 603.76,126.269 610.536,126.269 610.536,155.445 613.36,155.445 613.36,133.986 629.924,133.986 629.924,175.924 632.748,175.924 632.748,127.398 654.395,127.398 654.395,148.104 658.913,148.104 658.913,115.121 683.007,115.121 683.007,156.951 685.83,156.951 685.83,138.504 697.313,138.504 697.313,141.704 713.689,141.704 713.689,120.998 742.865,120.998 742.865,149.139 750,149.139 750,238.645" fill="#b3d6ff"/><rect width="30.87" height="1" rx="0" ry="0" transform="translate(572.89 126.145)" fill="#7db6f9"/><g><rect width="38.212" height="1" rx="0" ry="0" transform="translate(569.219 134.342)" fill="#7db6f9"/><rect width="38.212" height="1" rx="0" ry="0" transform="translate(569.219 138.86)" fill="#7db6f9"/></g><g><rect width="38.212" height="1" rx="0" ry="0" transform="translate(569.219 149.921)" fill="#7db6f9"/><rect width="38.212" height="1" rx="0" ry="0" transform="translate(569.219 154.439)" fill="#7db6f9"/></g><g><rect width="38.212" height="1" rx="0" ry="0" transform="translate(569.219 165.5)" fill="#7db6f9"/><rect width="38.212" height="1" rx="0" ry="0" transform="translate(569.219 170.017)" fill="#7db6f9"/></g><g><rect width="38.212" height="1" rx="0" ry="0" transform="translate(569.219 181.078)" fill="#7db6f9"/><rect width="38.212" height="1" rx="0" ry="0" transform="translate(569.219 185.596)" fill="#7db6f9"/></g><g><rect width="38.212" height="1" rx="0" ry="0" transform="translate(569.219 196.657)" fill="#7db6f9"/><rect width="38.212" height="1" rx="0" ry="0" transform="translate(569.219 201.174)" fill="#7db6f9"/></g><rect width="1" height="31.935" rx="0" ry="0" transform="translate(565.236 181.025)" fill="#7db6f9"/><polygon points="550.425,217.29 549.425,217.29 549.425,173.451 536.748,173.451 536.748,172.451 550.425,172.451" fill="#7db6f9"/><rect width="1" height="28.941" rx="0" ry="0" transform="translate(629.425 175.924)" fill="#7db6f9"/><polygon points="648.871,209.948 647.871,209.948 647.871,147.896 677.671,147.896 677.671,208.819 676.671,208.819 676.671,148.896 648.871,148.896" fill="#7db6f9"/><rect width="1" height="71.256" rx="0" ry="0" transform="translate(696.813 141.704)" fill="#7db6f9"/><polygon points="737.342,226.701 736.342,226.701 736.342,142.204 713.688,142.204 713.688,141.204 737.342,141.204" fill="#7db6f9"/><rect width="6.023" height="1" rx="0" ry="0" transform="translate(736.842 148.639)" fill="#7db6f9"/><rect width="31.153" height="1" rx="0" ry="0" transform="translate(697.313 149.921)" fill="#7db6f9"/><rect width="31.153" height="1" rx="0" ry="0" transform="translate(697.313 156.041)" fill="#7db6f9"/><rect width="31.153" height="1" rx="0" ry="0" transform="translate(697.313 162.161)" fill="#7db6f9"/><rect width="31.153" height="1" rx="0" ry="0" transform="translate(697.313 168.28)" fill="#7db6f9"/><rect width="31.153" height="1" rx="0" ry="0" transform="translate(697.313 174.4)" fill="#7db6f9"/><rect width="31.153" height="1" rx="0" ry="0" transform="translate(697.313 180.52)" fill="#7db6f9"/><rect width="31.153" height="1" rx="0" ry="0" transform="translate(697.313 186.639)" fill="#7db6f9"/><rect width="31.153" height="1" rx="0" ry="0" transform="translate(697.313 192.759)" fill="#7db6f9"/><rect width="31.153" height="1" rx="0" ry="0" transform="translate(697.313 198.878)" fill="#7db6f9"/><rect width="31.153" height="1" rx="0" ry="0" transform="translate(697.313 204.998)" fill="#7db6f9"/><rect width="31.153" height="1" rx="0" ry="0" transform="translate(697.313 211.118)" fill="#7db6f9"/><rect width="31.153" height="1" rx="0" ry="0" transform="translate(697.313 217.237)" fill="#7db6f9"/><g><rect width="1" height="3.816" rx="0" ry="0" transform="translate(651.777 152.725)" fill="#7db6f9"/><rect width="1" height="3.816" rx="0" ry="0" transform="translate(657.024 152.725)" fill="#7db6f9"/><rect width="1" height="3.816" rx="0" ry="0" transform="translate(662.271 152.725)" fill="#7db6f9"/><rect width="1" height="3.816" rx="0" ry="0" transform="translate(667.519 152.725)" fill="#7db6f9"/><rect width="1" height="3.816" rx="0" ry="0" transform="translate(672.766 152.725)" fill="#7db6f9"/></g><g><rect width="1" height="3.816" rx="0" ry="0" transform="translate(651.777 161.626)" fill="#7db6f9"/><rect width="1" height="3.816" rx="0" ry="0" transform="translate(657.024 161.626)" fill="#7db6f9"/><rect width="1" height="3.816" rx="0" ry="0" transform="translate(662.271 161.626)" fill="#7db6f9"/><rect width="1" height="3.816" rx="0" ry="0" transform="translate(667.519 161.626)" fill="#7db6f9"/><rect width="1" height="3.816" rx="0" ry="0" transform="translate(672.766 161.626)" fill="#7db6f9"/></g><g><rect width="1" height="3.816" rx="0" ry="0" transform="translate(651.777 170.527)" fill="#7db6f9"/><rect width="1" height="3.816" rx="0" ry="0" transform="translate(657.024 170.527)" fill="#7db6f9"/><rect width="1" height="3.816" rx="0" ry="0" transform="translate(662.271 170.527)" fill="#7db6f9"/><rect width="1" height="3.816" rx="0" ry="0" transform="translate(667.519 170.527)" fill="#7db6f9"/><rect width="1" height="3.816" rx="0" ry="0" transform="translate(672.766 170.527)" fill="#7db6f9"/></g><g><rect width="1" height="3.816" rx="0" ry="0" transform="translate(651.777 179.429)" fill="#7db6f9"/><rect width="1" height="3.816" rx="0" ry="0" transform="translate(657.024 179.429)" fill="#7db6f9"/><rect width="1" height="3.816" rx="0" ry="0" transform="translate(662.271 179.429)" fill="#7db6f9"/><rect width="1" height="3.816" rx="0" ry="0" transform="translate(667.519 179.429)" fill="#7db6f9"/><rect width="1" height="3.816" rx="0" ry="0" transform="translate(672.766 179.429)" fill="#7db6f9"/></g><g><rect width="1" height="3.816" rx="0" ry="0" transform="translate(651.777 188.33)" fill="#7db6f9"/><rect width="1" height="3.816" rx="0" ry="0" transform="translate(657.024 188.33)" fill="#7db6f9"/><rect width="1" height="3.816" rx="0" ry="0" transform="translate(662.271 188.33)" fill="#7db6f9"/><rect width="1" height="3.816" rx="0" ry="0" transform="translate(667.519 188.33)" fill="#7db6f9"/><rect width="1" height="3.816" rx="0" ry="0" transform="translate(672.766 188.33)" fill="#7db6f9"/></g><g><rect width="1" height="3.816" rx="0" ry="0" transform="translate(651.777 197.231)" fill="#7db6f9"/><rect width="1" height="3.816" rx="0" ry="0" transform="translate(657.024 197.231)" fill="#7db6f9"/><rect width="1" height="3.816" rx="0" ry="0" transform="translate(662.271 197.231)" fill="#7db6f9"/><rect width="1" height="3.816" rx="0" ry="0" transform="translate(667.519 197.231)" fill="#7db6f9"/><rect width="1" height="3.816" rx="0" ry="0" transform="translate(672.766 197.231)" fill="#7db6f9"/></g><g><rect width="1" height="3.816" rx="0" ry="0" transform="translate(651.777 206.132)" fill="#7db6f9"/><rect width="1" height="3.816" rx="0" ry="0" transform="translate(657.024 206.132)" fill="#7db6f9"/><rect width="1" height="3.816" rx="0" ry="0" transform="translate(662.271 206.132)" fill="#7db6f9"/><rect width="1" height="3.816" rx="0" ry="0" transform="translate(667.519 206.132)" fill="#7db6f9"/><rect width="1" height="3.816" rx="0" ry="0" transform="translate(672.766 206.132)" fill="#7db6f9"/></g><rect width="19.953" height="4.635" rx="0" ry="0" transform="translate(661.171 110.485)" fill="#7db6f9"/><rect width="2.823" height="53.408" rx="0" ry="0" transform="translate(683.007 156.947)" fill="#7db6f9"/><rect width="2.824" height="54.909" rx="0" ry="0" transform="translate(610.536 155.445)" fill="#7db6f9"/></g><path d="M0,421.43v-163.474c431.713,155.792,451.013-133.994,750-35.258v198.732h-750Z" fill="#d9ebff"/><g><g><path d="M237.954,47.097h-10.747-151.851-12.627c-8.293,0-15.015,6.723-15.015,15.015v344.302c0,8.293,6.723,15.015,15.015,15.015h12.627h151.851h10.747c8.249,0,14.937-6.687,14.937-14.936v-344.459c-.001-8.249-6.688-14.937-14.937-14.937Z" fill="#476b9e"/><path d="M60.42,406.415v-344.302c0-8.293,6.723-15.015,15.015-15.015h-.079-12.627c-8.293,0-15.015,6.723-15.015,15.015v344.302c0,8.293,6.723,15.015,15.015,15.015h12.627.079c-8.293,0-15.015-6.722-15.015-15.015Z" fill="#2f4a7f"/><rect width="192.471" height="284.125" rx="0" ry="0" transform="translate(60.42 91.723)" fill="#fff"/><g><path d="M162.066,73.291h-28.518c-1.832,0-3.323-1.491-3.323-3.323c0-1.833,1.491-3.324,3.323-3.324h28.518c1.832,0,3.323,1.491,3.323,3.324.001,1.832-1.491,3.323-3.323,3.323Zm-28.517-5.647c-1.281,0-2.323,1.042-2.323,2.324c0,1.281,1.042,2.323,2.323,2.323h28.518c1.281,0,2.323-1.042,2.323-2.323s-1.042-2.324-2.323-2.324h-28.518Z" fill="#162e4c"/><path d="M175.432,73.291c-1.833,0-3.324-1.491-3.324-3.323c0-1.833,1.491-3.324,3.324-3.324c1.832,0,3.323,1.491,3.323,3.324c0,1.832-1.491,3.323-3.323,3.323Zm0-5.647c-1.281,0-2.324,1.042-2.324,2.324c0,1.281,1.043,2.323,2.324,2.323s2.323-1.042,2.323-2.323-1.042-2.324-2.323-2.324Z" fill="#162e4c"/></g><path d="M163.721,410.965h-14.131c-2.9,0-5.261-2.36-5.261-5.26v-14.13c0-2.9,2.36-5.26,5.261-5.26h14.131c2.9,0,5.26,2.36,5.26,5.26v14.13c-.001,2.9-2.36,5.26-5.26,5.26ZM149.59,387.314c-2.35,0-4.261,1.911-4.261,4.26v14.13c0,2.349,1.911,4.26,4.261,4.26h14.131c2.349,0,4.26-1.911,4.26-4.26v-14.13c0-2.349-1.911-4.26-4.26-4.26h-14.131Z" fill="#162e4c"/><path d="M162.303,407.449h-11.296c-1.743,0-3.161-1.419-3.161-3.162v-11.296c0-1.743,1.418-3.161,3.161-3.161h5.648v1h-5.648c-1.191,0-2.161.969-2.161,2.161v11.296c0,1.192.97,2.162,2.161,2.162h11.296c1.192,0,2.162-.97,2.162-2.162v-5.648h1v5.648c0,1.743-1.419,3.162-3.162,3.162Z" fill="#162e4c"/></g><polygon points="253.366,263.71 253.366,239.875 101.805,281.064 90.848,239.006 253.366,194.277 253.366,170.421 201.26,184.762 177.049,91.825 153.281,91.825 179.082,190.866 85.049,216.746 60.602,122.901 60.602,214.139 79.608,287.096 60.602,292.261 60.602,316.095 188.008,281.471 203.448,340.738 229.247,348.534 210.205,275.439" fill="#dae9f7"/><rect width="1" height="224.284" rx="0" ry="0" transform="translate(252.391 151.564)" fill="#162e4c"/><g><polygon points="60.42,91.723 78.961,133.309 271.431,133.309 252.89,91.723" fill="#d73d3f"/><polygon points="214.572,91.723 213.879,91.723 176.665,91.723 175.972,91.723 194.514,133.309 195.206,133.309 232.42,133.309 233.113,133.309" fill="#fff"/><polygon points="137.487,91.723 136.794,91.723 99.58,91.723 98.888,91.723 117.429,133.309 118.121,133.309 155.335,133.309 156.028,133.309" fill="#fff"/><path d="M79.093,133.309c1.374,9.882,8.931,18.255,19.234,18.255s18.695-8.086,19.234-18.255h-38.468Z" fill="#c13533"/><path d="M117.56,133.309c.539,10.169,8.931,18.255,19.234,18.255s18.695-8.086,19.234-18.255h-38.468Z" fill="#d9ebff"/><path d="M156.028,133.309c.539,10.169,8.931,18.255,19.234,18.255s18.695-8.086,19.234-18.255h-38.468Z" fill="#c13533"/><path d="M194.496,133.309c.539,10.169,8.931,18.255,19.234,18.255s18.695-8.086,19.234-18.255h-38.468Z" fill="#d9ebff"/><path d="M232.964,133.309c.539,10.169,8.931,18.255,19.234,18.255s18.695-8.086,19.234-18.255h-38.468Z" fill="#c13533"/><rect width="192.47" height="1" rx="0" ry="0" transform="translate(60.42 91.223)" fill="#162e4c"/><rect width="192.471" height="1" rx="0" ry="0" transform="translate(79.196 132.809)" fill="#162e4c"/></g></g><rect width="750" height="78.57" rx="0" ry="0" transform="translate(0 421.43)" fill="#b3d6ff"/><g><path d="M714.945,267.289c0,25.681-46.5,96.209-46.5,96.209s-46.5-70.528-46.5-96.209s20.819-46.499,46.5-46.499s46.5,20.818,46.5,46.499Z" fill="#d73d3f"/><circle r="28.783" transform="translate(668.446 267.821)" fill="#fff"/><path d="M668.446,297.104c-16.146,0-29.283-13.136-29.283-29.283s13.137-29.283,29.283-29.283v1c-15.596,0-28.283,12.688-28.283,28.283s12.688,28.283,28.283,28.283s28.282-12.688,28.282-28.283h1c.001,16.146-13.135,29.283-29.282,29.283Z" fill="#162e4c"/></g><path d="M459.138,85.947h181.574c-24.015-12.518-38.614-17.136-45.804-8.239c2.14-16.203-16.695-27.738-30.203-14.637-10.364-21.341-29.289-19.748-42.141,6.446-7.384-8.425-20.226-6.502-23.544,8.74-5.618-6.981-16.03-2.711-39.882,7.69Z" fill="#d9ebff"/><path d="M319.068,55.247h85.495c-12.699-10.586-21.081-13.387-24.741-7.676-5.361-15.876-25.948-17.025-34.088.037-6.25-4.17-14.791-2.506-26.666,7.639Z" fill="#d9ebff"/><g><g><path d="M60.42,334.889C264.108,294.316,255.635,462.458,750,345.477v75.953h-512.046c8.066-.376,14.937-5.781,14.937-15.635v-29.947h-192.471v-40.959Z" fill="#7db6f9"/></g><g><path d="M637.211,369.446l-.174-.985c25.156-4.422,51.776-9.724,79.121-15.755l.215.977c-27.358,6.033-53.992,11.338-79.162,15.763Z" fill="#162e4c"/><path d="M616.365,372.969l-.16-.987c3.735-.605,7.509-1.23,11.318-1.878l.168.986c-3.813.647-7.588,1.273-11.326,1.879Z" fill="#162e4c"/><path d="M448.237,388.101c-1.626,0-3.245-.005-4.86-.016l.006-1c49.709.329,103.99-4.264,165.971-14.01l.156.988c-60.021,9.438-112.841,14.038-161.273,14.038Z" fill="#162e4c"/><path d="M434.718,387.978c-75.397-1.387-127.175-14.394-171.895-28.244l.295-.955c44.65,13.828,96.345,26.815,171.617,28.199l-.017,1Z" fill="#162e4c"/><path d="M243.113,353.493l-2.132-.684c-52.848-16.956-98.487-31.598-170.329-19.308l-.168-.985c72.083-12.335,117.831,2.346,170.802,19.341l2.132.684-.305.952Z" fill="#162e4c"/></g></g><rect width="703.622" height="1" rx="0" ry="0" transform="translate(23.188 420.93)" fill="#162e4c"/><g><path d="M216.156,344.733l-1.241-4.843.969-.248l1.241,4.843-.969.248Zm-2.482-9.687l-1.241-4.843.969-.248l1.241,4.843-.969.248Zm-2.483-9.687l-1.241-4.843.969-.248l1.241,4.843-.969.248Zm-2.482-9.687l-1.241-4.843.969-.248l1.241,4.843-.969.248Zm-2.482-9.687l-1.241-4.843.969-.248l1.241,4.843-.969.248Zm-2.483-9.687l-1.241-4.843.969-.248l1.241,4.843-.969.248ZM95.569,295.297l-.264-.965l4.824-1.316.264.965-4.824,1.316Zm9.648-2.631l-.264-.965l4.824-1.316.264.965-4.824,1.316ZM92.802,291.63l-1.272-4.835.967-.254l1.271,4.835-.966.254Zm22.063-1.595l-.264-.965l4.823-1.315.264.965-4.823,1.315Zm9.648-2.632l-.264-.965l4.823-1.315.264.965-4.823,1.315Zm76.749-.792l-1.241-4.843.969-.248l1.241,4.843-.969.248Zm-67.102-1.838l-.264-.965l4.823-1.316.264.965-4.823,1.316Zm9.648-2.632l-.264-.965l4.824-1.315.264.965-4.824,1.315Zm-53.55-.181l-1.271-4.835.967-.254l1.271,4.835-.967.254Zm63.197-2.45l-.264-.965l4.824-1.315.264.965-4.824,1.315Zm45.324-2.586l-1.241-4.844.969-.248l1.241,4.844-.969.248Zm-35.676-.045l-.264-.965l4.824-1.316.264.965-4.824,1.316Zm9.648-2.631l-.264-.965l4.823-1.315.264.965-4.823,1.315Zm-85.037-1.959l-1.272-4.836.967-.255l1.272,4.835-.967.256Zm94.684-.673l-.264-.965l4.823-1.315.264.965-4.823,1.315Zm9.648-2.63l-.264-.965l4.824-1.316.264.965-4.824,1.316ZM85.17,262.618l-1.272-4.835.967-.255l1.272,4.835-.967.255Zm-2.544-9.671l-1.272-4.836.967-.255l1.272,4.835-.967.256Zm-2.545-9.671L78.81,238.44l.967-.254l1.271,4.836-.967.254Zm-2.544-9.671l-.691-2.628l3.153-.868.266.964-2.2.606.439,1.672-.967.254Zm7.548-3.86l-.266-.964l4.82-1.327.266.964-4.82,1.327Zm9.642-2.655l-.266-.964l4.82-1.328.266.964-4.82,1.328Zm9.64-2.654l-.266-.964l4.821-1.328.266.964-4.821,1.328Zm9.642-2.655l-.266-.964l4.82-1.327.266.964-4.82,1.327Zm9.641-2.655l-.266-.964l4.82-1.327.266.964-4.82,1.327Zm9.641-2.654l-.266-.964l4.82-1.328.266.964-4.82,1.328Zm9.642-2.655l-.266-.964l4.82-1.328.266.964-4.82,1.328Zm9.64-2.655l-.266-.964l4.821-1.327.266.964-4.821,1.327Zm9.642-2.655l-.266-.964l4.82-1.327.266.964-4.82,1.327Zm9.64-2.654l-.266-.964l4.821-1.328.266.964-4.821,1.328Zm9.642-2.655l-.266-.964l4.82-1.328.266.964-4.82,1.328Zm9.642-2.654l-.266-.964l2.579-.71-.352-1.278.965-.265.615,2.242-3.541.975Zm.638-7.774l-1.324-4.822.965-.265l1.324,4.822-.965.265Zm-2.647-9.644l-1.323-4.821.965-.265l1.323,4.821-.965.265Zm-2.648-9.643l-1.323-4.822.965-.265l1.323,4.822-.965.265Zm-2.646-9.644l-1.324-4.821.965-.265l1.324,4.821-.965.265Zm-2.647-9.643l-.687-2.5.965-.265.686,2.5-.964.265Z" fill="#162e4c"/><path d="M139.525,215.29c0,2.183-1.77,3.953-3.953,3.953s-3.953-1.77-3.953-3.953s1.77-3.953,3.953-3.953c2.184,0,3.953,1.769,3.953,3.953Z" fill="#162e4c"/><polygon points="170.046,205.818 164.908,204.445 166.326,209.619" fill="#162e4c"/><polygon points="184.825,165.752 183.499,170.902 188.659,169.437" fill="#162e4c"/><polygon points="86.006,263.916 84.634,269.054 89.807,267.635" fill="#162e4c"/><polygon points="169.227,274.545 174.341,276.002 173.008,270.805" fill="#162e4c"/></g><g><ellipse rx="7.911" ry="7.911" transform="matrix(0.2298 -0.9732 0.9732 0.2298 216.634527 344.636146)" fill="#d73d3f"/><path d="M220.212,344.609c0,1.972-1.599,3.571-3.571,3.571s-3.571-1.599-3.571-3.571s1.599-3.571,3.571-3.571c1.972.001,3.571,1.599,3.571,3.571Z" fill="#fff"/></g></g></g><g transform="matrix(0.8 0 0 0.8 264.784 104.808368)"><path d="M337.59,140.24l-12.47,18.57-16.89-3.61-29.93-6.65-23-16.62c.750524-4.017135,1.029079-8.108208.83-12.19-.041488-4.024299,2.381587-7.664861,6.11-9.18c3.711508-1.516203,7.972134-.621313,10.76,2.26l.55.55c13,12.19,18.29,16.62,18.29,16.62l45.75,10.25Z" fill="#d73d3f"/><path d="M346.46,334.73c.685579-.100383,1.342811-.342162,1.93-.71.588624-.367005,1.09299-.854331,1.48-1.43.39094-.572403.659855-1.219161.79-1.9.123392-.682938.106379-1.383853-.05-2.06l-15.23-71.75c-.717711-3.144194-3.742359-5.199907-6.93-4.71-2.283973.490913-4.013082,2.364113-4.32,4.68-.097081.75317-.042683,1.518146.16,2.25l16.35,71.47c.661042,2.623754,3.123532,4.383885,5.82,4.16Z"/><path d="M332.05,334.45L321.8,358l1.94.83L334,335.28l-1.95-.83Z" fill="#a0a1a1"/><path d="M347.29,310.63l-.56-1.94l23.28-6.1.55,1.94-23.27,6.1Z" fill="#a0a1a1"/><path d="M373.88,326.69l-25.21-3l.28-1.94L374.16,325l-.28,1.69Z" fill="#a0a1a1"/><path d="M338.15,303.42l-1.94-.27l1.38-23l1.94.28-1.38,22.99Z" fill="#a0a1a1"/><path d="M339.25,335.56l-1.94.83l11.09,24.38l1.93-.83-11.08-24.38Z" fill="#a0a1a1"/><path d="M348.12,329.19l-1.39,1.38l18.57,18l1.38-1.38-18.56-18Z" fill="#a0a1a1"/><path d="M329.83,145.78l14.69-.55c1.343289-.051414,2.585755.709878,3.149916,1.930039s.33936,2.659867-.569916,3.649961c-.596566.650356-1.428146,1.035547-2.31,1.07l-15.23,2.49.27-8.59Z"/><path d="M327.34,161.85c2.89432,1.366616,5.973966,2.299944,9.14,2.77c3,0,4.71-4.43,1.39-5.54l-6.65-1.38-3.88,4.15Z" fill="#da5e63"/><path d="M344.52,145.23h3.88c.56309-.022219,1.12387.083782,1.64.31.519663.227246.981182.569113,1.35,1c.367338.428108.639971.929071.8,1.47.150984.543717.178319,1.11434.08,1.67-.122079,1.935405-1.664595,3.477921-3.6,3.6l-3.6.28-.55-8.33Z" fill="#651a20"/><path d="M327.06,143.57c1.597695-2.205433,3.685923-4.009525,6.1-5.27c2.01939-.518942,4.15926.137696,5.54,1.7c2.046549-.008521,4.08921.179002,6.1.56c1.93.55,2.76,1.66,4.7,7.76s0,6.37-1.66,8.86c-1.401092,1.539926-3.484298,2.269424-5.54,1.94s-1.66,2.22-2.77,2.22-2.77-1.67-2.77-1.67l-.28.28c-.623515.697309-1.49643,1.121194-2.43,1.18-.465379.024157-.930949-.04381-1.37-.2-.437293-.149689-.839-.38799-1.18-.7l-2.22-1.94-2.22-14.72Z" fill="#f09f96"/><path d="M339,146.89v5.82c.009974.734913-.291565,1.439715-.83,1.94l-1.67,2.49c-.071685.13038-.11912.272685-.14.42-.019849.142646-.019849.287354,0,.43.042159.141176.109957.27338.2.39.090342.116975.202386.215438.33.29.125619.07256.265522.116919.41.13.145142.02991.294858.02991.44,0c.142337-.034032.275469-.098892.39-.19.1139-.09075.209009-.202842.28-.33.56-.83,1.11-1.94,1.66-2.77.568205-.810141.862532-1.780718.84-2.77.130011-2.031255.130011-4.068745,0-6.1.28-1.13-1.91-1.13-1.91.25Z"/><path d="M332.6,146.89v5.82c.013249.363829-.055087.726012-.2,1.06-.143226.335815-.358265.636186-.63.88l-1.66,2.49c-.145835.258239-.185293.563145-.11.85.079857.287803.270409.532284.53.68.256162.141859.557693.177755.84.1.288617-.072268.534637-.2604.68-.52.55-.83,1.11-1.94,1.66-2.77.569195-.809156.860447-1.781168.83-2.77.14-2.030923.14-4.069077,0-6.1.28-1.1-1.94-1.1-1.94.28Z"/><path d="M344,147.45c.548177,1.510173.832325,3.103432.84,4.71v.84c-.170489.131766-.310371.298942-.41.49-.094281.189817-.1455.398106-.15.61-.398012.776779-.859585,1.51931-1.38,2.22-.074661.125448-.122343.265087-.14.41-.030193.145113-.030193.294887,0,.44.038687.140625.103109.272859.19.39.09075.1139.202842.209009.33.28.125448.074661.265087.122343.41.14.145113.030193.294887.030193.44,0c.140625-.038687.272859-.103109.39-.19.116975-.090342.215438-.202386.29-.33.561881-.769304,1.02547-1.605779,1.38-2.49.28-.56.55-.84.83-1.39.224708-.423285.321962-.902609.28-1.38.009522-1.881613-.270417-3.753497-.83-5.55-.132935-.253249-.333771-.464473-.58-.61-.244-.147904-.524703-.224145-.81-.22-.333939.131753-.619922.361935-.82.66-.181796.290024-.272369.627932-.26.97Z"/><path d="M347.56,222l-.27,5.54c-.230487,3.202992.240459,6.417712,1.38,9.42L352.55,248c.079245.233531.225279.438673.42.59.302367.224441.694866.288145,1.052697.170856s.636464-.400975.747303-.760856l1.38-3.6-8.59-22.4Z" fill="#eeb044"/><path d="M351.72,154.65c.40292-.063809.815396-.025999,1.2.11.385642.133143.730182.363985,1,.67.273818.301409.469535.665373.57,1.06.095159.397721.095159.812279,0,1.21-.55,2.21-3.6,1.1-5.54-1.11s-20.78-1.94-23.83-1.94-.55-3.88.28-3.88s26.32,3.88,26.32,3.88Z" fill="#e4e4e4"/><path d="M258.35,259.1v-97.8h-6.92v97.8h6.92Z" fill="#3b86a5"/><path d="M159.73,259.1v-97.8h-6.93v97.8h6.93Z" fill="#3b86a5"/><path d="M121.22,296.22h52.36v-11.08h-52.36v11.08Z" fill="#3b86a5"/><path d="M103.1,85.89l-5.56-7.26c1.100861-2.593024,1.339248-5.471194.68-8.21-1.09-3.7,2-9.22,4.53-11.85s1-7.77-2.68-6.68c-3.141767,1.302477-5.615874,3.830761-6.85,7-.205747.509834-.552652.950403-1,1.27-.437632.319884-.951274.519825-1.49.58-.536824.049706-1.076903-.050693-1.56-.29-.482656-.235193-.888448-.602834-1.17-1.06-1.52-2-8.16-11.54-10.86-15.06s-4.81-4-6.78-2.48.64,5.43,4.34,10.65s5.73,7.47,5.07,8-2.8-2.74-7.13-8.84-7.2-9.85-9.68-9-3.4,3.31.81,8.8s9.16,11.49,8.79,12.82-5.2-4-8.4-8.22-4.71-4.77-6.2-4-2.11,4.07,2.27,9.78c-.510049-.277561-1.092714-.392698-1.67-.33-.573226.068978-1.111114.313473-1.54.7-1.54,1.18-.23,4.71,4.71,10.7s7,5.47,9.52,8.76s7.75,7.33,13.64,5.96l4.51,7.71l13.7-9.45Z" fill="#f09f96"/><path d="M82.11,96.75L102.84,81.9c0,0,26.88,31.41,35.94,39.12s15.39,24.16,8.2,30.72-22.74-1.42-37.11-18.33c-5.33-6.04-27.76-36.66-27.76-36.66Z" fill="#d73d3f"/><path d="M60.87,64.51c2.24,2.47,4.92,4.6,7.39,6.9.297687.18656.654634.25438,1,.19.338345-.066972.638605-.259996.84-.54.118932-.136515.207549-.296708.26-.47.040188-.174381.040188-.355619,0-.53-.031312-.179127-.106942-.347575-.22-.49-.110193-.141919-.25014-.257973-.41-.34-1.23-1.15-2.3-2.08-3.53-3.23-.72-.49-1.23-1.15-2-1.64l-.51-.66-.67-.88c-.227287-.288186-.556681-.477945-.92-.53-.357248-.042613-.716825.058069-1,.28-.29001.22135-.480567.548534-.53.91-.04536.369936.063089.742278.3,1.03Z"/><path d="M84.84,73c.07-3.55,1.25-7.94,5-9c.6-.12.93-1.07.81-1.68-.120971-.320548-.360977-.582047-.67-.73-.311753-.150218-.66833-.178744-1-.08-4.75,1.55-6.41,6.66-6.81,11.16-.035043.178294-.035043.361706,0,.54.049216.173625.130629.336452.24.48.107006.147503.247533.267465.41.35.156771.090536.330262.148366.51.17.75.08,1.67-.6,1.51-1.21Z"/><path d="M71,71.38c.88-5.22,5.45-8.37,10.2-9.92.6-.11.93-1.06.81-1.67-.256463-.651221-.970909-.995375-1.64-.79-5.816253,1.488421-10.35649,6.032493-11.84,11.85-.65,1.89,2.07,2.25,2.47.53Z"/><path d="M231.2,179l-14.68,10.25-18.84,3.05l3.33,5l5.81,19.4l43.5,6.37-10.25,56.53l20.23.55l26.31-79.24L231.2,179Z"/><path d="M225.94,86.22l-21.05-4.39c-6.844792-1.428174-13.965385.387965-19.29,4.92l-30.58,26c0,0,3.88,30.24,1.66,37.17s-4.43,28.81-4.43,28.81c4.43,9.42,29.92,19.67,29.92,19.67s28,3.33,48.48-10.53c13.3-9.14,13.3-30.75,13.3-30.75l6.09-28c0,0,4.16-15.24-8-39.62-.31.32-16.1-3.28-16.1-3.28Z" fill="#d73d3f"/><path d="M206.82,103.4c4.591512,4.394637,10.845752,6.611652,17.18,6.09c5.715157-.528469,10.79912-3.849143,13.58-8.87.83-1.38-1.39-2.77-2.22-1.38-2.42539,4.412925-6.893389,7.324064-11.91,7.76-5.549359.296395-10.975518-1.707667-15-5.54-1.07-.84-2.73.83-1.63,1.94Z"/><path d="M223.17,138.58l23.27,10.53-6.37,15L221,151.6l2.17-13.02Z" fill="#9fa0a0"/><path d="M153.91,165.45l69.26-26.87-2.22,13-67,31.31-1.66-3.6l1.62-13.84Z" fill="#9fa0a0"/><path d="M223.17,108.38c.609377,11.576204-.041108,23.184352-1.94,34.62-1.11,5.54-2.49,11.09-3.32,16.63-.28,1.66,2.21,1.66,2.49.27.83-5.81,2.49-11.36,3.6-17.17c1.806577-12.100759,2.362841-24.355332,1.66-36.57-.27-1.67-2.49-1.11-2.49.27v1.95Z"/><path d="M291.6,130.27l-26,16.9-16.9-14.69c1.007712-7.461843.822059-15.036484-.55-22.44-2.22-15.23-5.55-15.79-5.55-15.79.415353-.473747.704292-1.044746.84-1.66c9.14-.55,20.22,5.82,26.87,13c7.547153,7.82704,14.654719,16.066341,21.29,24.68Z"/><path d="M134.79,328.36l2.5,19.94l16.34,6.93c.799089.315709,1.64259.504653,2.5.56l29.36-.56L172.75,332l-37.96-3.64Z"/><path d="M43.09,231.67L24.25,245L6.52,286.52l17.73.56L40,258.26l26.6-6.92-23.51-19.67Z" fill="#2d2d2d"/><path d="M94.62,263.53c-11.36-6.1-37.12-10-57.07.83-10,5.54-18,12.47-24.66,28.53C8.897334,303.586774,7.562407,315.093232,9,326.42c1.67,11.08,8,22.44,17.73,32.69c14.7,15.24,39.08,19.12,56.27,14.68c13.85-3.6,30.75-15.51,37.4-31c5.323925-12.290875,6.866161-25.889013,4.43-39.06-3.763555-17.1366-14.783285-31.794301-30.2-40.17l-.01-.03Zm8.87,72.86c-8.31,26.32-40.18,29.92-61.23,12.47C14,325.59,31.45,299.27,31.45,299.27c9.42-33.53,40.18-26.88,51.81-20.23c19.67,11.08,28.26,31.86,20.23,57.35Z"/><path d="M110.41,309.24c-1.791872-9.311397-6.440679-17.833045-13.3-24.38C86.31,273.5,68,270.45,55,273.78c-10.25,2.49-23,11.63-27.7,23.27-4.009179,9.141794-5.159546,19.282452-3.3,29.09c2.774409,12.913096,11.081705,23.955364,22.72,30.2c8.31,4.71,27.71,7.48,42.67-.83c8.693526-4.471086,15.33769-12.110442,18.56-21.34c2.714115-8.012869,3.555659-16.541196,2.46-24.93Zm-8.59,22.44c-2.683119,7.847823-8.35851,14.317553-15.79,18-12.74,6.93-29.36,4.71-36.29.55-9.831141-5.38043-16.816795-14.792065-19.12-25.76-1.374439-8.410227-.416368-17.036326,2.77-24.94c4.16-10,15-17.45,23.83-19.67c11.08-2.77,26.6-.27,36,9.42c5.857774,5.686731,9.820922,13.040378,11.35,21.06.745802,7.230281-.195529,14.535012-2.75,21.34Z" fill="#a0a1a1"/><path d="M49.18,308.13l-18-3.88.55-1.94l18,3.88-.55,1.94Z" fill="#a0a1a1"/><path d="M29,324.48l-.28-1.94l20.78-4.16.28,1.94L29,324.48Z" fill="#a0a1a1"/><path d="M57.5,299.82L52.23,276l1.94-.56l5.27,23.83-1.94.55Z" fill="#a0a1a1"/><path d="M63.31,330.85L53.06,354.4l1.94.83l10.25-23.55-1.94-.83Z" fill="#a0a1a1"/><path d="M41.15,347.47l-1.66-1.1l13.3-19.67l1.66,1.1-13.3,19.67Z" fill="#a0a1a1"/><path d="M78.83,307l-.56-1.94l23.28-6.1.55,1.94L78.83,307Z" fill="#a0a1a1"/><path d="M105.15,323.09l-25.21-3l.27-1.94l25.22,3-.28,1.94Z" fill="#a0a1a1"/><path d="M69.41,299.54h-1.94l1.39-23l1.93.28-1.38,22.72Z" fill="#a0a1a1"/><path d="M70.52,332l-1.94.83l11.08,24.38l1.94-.83L70.52,332Z" fill="#a0a1a1"/><path d="M79.38,325.86L78,327.25l18.56,18L98,343.87L79.38,325.86Z" fill="#a0a1a1"/><path d="M85.76,325c-4.44,12.19-21.61,16.35-32.14,7.48s-6.93-23-6.93-23c5-16.35,24.1-15.79,30.48-11.91c9.69,5.58,13.3,15.55,8.59,27.43Z" fill="#e4e4e4"/><path d="M115.12,306.75l35.19-11.36l108.05,22.16.55,8.87-12.19,16.9-131.6-36.57Z"/><path d="M245.33,270.45c0,0-2.49,21.89-3.87,28.54s-5,21.33-5,21.33L283,332.51c0,0,.28-17.45-15.79-18.56-11.91-.83-10-9.42-5.82-34.35l-16.06-9.15Z"/><path d="M79.94,205.35l-35.47.55c-1.47129.004018-2.92197.34616-4.24,1-1.323592.662156-2.474171,1.624397-3.36,2.81-1.792181,2.392617-2.361983,5.485826-1.54,8.36.573484,1.899564,1.623444,3.62081,3.05,5L96.84,271c1.390745,1.170539,2.429294,2.70413,3,4.43l14.69,31.31l83.11,11.91L183.83,268c-.359207-1.418135-1.021016-2.741753-1.94-3.88-4.15-4.71-15.24-16.9-17.73-19.39-.340083-.318048-.621097-.693862-.83-1.11-.839826-1.206797-1.990466-2.163935-3.33-2.77L84.37,206.46c-1.339635-.787246-2.877434-1.172563-4.43-1.11Z" fill="#d73d3f"/><path d="M220.4,262.7l9.42-16.9-56.52,10.25l10.25,10.8c.338193.423708.6174.891297.83,1.39l11.92,47.93c.463565,1.70208,2.13953,2.777635,3.88,2.49l21.33-4.43c.393117-.033165.774788-.14903,1.12-.34.341474-.191553.640782-.450046.88-.76.231697-.31627.395152-.677232.48-1.06.085192-.385348.085192-.784652,0-1.17l-4.15-46c.01-1.09.01-1.65.56-2.2Z" fill="#a22f32"/><path d="M65.81,190.67l34.35-.56c1.608164-.021224,3.205962.260341,4.71.83l38.23,13c1.213621.567428,2.540448.85126,3.88.83l61.78,4.44c8.583432.610008,16.699689,4.138815,23,10l3.6,3.33c1.128114,1.010781,2.030994,2.247557,2.65,3.63.633798,1.381808.974293,2.87999,1,4.4v3.6c.225088,5.48388-3.713363,10.258282-9.14,11.08L173.3,255.49c-4.134103.842165-8.431624.256941-12.19-1.66L60.82,211.17c-10.53-4.44-6.93-20.23,4.99-20.5Z" fill="#3a3a3a"/><path d="M235.08,221.14l-34.9-11.91l19.11-5l15.79,16.91Z"/><path d="M69.13,222.8c-1.432934-1.531535-3.010235-2.921302-4.71-4.15-2.77-1.94-5.26-3.88-8-5.82l-3-2.22c-1.66-1.11-3.32-2.49-5-3.6-1.865065-1.13458-3.625355-2.433045-5.26-3.88-.28-.28-.28-.28-.28-.55s.28-.28,0,0c.306429-.2924.692735-.487293,1.11-.56.892984-.312281,1.825449-.497427,2.77-.55c2.763523-.233119,5.537053-.326571,8.31-.28l.83-3.88c-4.15-.27-7.48-.55-8.58-.55-2.43127.087247-4.806805.75226-6.93,1.94-.6746.409418-1.240582.9754-1.65,1.65-.408248.673735-.651523,1.434401-.71,2.22-.053914.787696.083314,1.576756.4,2.3.309084.726986.793525,1.366036,1.41,1.86.828129.838248,1.731975,1.598148,2.7,2.27c5.54,3.88,11.08,7.76,16.62,11.91c1.38,1.11,2.77,1.94,4.15,3c.56.28.84.83,1.39,1.11s1.11,1.11.55.28c.821774.980687,2.236522,1.214354,3.33.55.427237-.36866.713484-.874009.81-1.43.100456-.553851.008725-1.1254-.26-1.62Z" fill="#9e9f9f"/><path d="M252,238l22.17-4.71L289.66,245L252,238Z" fill="#a22f32"/><path d="M303.79,255.49L263.9,305.92L273,358h8.31l17.45-10-6.37-47.1L308,287.08l-4.21-31.59Z" fill="#3a3a3a"/><path d="M363.36,267.13c-11.36-6.09-37.13-10-57.08.83-10,5.54-18,12.47-24.65,28.54-3.995795,10.685601-5.327544,22.183946-3.88,33.5c1.66,11.08,8,22.44,17.73,32.69c14.68,15.24,39.06,19.12,56.24,14.69c13.85-3.61,30.75-15.52,37.4-31c5.328295-12.293232,6.870648-25.895877,4.43-39.07-3.861837-17.088396-14.849585-31.708397-30.19-40.17v-.01ZM372.22,340c-8.31,26.32-40.17,29.92-61.23,12.47-28.25-23.27-10.8-49.59-10.8-49.59c9.42-33.52,40.17-26.87,51.81-20.22c19.39,11.07,28.26,31.85,20.22,57.34Z"/><path d="M379.15,312.84c-1.796293-9.309809-6.444407-17.830187-13.3-24.38-10.81-11.36-29.09-14.4-42.11-11.08-10.25,2.49-23,11.64-27.71,23.27-4.021428,9.138226-5.178969,19.280653-3.32,29.09c2.761725,12.918883,11.072629,23.965947,22.72,30.2c8.31,4.71,27.7,7.48,42.66-.83c8.693443-4.469162,15.340377-12.10401,18.57-21.33c2.719127-8.015085,3.570804-16.545531,2.49-24.94Zm-8.59,22.72c-2.685991,7.84616-8.360533,14.314922-15.79,18-12.75,6.93-29.37,4.71-36.3.55-9.83276-5.376389-16.816624-14.790535-19.11-25.76-1.379091-8.410107-.42088-17.037464,2.77-24.94c4.15-10,15-17.45,23.83-19.67c11.08-2.77,26.59-.27,36,9.42c5.860394,5.686183,9.826918,13.039617,11.36,21.06.672523,7.229966-.270206,14.51903-2.76,21.34Z" fill="#a0a1a1"/><path d="M317.92,311.74l-18-3.88.28-1.94l18,3.88-.28,1.94Z" fill="#a0a1a1"/><path d="M297.7,328.08l-.28-1.94L318.2,322l.27,1.94-20.77,4.14Z" fill="#a0a1a1"/><path d="M326.23,303.42l-5-23.82l1.93-.56l5,23.83-1.93.55Z" fill="#a0a1a1"/><path d="M309.89,351.08L308.22,350l13.3-19.67l1.66,1.1-13.29,19.65Z" fill="#a0a1a1"/><path d="M354.49,328.64c-4.43,12.18-21.61,16.34-32.14,7.47s-6.92-23-6.92-23c5-16.35,24.1-15.79,30.47-11.91c9.7,5.55,13.02,15.52,8.59,27.44Z" fill="#e4e4e4"/><path d="M320.41,325.31l9.7-1.11c.795707-.055675,1.526873-.457816,2-1.1.480837-.632406.659962-1.443949.49-2.22-.158501-1.678227-1.64053-2.91474-3.32-2.77l-10,.83l1.13,6.37Z" fill="#a0a1a1"/><path d="M369.17,264.08c5.424456,4.202615,10.027997,9.368887,13.58,15.24c3.6,5.26,2.49,13-10,6.37-6.497698-3.881264-13.257322-7.306185-20.23-10.25-1.38-.55-21.89-7.2-34.08-3.32-26.59,8-39.34,34.91-39.34,34.91-.83,1.93-2.21,1.38-2.49-1.11c0,0-3.88-31.31,29.92-49c20.422146-10.391249,45.079691-7.55569,62.61,7.2l.03-.04Z" fill="#a22f32"/><path d="M321.52,328.36c.714998-.130545,1.395664-.406215,2-.81.591262-.392871,1.0951-.903518,1.48-1.5.786532-1.201005,1.050103-2.670507.73-4.07l-14.41-73.14c-.243646-1.566396-1.127503-2.961006-2.44-3.85-.647152-.44263-1.379344-.745723-2.15-.89-.768411-.160146-1.561589-.160146-2.33,0-.740266.168872-1.440172.481451-2.06.92-1.241857.890439-2.059904,2.255057-2.26,3.77-.102162.749697-.047681,1.512435.16,2.24l15.51,72.87c.321031,1.290736,1.072321,2.433543,2.13,3.24c1.039285.808783,2.323232,1.239117,3.64,1.22Z" fill="#a0a0a0"/><path d="M321.52,321.71c.56,2.22-.27,4.43-1.38,4.71s-2.77-1.39-3.05-3.88.28-4.43,1.39-4.71s2.52,1.66,3.04,3.88Z" fill="#545454"/><path d="M294.1,245.8L254.2,238c-1.097412-.240955-2.238881-.189226-3.31.15-1.06868.340273-2.02797.957945-2.78,1.79l-3.88,3.88c-.835734.808867-1.451752,1.817209-1.79,2.93-.339038,1.115713-.390636,2.29901-.15,3.44l16.62,76.19-12.19,16.9L273,351.07c-3.839008-17.642399-2.980405-35.983405,2.49-53.19c5.570685-17.071204,17.488881-31.348694,33.29-39.88L294.1,245.8Z" fill="#d73d3f"/><path d="M129,211.72l15.51-.83c.293853-.000363.575112-.119357.78-.33.212596-.203547.33196-.485679.33-.78-.010679-.608558-.501442-1.099321-1.11-1.11L129,209.5c-.296867-.000068-.581391.118784-.79.33-.428189.435748-.428189,1.134252,0,1.57.212624.203919.495399.318461.79.32Z" fill="#2d2d2d"/><path d="M67.19,206.73c24.38,11.36,59.29,22.72,83.95,33.53c5,2.21,10.25,4.71,16.07,4.43c3-.28,5.82-.83,8.86-1.39c10.81-1.66,21.61-3.6,32.14-5.26c7.76-1.39,15.24-2.77,23-3.88c1.94-.28,1.1-3-.84-2.77-16.9,3.05-34.07,5.82-51,8.59l-10.81,1.66c-4.068771.333485-8.157392-.332504-11.91-1.94-16.35-6.65-42.11-14.4-57.9-21.61-10-4.71-20-9.14-30.2-13.85-1.63-.83-3.02,1.66-1.36,2.49Z" fill="#2d2d2d"/><path d="M81,234.71c10.26,5,30.48,10.26,40.45,15.24l15.8,7.76c4.05483,1.477382,7.877015,3.528228,11.35,6.09.956527,1.308805,1.79324,2.701095,2.5,4.16c1.11,2.22,2.21,4.43,3.32,6.93c2.5,5.54,5,11.36,7.48,17.17c1.540903,4.421091,3.489278,8.689438,5.82,12.75c1.39,2.21,5,.27,3.6-1.94-2.058075-3.409056-3.734829-7.034199-5-10.81-2.5-5.81-5-11.63-7.76-17.45-1.681115-4.279522-3.816677-8.366258-6.37-12.19-2.28701-2.489404-5.141191-4.389904-8.32-5.54-5.26-2.5-10.25-5-15.51-7.76C116.78,243.3,94.9,237.48,83,231.67c-2-1.39-4.17,2.21-2,3.04Z" fill="#a22f32"/><path d="M93.23,305.92l9.15,35.18c.153062.590957.429072,1.142976.81,1.62.382459.475687.859092.867207,1.4,1.15l28.54,8.87c.774288.358475,1.640078.47019,2.48.32.84294-.14777,1.620828-.548923,2.23-1.15l8-8c1.032884-1.115005,1.448327-2.668238,1.11-4.15l-7.76-26.05c-.173645-.658207-.518702-1.258605-1-1.74-.486764-.479425-1.08983-.824035-1.75-1L98.5,301.21c-1.029691-.421182-2.189846-.385009-3.191298.099503s-1.749866,1.371723-2.058702,2.440497c-.206501.707671-.213422,1.458643-.02,2.17Z" fill="#3a3a3a"/><path d="M87.42,340.55c9.14,4.43,28,8.86,37.12,13.3c3.33,1.38,5.82,3,9.42,2.21c6.1-1.38,12.19-3.05,18.29-4.71c7.2-1.94,14.4-3.88,21.61-6.09c1.607149-.461158,2.536158-2.137851,2.075-3.745s-2.137851-2.536158-3.745-2.075c-12.46,3.6-24.93,7.2-37.67,10.25-.888175.341728-1.828612.527786-2.78.55-1.38.28-.27,0,0,.28-.27,0-.27,0-.55-.28l-.28-.27c-.949621-.408981-1.874531-.873105-2.77-1.39-5.54-2.49-20.78-5.26-26.32-8l-11.63-5.82c-3.33-1.14-6.1,4.13-2.77,5.79Z" fill="#2d2d2d"/><path d="M331.22,156.59c0,0,1.38-10.53-2.49-14.69s-6.65.28-8.32,6.1c0,0-2.21,10.25,3.61,14.13s7.2-5.54,7.2-5.54Z"/><path d="M306.56,143.57L324,145c2.469662,1.084424,4.162919,3.415997,4.43,6.1.28,4.43-1.11,5.82-1.11,5.82L308.5,161.3l-1.94-17.73Z" fill="#a22f32"/><path d="M315.15,126.94c1.202713.171761,2.428953.058728,3.58-.33c1.155148-.380395,2.206113-1.023983,3.07-1.88c3.276902-2.339411,5.069166-6.239772,4.71-10.25c0-4.44-1.66-6.38-3.6-5.82-4.146658,1.751902-7.642713,4.755013-10,8.59-1.67,4.15-1.39,6.65-.28,8.31.289755.40558.661013.746183,1.09,1c.443575.228595.931461.358243,1.43.38Z"/><path d="M314.6,123.62c-.56,1.11-1.11,2.22-1.66,3.6-.632028,1.031809-1.100889,2.155051-1.39,3.33-.28,2.49-.56,5-.83,7.75.022425.358574.175391.69652.43.95.26617.267159.623207.424255,1,.44.186752.008549.373422-.018603.55-.08.348972-.135131.624869-.411028.76-.76.061397-.176578.088549-.363248.08-.55.28-2.21.28-4.71.55-6.92.298777-.950304.669861-1.876343,1.11-2.77l1.66-3.33c.28-.83.28-1.66-.55-1.94-.31-.83-1.16-.55-1.71.28Z" fill="#9e9f9f"/><path d="M314.6,142.74c.166777-2.036961.072683-4.086883-.28-6.1-.56-.83-3.6-1.39-4.43-.28-.661208,1.292112-1.039604,2.710244-1.11,4.16l5.82,2.22Z"/><path d="M270.82,183.74c-3.21392-4.57-7.140527-8.59452-11.63-11.92-5.54-3.32-11.64-4.71-12.75-6.37s16.9-1.11,17.46-1.38s16.34,16.34,16.62,16.9-9.7,2.77-9.7,2.77Z" fill="#a22f32"/><path d="M317.64,162.68c1.523077-3.485154,2.188339-7.284689,1.94-11.08-.502053-3.240142-1.839269-6.293681-3.88-8.86-6.136773-3.901119-12.760322-6.97754-19.7-9.15-7.2-2.21-11.35-3.32-17.73,1.39s-10.25,9.14-14.4,10-17.73,2.5-19.67,3.88-1.67,10.53-.56,14.68c1.11,3.05,17.73,3.05,18.56,3.33c5.200114,4.203005,9.945975,8.938811,14.16,14.13c1.94,2.77,21.61.28,26.05,0s6.64-5.54,10.52-10c2.412916-2.203413,4.062435-5.117212,4.71-8.32Z" fill="#d73d3f"/><path d="M250,155.48c.28,3.88-1.38,7.2-3.87,7.48s-4.71-2.49-5-6.1s1.38-7.2,3.88-7.48s4.76,2.5,4.99,6.1Z" fill="#a22f32"/><path d="M306.56,143.29c1.533348-.281655,3.103967.243143,4.16,1.39c3,3.32,8.59,10.8,7.48,19.66-1.39,12.2-8,10.53-13.85,8.87s-9.42-2.21-11.35-7.48-1.67-6.09-6.38-9.14-8.31-3.33-8.31-7.48s2.77-3.33,7.76-3.6c6.869775-.309864,13.713273-1.051327,20.49-2.22Z" fill="#eeb044"/><path d="M316.26,176.26c-6.37-1.66-6.93,1.38-10,1.94s-32.41-.56-39.34,3.87c-3.350176,1.971928-5.444906,5.533725-5.54,9.42-.177425,2.153803-.840707,4.239381-1.94,6.1l-3.32,5.54c-.95539,1.523847-1.59472,3.224192-1.88,5-.282483,1.760225-.207663,3.559308.22,5.29l.83,3.6c.785671,2.981248,2.545651,5.614178,5,7.48c8.86,6.65,30.19,22.17,47.09,34.08c4.16,3,40.17,5.54,49.87,5c.717116-.167027,1.39587-.469073,2-.89c1.816378-1.308817,2.674643-3.576526,2.18-5.76l-15-38c-6.35-15.25-28.23-42.12-30.17-42.67Z" fill="#d73d3f"/><path d="M324.85,208.4c10.25,5.54,14.4,1.66,12.46-5.27-8.58-13-19.67-26.32-21.05-26.59-6.37-1.67-6.93,1.38-10,1.93-5.582004.965873-11.226929,1.524016-16.89,1.67c8.88,7.48,28.55,24.38,35.48,28.26Z" fill="#a22f32"/><path d="M291.88,168c-7.48-1.67-15-3.33-22.17-5-1.94-.55-2.49,2.49-.83,2.77c7.48,1.66,14.69,3.6,22.17,5c.18189.051578.371849.068538.56.05.388563-.035707.747614-.222414,1-.52.118756-.149457.210162-.318727.27-.5.034683-.185056.034683-.374944,0-.56-.016476-.188928-.070894-.372592-.16-.54-.091654-.167737-.213734-.316946-.36-.44-.141535-.117108-.304591-.205429-.48-.26Z"/><path d="M246.44,130.55c2.77,1.66,5.54,3.32,8,5c.492833.222473.887527.617167,1.11,1.11.341214.691703.528834,1.449006.55,2.22.55,1.66.83,3,1.38,4.71.111512.36488.363274.670591.7.85.167384.090886.350738.148609.54.17.19146.018163.384626.001218.57-.05.360863-.118898.664112-.368633.85-.7.090886-.167384.148609-.350738.17-.54.018538-.188151.001578-.37811-.05-.56-.596158-1.626859-1.060979-3.298877-1.39-5l-.83-2.5c-.310627-.817651-.898007-1.50057-1.66-1.93-2.733487-2.043626-5.603514-3.897951-8.59-5.55-1.62-.56-3.01,1.93-1.35,2.77Z" fill="#9e9f9f"/><path d="M261.13,149.94c.515015-.233248.934874-.635465,1.19-1.14.252065-.504377.319298-1.08117.19-1.63-.468668-2.250521-1.317488-4.404699-2.51-6.37-1.260052-.433243-2.656835-.111207-3.6.83-.517691,2.364646-.612489,4.802292-.28,7.2.3,1.39,3.07,1.94,5.01,1.11Z"/><path d="M249.77,129.71l-.83,2.22c-.28.56-.56.83-1.11.56l-3.88-.56c0,0-16.35,5.26-19.67,5s-12.47-7.21-14.13-10.81s1.11-5.81,5-7.2s16.06-5.54,20.5-4.16c3.683466.862572,6.930161,3.029404,9.14,6.1c1.560386,2.71233,3.318478,5.306017,5.26,7.76.04267.385318-.056906.772951-.28,1.09Z" fill="#3a3a3a"/><path d="M310.72,174c-10.25,6.1-22.72,4.44-34.08,4.71-4.43.28-9.14.83-12.47,4.16-2.911679,3.277452-4.410484,7.572588-4.17,11.95c0,1.94,2.77,1.94,3.05,0c.27-4.43,1.38-9.42,5.81-11.63s10.25-1.67,15.24-1.67c9.7,0,19.4,0,28.26-5c1.41-1.09.02-3.58-1.64-2.52Z"/><path d="M278,208.4c.55,6.37,21.6,35.73,29.36,39.89c4.44,2.49,26.05,3.88,32.69,4.43.19637.009394.391153-.039301.56-.14.166434-.101124.301465-.246542.39-.42.088783-.175991.123574-.374297.1-.57-.01998-.194366-.096463-.37862-.22-.53-1.66-2.49-5-7.2-8.58-13-8.87-13.85-41.28-37.4-44.61-40.17-5.79-4.73-10.77-1.41-9.69,10.51Z" fill="#eeb044"/><path d="M245.06,169.33c4.15-.55,6.92-5.54,6.09-11.36s-4.43-10.25-8.59-9.69-6.92,5.54-6.09,11.36s4.43,9.97,8.59,9.69Z"/><path d="M38.38,223.08L37.27,230c-.710483,4.278451,1.417915,8.52717,5.27,10.52l56.79,31.86-60.95-49.3Z" fill="#3a3a3a"/><path d="M103.49,339.16c-2.77,9.7-13.58,11.08-20.78,3.88s-4.71-18.84-4.71-18.84c2.77-13,14.4-10.8,18.56-7.76c6.140963,5.830003,8.771776,14.455121,6.93,22.72Z" fill="#2d2d2d"/><path d="M97.67,340.27c-2.77,9.7-13.58,11.08-20.78,3.88s-4.71-18.84-4.71-18.84c2.77-13,14.41-10.8,18.56-7.76c6.374158,5.6833,9.04715,14.446702,6.93,22.72Z" fill="#3a3a3a"/><path d="M31.18,296.77L86,323.09c.88069.514769,1.579598,1.290557,2,2.22l3.33,12.47c.273329.809773.226822,1.693393-.13,2.47-.364019.772525-1.012534,1.374462-1.81,1.68l-8,3.6c-.458763.276278-.984471.42154-1.52.42-.53845-.000158-1.066933-.145232-1.53-.42l-51.6-22.71c-.378234-.128447-.720842-.34429-1-.63-.284828-.278022-.497631-.621253-.62-1L16.77,303.7c-.187464-.474276-.282504-.980025-.28-1.49.008304-.507413.120619-1.007727.33-1.47.208909-.467196.507954-.888578.88-1.24.375841-.342983.813668-.61111,1.29-.79l9.42-2.49c1.1.28,1.94.28,2.77.55Z" fill="#3a3a3a"/><path d="M28.68,307.58c18.57,9.42,38,17.73,56.8,26.59c1.66.56,2.77-1.66,1.38-2.21-18.84-8.59-37.95-17.18-56.79-26.6-1.39-.83-2.77,1.39-1.39,2.22Z" fill="#2d2d2d"/><path d="M62.76,322.82c.83,3.32,1.94,6.65,3.05,10c.053232.16485.138156.317713.25.45.114109.130199.253632.235692.41.31.153226.076681.319392.124157.49.14.173006.012013.346629-.011818.51-.07.16485-.053232.317713-.138156.45-.25.257133-.233274.41766-.554329.45-.9.012013-.173006-.011818-.346629-.07-.51-1.11-3.32-1.94-6.65-3-10-.115997-.325201-.352186-.593598-.66-.75-.311741-.149-.666664-.180943-1-.09-.26274.189527-.475507.440044-.62.73-.166552.285554-.25614.609446-.26.94Z" fill="#2d2d2d"/><path d="M82.15,323.09c.84,3.33,1.94,6.93,2.77,10.25.28,1.67,3,.83,2.5-.55-.83-3.6-1.66-6.93-2.77-10.25-.28-1.94-2.77-1.11-2.5.55Z" fill="#2d2d2d"/><path d="M271.65,344.42l-135.2-33.79l7.48,20.77l23,5.27l10.53,17.17c1.178857,1.923266,3.284429,3.082471,5.54,3.05L281.35,358l-9.7-13.58Z" fill="#2d2d2d"/><path d="M127,334.73l22.44-2.22c.805372-.094106,1.559139-.444695,2.15-1c.597907-.545761,1.007509-1.26694,1.17-2.06.264744-2.13129-1.200831-4.091276-3.32-4.44l-21.61-1.66-.83,11.38Z" fill="#3a3a3a"/><path d="M136.46,329.74c.27-3.05-3.61-5.81-8.32-6.09s-8.86,1.94-9.14,5s3.6,5.81,8.31,6.09s8.87-1.95,9.15-5Z" fill="#545454"/><path d="M195.47,355c0,0-1.67-1.1-1.11,7.21s1.38,26.59,1.38,26.59l58.74-1.1c0,0-5.54-20.78-24.94-16.63-8.86,1.94-12.46-1.66-14.68-11.91-1.39-6.1-1.94-5.82-5.26-5.26L195.47,355Z" fill="#102f37"/><path d="M212.92,332.24C214,343,214,350.8,214.58,358.55l-20.5,1.39c-.579994-10.888949-.579994-21.801051,0-32.69l18.84,4.99Z" fill="#f09f96"/><path d="M221,189.28c.977535-2.47786,1.541702-5.099379,1.67-7.76.036882-2.628721-.337645-5.247034-1.11-7.76-.56-1.38-2.77-.55-2.22.84c1.200671,4.47404,1.008809,9.207803-.55,13.57-.220682.596615.041892,1.263812.61,1.55.274301.131143.586547.159529.88.08.297672-.074871.555337-.260963.72-.52Z"/><path d="M240.07,154.93c0,0-33.52,6.07-37.07,6.65s-1.39,7.2.55,7.48s37.68-5.82,37.68-5.82c2.300831-.358509,3.968642-2.383093,3.88-4.71-.060327-.580804-.240817-1.142707-.53-1.65-.289455-.5025-.68125-.938585-1.15-1.28-.470248-.342118-1.009438-.577587-1.58-.69-.587304-.127119-1.195701-.120283-1.78.02Z" fill="#651a20"/><path d="M205.16,169.06c1.39-.56,1.67-2.5,1.11-4.44s-2.22-3.32-3.6-2.77-1.66,2.5-1.11,4.43s2.22,3.33,3.6,2.78Z"/><path d="M205.44,206.46c-.28-3.88-.28-8.59-.83-8.59-2.77.27-6.65,2.21-21.89-1.39C161.39,191.77,152.8,179,152.8,179s-15.51,13-4.43,45.71c0,0,5.54,15.24,12.74,33.52c11.967022,29.753386,19.347777,61.151098,21.89,93.12c13.58.83,16.34.28,31.86.56-.83-20.78-3.05-44.89-5.54-78.13s-3.6-63.72-3.88-67.32Z" fill="#2b667d"/><path d="M214.58,170.16c0,0-5.26.56-3,4.44c1.66,2.77,5.81.55,7.75-2.77c1.67-2.77,30.75-7.76,35.46-8.32s-.55-4.7-1.93-4.7-38.28,11.35-38.28,11.35Z" fill="#e4e4e4"/><path d="M141.8,119.05c0,0,27.28-24.07,43.54-32l.22.35c6.042525,10.063007,7.296617,22.292122,3.422297,33.372098s-12.47568,19.862949-23.472297,23.967902l-1.48.56c0,0-14.3,5-14.8,4.37s-7.23-30.4-7.43-30.62Z"/><path d="M138.39,121c0,0,7.11,22.48,6.44,32.07c0,0,12.25-4.51,19-8-5.568989-10.035108-13.065886-18.870979-22.06-26L138.39,121Z" fill="#9fa0a0"/><g><path d="M61.39,88.8c-2.62-.27-4.47-2.8-4.23-5.8l4.19-53.23c.25-3.25,2.88-5.74,5.72-5.45l31.75,3.29c2.81.29,4.7,3.18,4.17,6.36L94.15,86.73c-.51,3-3,5.15-5.65,4.89l-27.11-2.8v-.02Z" fill="#b4c7d1"/><path d="M68.45,32c-1.9-.18-3.64,1.56-3.84,3.83L60.85,80.39c-.17,2.1,1.06,3.87,2.79,4l23.2,2.34c1.76.18,3.43-1.35,3.78-3.44L98,39.15c.36-2.21-.88-4.22-2.75-4.41L68.45,32Z" fill="#fff"/><path d="M77.14,29.25c-.019039.332308.09632.658318.320127.904694s.537269.392429.869873.405306l10.07,1c.687063.096922,1.327711-.366996,1.45-1.05.019094-.331651-.094613-.657261-.316013-.904928s-.532278-.397018-.863987-.415072l-10.06-1c-.696125-.102739-1.347633.367056-1.47,1.06Z" fill="#161616"/><path d="M72.64,28.8c-.019094.331651.094613.657261.316013.904928s.532278.397018.863987.415072c.696125.102739,1.347633-.367056,1.47-1.06.016301-.331619-.100001-.656099-.323248-.901859s-.535096-.392604-.866752-.408141c-.689303-.097368-1.332969.365543-1.46,1.05Z" fill="#161616"/></g><path d="M116.93,26.53c-2.92.71-3.9,1.82-4.46,5c0,.276142-.223858.5-.5.5s-.5-.223858-.5-.5c-.66-3.18-1.67-4.25-4.61-4.87-.203211-.082894-.336039-.280532-.336039-.5s.132828-.417106.336039-.5c2.92-.71,3.9-1.81,4.47-5c0-.259574.210426-.47.47-.47s.47.210426.47.47c.66,3.18,1.68,4.25,4.62,4.87.215603.065705.366065.260585.375074.485797s-.125408.431487-.335074.514203Z" fill="#ffd01c"/><path d="M53.32,93c-2.92.71-3.91,1.81-4.47,5c0,.259574-.210426.47-.47.47s-.47-.210426-.47-.47c-.67-3.17-1.68-4.24-4.62-4.86-.203211-.082894-.336039-.280532-.336039-.5s.132828-.417106.336039-.5c2.92-.71,3.91-1.81,4.47-5c0-.259574.210426-.47.47-.47s.47.210426.47.47c.67,3.18,1.68,4.24,4.62,4.87.205128.07849.340593.275367.340593.495s-.135465.41651-.340593.495Z" fill="#ffd01c"/><path d="M198.35,80.69c0,0-9.6-3-11.67-15.4-1.24-7.45.78-16.15.82-16.48c1.39-5.53,6.82-16.45,18.7-19.39c10.5-2.64,11.91.55,14.07.65s4.3-1.59,10.86-.06c5.65,1.33,12.32,6.46,16.14,13.62c3.33,6.25,2.95,6.78,4.54,15.29.91,18.8-21.57,14.52-21.57,14.52s-30.24,21.16-33.02,11.43c-.56-1.95,1.13-4.18,1.13-4.18Z"/><path d="M241,92.59c0,0,6-9.26,3.61-24.48s-2.79-22.64-9.64-26c-4.4-2.16-5.39-1.52-7.33.09-1.62,1.35-3.78,4-5.71,5.64-4.28,3.63-10.7,3-13.63,1.7-3.2-1.46,3.94,6.45.33,12.06-6.3,9.73-3.63,21.4-4.56,27.82.33,6.14,9.65,13.29,21.28,12.9c6.7-.23,5.79-6.38,5.79-6.38c1.917326.151002,3.846433-.014543,5.71-.49c1.548759-.683247,2.956238-1.649829,4.15-2.85v-.01Z" fill="#f09f96"/><path d="M207.23,65.34c1,3.27,1.06,8.71-2.25,10.82-.869869.540515-1.875942.821522-2.9.81-3.49-.06-6.36-3.67-7.19-7s-.16-8.17,3.31-9.77c2.074668-.866148,4.448379-.609531,6.29.68c1.415954,1.112364,2.387731,2.694162,2.74,4.46Z" fill="#f09f96"/><path d="M199.23,65.09c.640439-.264464,1.359561-.264464,2,0c1.35.63,1.46,2.66,1.31,3.73-.173917,1.02025-.6677,1.958788-1.41,2.68" fill="none" stroke="#000" stroke-width="3" stroke-linecap="round" stroke-linejoin="round"/><path d="M229.2,62.26c1,2.31,1.94,4.64,2.75,7c.457291,1.087106.766716,2.230633.92,3.4c0,.39,0,.86-.46,1-.154929.041975-.320591.007017-.44535-.093979s-.193446-.255747-.18465-.416021c0-.497056-.402944-.9-.9-.9s-.9.402944-.9.9c.008036.735798.363177,1.42456.957938,1.85783s1.359239.560124,2.062062.34217c1.74-.55,1.8-2.57,1.42-4-.943033-3.433672-2.18097-6.779447-3.7-10-.158983-.276881-.453604-.447913-.772881-.44867s-.614706.168876-.775.445-.161102.616789-.002119.89367l.03.02Z"/><path d="M230.05,73.09l-.07.27c0,.18.05-.18,0,0l-.07.27c-.1.16.14-.16,0,0-.042482.082385-.113611.146401-.2.18-.12.12.17-.09,0,0c0,0-.07.08-.11.07s-.06,0-.12.07.22-.09,0,0c-.089018.013505-.176234.036987-.26.07.15,0,.22-.09,0,0h-.13c-.1,0-.19,0,0,0l-.27-.08c-.09,0-.17-.09,0,0-.09181-.019197-.177596-.060374-.25-.12h-.09c-.1,0-.12-.12-.19-.19s.11.12,0,0l-.06-.12-.07-.11c-.1-.17.07.11,0,0l-.06-.31c-.13601-.468001-.616585-.745765-1.09-.63-.441061.168961-.703764.62348-.63,1.09.25441,1.220327,1.313899,2.105994,2.56,2.14c1.27274-.008892,2.373079-.889991,2.66-2.13.010332-.386808-.230449-.73597-.595671-.863798s-.771189-.005027-1.004329.303798l.05.09Z"/><path d="M223.76,61.61c-.38,1.4-3.34.89-6.16.76-2.11-.09-3.78.52-4.3-.58-.537523-1.45171.151282-3.070621,1.57-3.69c1.86-.76,5.8-.86,7.85.52.941034.655897,1.36263,1.836366,1.05,2.94l-.01.05Z" fill="#fdfaff"/><path d="M242.7,61.26c-.21,1.49-2.51,1-5.34.93-2.08,0-4.52,1-5.09-1.09-.173003-1.17825.455216-2.328626,1.54-2.82c1.87-.81,5.82-.9,7.85.52.802433.542353,1.210047,1.506517,1.04,2.46Z" fill="#fdfaff"/><path d="M235.94,62.58c2.22.6,3.15-2.88.94-3.48s-3.15,2.9-.94,3.48Z"/><path d="M217.09,62.62c2.21.59,3.15-2.88.94-3.48s-3.15,2.86-.94,3.48Z"/><path d="M223.87,52.78c-3.863837-2.856897-9.226791-2.501623-12.68.84-.423463.380215-.602715.962978-.466139,1.515456s.566712.984597,1.118556,1.123711s1.135425-.037457,1.517583-.459167c.141928-.145272.292181-.282169.45-.41s.19-.14,0-.09c.071797-.070222.152484-.130737.24-.18.344877-.237549.709556-.44498,1.09-.62.1,0,.17-.1.27-.12-.16,0,0,0,.09,0s.42-.13.58-.18.41-.08.62-.12L217,54c-.21,0,.09,0,.14,0c1.796707-.186229,3.594137.34581,5,1.48.352599.21273.775358.276404,1.174973.176969s.743237-.353804.955027-.706969c.392578-.743456.159359-1.663373-.54-2.13l.14-.04Z"/><path d="M243,52.44c-2.995167-3.23182-8.010505-3.514624-11.35-.64-.288848.287181-.451262.677684-.451262,1.085s.162414.797819.451262,1.085c.610298.581587,1.569702.581587,2.18,0c.13-.11.11-.07,0,0c.069848-.072461.15088-.133235.24-.18.17-.1.3-.21.47-.31s.33-.15.51-.25.16-.05,0,0l.26-.07c.351958-.112655.713454-.192988,1.08-.24-.15,0-.09,0,0,0c.095666.019669.194334.019669.29,0c.2,0,.4,0,.64,0c.092225.020341.187775.020341.28,0h.18L238,53l.86.23h.18c-.13,0,.14,0,.18,0c.344984.190911.678855.401249,1,.63-.16-.14.2.15,0,0c.09,0,.15.13.23.2s.3.33.46.47c.607422.550453,1.539585.528607,2.120554-.049697s.6071-1.510356.059446-2.120303l-.09.08Z"/><path d="M241.18,49.28c2.92,11.24,4.23,24.33,1.31,35.69-.72,2.66-1.54,5.68-3.69,7.57-1.893966,1.543167-4.302292,2.311401-6.74,2.15-6.48,0-12.36-3-17.95-6-1.74-.91-3.32,1.71-1.6,2.66c9.92,5.25,26.58,12.07,32-2.49c2.39-6.52,2.72-13.84,2.44-20.69-.221272-6.66215-1.163432-13.280742-2.81-19.74-.220914-.828427-1.071573-1.320914-1.9-1.1s-1.320914,1.071573-1.1,1.9l.04.05Z"/><path d="M218.27,71.36L218,72c-.036582.109372-.098222.20868-.18.29-.004619.053542-.034284.101748-.08.13v0c-.126691.1925-.285697.361656-.47.5-.073449.087661-.161391.162074-.26.22-.03281.043811-.073506.081116-.12.11-.165673.112727-.339484.213002-.52.3-.16,0,.16-.06,0,0-.053199-.005347-.106801-.005347-.16,0s-.11.07-.15,0s.15,0,0,0h-.18c-.19,0,.13,0,0,0l-.18-.05v0c-.128528-.023632-.245033-.09071-.33-.19-.126434-.031067-.24323-.0929-.34-.18l.3.32c0,0,.07.26.13.42c0,0-.16.4-.25.56-.26.08-.57.14-.83.21-.120211-.078271-.247423-.145225-.38-.2c0-.38,0-.81,0-1.21-.337789.352082-.337789.907918,0,1.26.161432.16244.380987.253782.61.253782s.448568-.091342.61-.253782c.32786-.356017.32786-.903983,0-1.26-.300893-.343467-.816124-.395863-1.18-.12-.337885.210773-.459304.644414-.28,1c.21314.393699.572177.688109,1,.82.399719.178293.82485.293011,1.26.34.393809-.015988.780855-.107657,1.14-.27.578847-.2728,1.096035-.660691,1.52-1.14.472578-.489153.855112-1.057877,1.13-1.68.079274-.210385.106715-.436768.08-.66-.061977-.207499-.201698-.383045-.39-.49-.416929-.229007-.939889-.098267-1.2.3l-.03.03Z"/><path d="M231.19,80.9c0,0-1.68,6.23-7.32,5.91s-8.85-6.65-8-12.31c0,0,1-1.58,2.34.63s6.59,7,12.94,5.72l.04.05Z"/><path d="M219.18,75.14c-.43,3.22,2.47,7,5.63,7.86c2.21.6,3.57-1,4.33-2.41-4.69-.2-8.46-3.45-9.96-5.45Z" fill="#fff"/><path d="M216,78.93c.71,3.44,2.77,6.42,5.82,7.48.007122-1.867256-.652444-3.675744-1.86-5.1-.929901-1.299794-2.37085-2.140348-3.96-2.31v-.07Z" fill="#d95261"/><path d="M232.58,79.68c-2.644549.735154-5.46713.471761-7.93-.74-1.246698-.586267-2.415665-1.325269-3.48-2.2-1.12875-.743497-2.053505-1.757633-2.69-2.95-.4-1-2.07-.56-1.67.46.59148,1.342112,1.530462,2.502031,2.72,3.36c1.302806,1.087985,2.72531,2.024019,4.24,2.79c2.860778,1.434924,6.148866,1.769426,9.24.94.426881-.156352.661412-.615009.538252-1.052622s-.562484-.706621-1.008252-.617378l.04.01Z"/><path d="M249.71,67.71c-.29-9.48-.58-18.39-.87-23h-1.72v-.29l-4.89.29c-9.97787-.291868-19.964052.092345-29.89,1.15l-10.63.86v.28c.58,2,5.75,28.16-2.3,31s-14.66-4.6-15.81-11.79-6-29.6,13.51-41.38c9.605053-5.436057,20.963837-6.872968,31.62-4c11.49,2.87,21.26,10.63,24.14,22.7c0,.29.28.57.28.86c2.3,13.84-.86,20.45-3.44,23.32Z" fill="#1b4554"/><path d="M197.4,41c-7.47-.57-12.36,2.88-11.78,9.49s2.87,8.62-.58,10.92c-.812514.641167-1.838783.94869-2.87.86-1.44-8-2.59-22.42,7.76-32.76c1.500549-.390757,3.062257-.489212,4.6-.29c6.89,1.13,10.63,12.34,2.87,11.78Z" fill="#d73d3f"/><path d="M199.12,78.06c-.824887.323794-1.695477.516134-2.58.57c1.172653-3.013461,1.568129-6.273564,1.15-9.48-.199824-6.567615-.96938-13.105488-2.3-19.54v-2.3l6-.29c.61,1.98,5.49,27.88-2.27,31.04Z" fill="#123037"/><path d="M239.36,44.43c-4.981455-.188412-9.96961-.091587-14.94.29-.006365-7.138894-3.03676-13.940931-8.34-18.72-3.428552-2.784678-7.666545-4.384451-12.08-4.56c6.801925-2.05703,13.980955-2.549306,21-1.44c10.62,6,13.79,17.25,14.36,24.43Z" fill="#d73d3f"/><path d="M256.32,44.15l-3.74.28-3.74.29h-1.72L201.71,47h-6.32c0,0,1.15,7.18-4.6,8.91s-6.32-10.35,2-17.25c9.79997-6.933487,20.420776-12.626803,31.62-16.95c1.212165-.477957,2.459142-.862414,3.73-1.15c12.07-3.45,14.95-.86,21,4.31c4.610665,4.642683,7.715596,10.566795,8.91,17-.013507.514078-.188435,1.010872-.5,1.42-.312694.405404-.741885.705489-1.23.86Z" fill="#4ba5cc"/><path d="M239.65,45l-15,.86c-.28-5.75-1.43-14.08-8.33-19.83-.29-.29-.58-.29-.86-.58c2.87-1.43,6-2.58,8.91-3.73.779919-.240396,1.544639-.527584,2.29-.86c7.777673,5.650846,12.558829,14.53592,12.99,24.14Z" fill="#3a83a2"/><path d="M256.32,44.15l-3.74.28c-.14105-.269735-.238907-.559931-.29-.86-2.87-12.07-12.64-19.83-24.14-22.7c12.07-3.45,14.95-.87,21,4.31c4.613704,4.640455,7.719158,10.565563,8.91,17c.27.82-.59,1.68-1.74,1.97Z" fill="#b8e0eb"/><path d="M201.82,75.55c0,0,6.83,14.69,16.27,18.55l3.77,1.51c0,0-16.87,4.74-24.63-17c1.972952-.125361,3.726146-1.301796,4.59-3.08v.02Z" fill="#1b4554"/></g></svg>
