<svg id="eYw5hCTg3Z41" xmlns="http://www.w3.org/2000/svg" xmlns:xlink="http://www.w3.org/1999/xlink" viewBox="0 0 400 400" shape-rendering="geometricPrecision" text-rendering="geometricPrecision" project-id="715d7239b57a4d7f9b037a41b86c93e1" export-id="f293089f160648a69487f24e69a07eb8" cached="false"><rect width="63.625" height="63.562" rx="0" ry="0" transform="matrix(6.3 0 0 6.3 -0.41875 -0.2203)" clip-rule="evenodd" fill="#ff2c73" fill-rule="evenodd"/><path d="M328.06,209.074v14.776l12.675-7.327c-2.676-4.279-7.328-7.201-12.675-7.449v0Zm10.699,9.92l-11.235,6.502l11.153,6.461c2.097-3.908,2.262-8.765.082-12.963v0Zm.575,13.293l2.099,1.234c2.635-4.857,2.842-10.906.082-16.133l-2.138,1.276c2.303,4.362,2.138,9.466-.043,13.623v0Zm-3.621-7.984c-.289-.247-.617-.452-.822-.74-.165-.165-.453-.495-.289-.618.246-.247.576.041.658.207.246.164.414.37.661.534.164.123.45.452.41.658-.125.288-.453.041-.618-.041v0Zm2.346,1.81c-.369-.658.66-.452.947,0c.41.701-.658.494-.947,0v0Zm-6.667-.288c-.369-.699-.164-1.604.493-1.975.7-.37,2.799.534,3.171,1.193.368.74-1.03.904-1.73,1.276-.658.37-1.563.165-1.934-.494v0Zm4.979,1.977c-.286-.453-.122-1.029.329-1.276.453-.247,1.028-.082,1.318.329.247.452.083,1.029-.411,1.317-.411.206-.989.123-1.236-.37v0Zm-2.138-1.029c-.415-.742.657-.494.944-.083.372.699-.657.494-.944.083v0Zm2.714,2.839c-.412-.741.617-.495.906,0c.413.699-.657.493-.906,0v0Zm1.977-6.545c.288.454.124,1.07-.33,1.276-.41.288-1.029.123-1.275-.329-.412-.658-.783-2.016-.082-2.016.327.042,1.522.823,1.687,1.069v0Zm-.205-2.18c.369.742-.66.453-.947,0-.372-.699.658-.493.947,0v0Zm-.331,11.481l-11.276-6.42v12.883c4.444-.164,8.726-2.47,11.276-6.463v0Zm-11.194,7.121v2.512c5.516-.165,10.824-3.005,13.91-7.984l-2.099-1.235c-2.674,4.154-7.16,6.543-11.811,6.707v0Zm5.062-7.037c.083-.412.122-.782.247-1.152.043-.165.207-.536.412-.495.288.043.206.495.164.66-.122.246-.164.533-.164.822-.04.206-.165.576-.412.659-.247.082-.247-.329-.247-.494v0Zm-.371,2.921c.371-.699.7.33.493.782-.45.7-.78-.328-.493-.782v0Zm-3.168-7.324c.658.411,2.964,2.098,2.511,2.799-.372.658-1.234.863-1.894.493-1.646-.906-2.264-4.198-.617-3.292v0Zm.822,6.708c.29-.453.865-.617,1.316-.329.414.205.578.781.332,1.234-.247.452-.825.617-1.276.329-.494-.205-.578-.823-.372-1.234v0Zm-.122-2.43c.412-.698.698.33.494.824-.411.699-.742-.329-.494-.824v0Zm-1.153,3.828c.453-.698.783.288.493.781-.368.702-.74-.328-.493-.781v0Zm6.667-1.522c-.247.411-.822.576-1.276.329-.451-.288-.615-.822-.329-1.317.247-.452.783-.616,1.276-.328.454.287.618.823.329,1.316v0Zm-8.355,4.157v-13.006l-11.152,6.42c2.305,3.787,6.462,6.381,11.152,6.586v0Zm-11.77-6.173l-2.182,1.232c2.964,4.735,8.068,7.945,13.952,8.109v-2.47c-4.978-.204-9.301-2.88-11.77-6.871v0Zm8.724.863c.33-.164.7-.288,1.07-.329.164-.041.617-.164.66.123.083.206-.372.412-.536.412-.289.123-.494.163-.783.289-.203.123-.575.164-.739,0-.247-.206.164-.454.328-.495v0Zm-2.756,1.153c.78,0,.083.824-.494.824-.742,0-.042-.824.494-.824v0Zm3.621-5.639c.783,0,1.44.618,1.44,1.441c0,.741-.657,1.399-1.44,1.399-.822,0-1.44-.658-1.44-1.399c0-.823.618-1.441,1.44-1.441v0Zm-2.262,1.977c.822,0,.122.822-.411.822-.826,0-.124-.822.411-.822v0Zm-3.828.905c.822,0,.082.823-.411.823-.826,0-.125-.823.411-.823v0Zm4.65,5.06c-.535,0-.904-.452-.904-.986c0-.493.369-.947.904-.947.493,0,.947.454.947.947c0,.534-.454.986-.947.986v0Zm2.059.866c-.825,0-.082-.781.411-.781.822-.001.04.781-.411.781v0Zm-9.88-6.091l11.277-6.503-11.152-6.42c-2.141,3.909-2.306,8.766-.125,12.923v0Zm-.532-13.212l-2.142-1.274c-2.592,4.896-2.839,10.905-.042,16.133l2.141-1.235c-2.306-4.446-2.141-9.508.043-13.624v0Zm3.62,7.944c.247.205.575.494.823.74.164.123.411.493.247.659-.205.165-.534-.124-.659-.207-.206-.247-.371-.411-.617-.576-.164-.081-.451-.411-.411-.698.124-.248.453,0,.617.082v0Zm4.321-1.481c.369.657.165,1.523-.492,1.893-.701.452-1.605.164-1.977-.493-.372-.7-.164-1.523.536-1.977.658-.37,1.523-.164,1.933.577v0Zm-4.979-2.018c.287.453.122,1.029-.33,1.276-.453.287-1.028.123-1.318-.329-.203-.494-.122-1.03.373-1.276.45-.288.986-.124,1.275.329v0Zm-.618-1.81c.453.7-.576.495-.865.041-.451-.699.658-.494.865-.041v0Zm-1.976,6.543c-.246-.452-.082-1.028.329-1.316.453-.207,1.071-.083,1.318.411.247.411.122.946-.371,1.235-.452.288-.987.123-1.276-.33v0Zm.246,2.182c-.41-.7.661-.411.908,0c.41.741-.661.452-.908,0v0Zm.33-11.525l11.238,6.504v-12.924c-4.405.165-8.687,2.43-11.238,6.42v0Zm11.195-7.119v-2.47c-5.517.164-10.825,3.005-13.953,7.984l2.142,1.276c2.674-4.198,7.16-6.625,11.811-6.79v0Zm-4.69,4.156c-.372.7-.701-.329-.496-.74.413-.741.743.247.496.74v0Zm3.045,5.969c-.371.659-1.235.946-1.894.494-.659-.372-.947-1.275-.494-1.936.369-.658,1.233-.904,1.893-.534.66.452.946,1.276.495,1.976v0Zm-.701-5.309c-.29.451-.865.616-1.318.328-.451-.288-.615-.822-.329-1.317.207-.411.825-.575,1.276-.329.494.288.577.865.371,1.318v0Zm.123,2.344c-.412.701-.74-.328-.493-.739.41-.742.74.328.493.739v0Zm1.154-3.744c-.454.699-.783-.329-.493-.783.368-.699.74.331.493.783v0Zm-6.71,1.522c.29-.452.822-.616,1.318-.328.452.206.616.822.33,1.235-.247.452-.826.616-1.318.411-.412-.288-.576-.907-.33-1.318v0Zm22.432-.082l2.47-1.399c-3.335-5.35-9.138-8.972-15.804-9.178v2.84c5.637.206,10.492,3.251,13.334,7.737v0Zm-9.838-.988c-.368.165-.822.288-1.276.413-.164.041-.657.164-.74-.166-.039-.288.454-.452.576-.493.329-.082.618-.165.907-.288.247-.082.697-.205.905,0c.247.206-.208.452-.372.534v0Zm3.128-1.276c-.946,0-.122-.945.494-.945.907-.001.082.945-.494.945v0Zm-4.115,6.381c-.865,0-1.647-.7-1.647-1.564c0-.947.782-1.647,1.647-1.647.864,0,1.605.7,1.605,1.647.001.863-.74,1.564-1.605,1.564v0Zm6.874-3.294c-.908,0-.082-.904.493-.904.905-.001.083.904-.493.904v0Zm-5.268-5.679c.575,0,1.068.494,1.068,1.11c0,.536-.493,1.03-1.068,1.03-.619,0-1.069-.494-1.069-1.03-.001-.616.45-1.11,1.069-1.11v0Zm-2.306-.988c.904,0,.124.865-.494.865-.946.001-.042-.865.494-.865v0Z" transform="matrix(6.3 0 0 6.3 -1860.986085 -1209.60925)" clip-rule="evenodd" fill="#fff" fill-rule="evenodd"/></svg>
