<svg id="eZajudYHTol1" xmlns="http://www.w3.org/2000/svg" xmlns:xlink="http://www.w3.org/1999/xlink" viewBox="0 0 300 120" shape-rendering="geometricPrecision" text-rendering="geometricPrecision" project-id="0471ab1cc0e24a31bae789b1f6e5279e" export-id="98cf20d32e1746efaefc1dd5bd6b88bd" cached="false"><path d="M196.489,18.773c23.334,0,42.253,98.376,42.253,219.73h33.81c0-130.692-34.059-236.635-76.062-236.635-23.899,0-45.221,31.84-59.163,81.629C123.388,33.708,102.059,1.868,78.162,1.868c-42.003,0-76.066,105.943-76.066,236.635h33.814c0-121.354,18.921-219.73,42.252-219.73c23.338,0,42.264,90.809,42.264,202.834h33.802c.001-112.025,18.921-202.834,42.261-202.834m92.986,202.834c4.586,0,8.43,3.631,8.43,8.408c0,4.853-3.844,8.486-8.43,8.486-4.602,0-8.478-3.635-8.478-8.486c0-4.777,3.876-8.408,8.478-8.408m0,15.661c3.884,0,6.9-3.121,6.9-7.25c0-4.057-3.018-7.174-6.9-7.174-3.932,0-6.945,3.117-6.945,7.174-.001,4.128,3.013,7.25,6.945,7.25Zm-3.287-12.159h3.809c2.331,0,3.43.928,3.43,2.82c0,1.785-1.114,2.531-2.574,2.686l2.804,4.367h-1.646l-2.672-4.248h-1.616v4.248h-1.533l-.002-9.873Zm1.534,4.386h1.597c1.345,0,2.584-.067,2.584-1.632c0-1.313-1.124-1.519-2.157-1.519h-2.022l-.002,3.151Z" transform="matrix(0.5 0 0 0.5 74.99975 -0.092752)" fill="#ffc300"/></svg>
